<svg width="689" height="280" viewBox="0 0 689 280" fill="none" xmlns="http://www.w3.org/2000/svg">
<path d="M14.048 163.788C13.568 163.788 13.136 163.692 12.752 163.5C12.416 163.356 12.248 163.14 12.248 162.852C12.248 162.468 12.416 162.156 12.752 161.916C13.088 161.676 13.568 161.508 14.192 161.412C16.016 161.028 17.36 160.5 18.224 159.828C19.088 159.108 19.52 157.956 19.52 156.372V127.212C19.52 125.244 19.472 123.756 19.376 122.748C19.28 121.74 19.136 121.068 18.944 120.732C18.8 120.348 18.56 120.132 18.224 120.084C17.744 119.892 17.144 119.772 16.424 119.724C15.704 119.676 15.008 119.652 14.336 119.652H12.104C10.712 119.652 9.36798 119.988 8.07198 120.66C6.77598 121.284 5.76798 122.148 5.04798 123.252C4.85598 123.54 4.54398 123.948 4.11198 124.476C3.72798 125.004 3.29598 125.484 2.81598 125.916C2.38398 126.348 1.92798 126.564 1.44798 126.564C1.11198 126.564 0.871984 126.444 0.727984 126.204C0.631984 125.964 0.583984 125.7 0.583984 125.412C0.583984 124.836 0.727984 124.26 1.01598 123.684C1.83198 122.052 2.43198 120.636 2.81598 119.436C3.24798 118.188 3.53598 116.724 3.67998 115.044C3.77598 114.324 3.96798 113.868 4.25598 113.676C4.59198 113.436 4.92798 113.316 5.26398 113.316C5.55198 113.316 5.88798 113.628 6.27198 114.252C6.70398 114.828 7.08798 115.308 7.42398 115.692C7.85598 116.124 8.62398 116.46 9.72798 116.7C10.832 116.892 11.768 116.988 12.536 116.988L39.104 116.916C40.448 116.916 41.576 116.82 42.488 116.628C43.4 116.388 44.12 116.148 44.648 115.908C45.368 115.476 45.944 115.044 46.376 114.612C46.808 114.132 47.312 113.892 47.888 113.892C48.128 113.892 48.296 114.036 48.392 114.324C48.536 114.564 48.608 114.876 48.608 115.26C48.608 115.5 48.584 115.788 48.536 116.124C48.488 116.412 48.44 116.676 48.392 116.916C48.2 117.828 48.008 118.644 47.816 119.364C47.624 120.036 47.456 120.684 47.312 121.308C47.216 121.884 47.168 122.556 47.168 123.324V124.548C47.168 125.22 47.072 125.796 46.88 126.276C46.688 126.756 46.376 126.996 45.944 126.996C45.56 126.996 45.224 126.78 44.936 126.348C44.696 125.868 44.432 125.148 44.144 124.188C43.712 122.652 42.992 121.524 41.984 120.804C40.976 120.036 39.392 119.652 37.232 119.652H32.336C31.424 119.652 30.704 119.82 30.176 120.156C29.696 120.492 29.336 121.236 29.096 122.388C28.904 123.492 28.808 125.22 28.808 127.572V156.3C28.808 157.836 29.24 158.964 30.104 159.684C30.968 160.356 32.336 160.932 34.208 161.412C34.784 161.556 35.24 161.724 35.576 161.916C35.912 162.108 36.08 162.396 36.08 162.78C36.08 163.116 35.912 163.356 35.576 163.5C35.288 163.644 34.904 163.716 34.424 163.716C33.272 163.716 32.12 163.692 30.968 163.644C29.816 163.596 28.664 163.548 27.512 163.5C26.408 163.452 25.328 163.428 24.272 163.428C23.216 163.428 22.112 163.452 20.96 163.5C19.856 163.548 18.704 163.596 17.504 163.644C16.352 163.74 15.2 163.788 14.048 163.788Z" fill="#FC4752"/>
<path d="M49.8359 164.508C48.6839 164.508 47.5799 164.196 46.5239 163.572C45.5159 162.948 44.6999 162.132 44.0759 161.124C43.4519 160.116 43.1399 159.084 43.1399 158.028C43.1399 156.396 43.6199 155.076 44.5799 154.068C45.5399 153.012 46.9799 152.076 48.8999 151.26L55.5959 148.38C56.5559 147.996 57.1319 147.636 57.3239 147.3C57.5639 146.964 57.6839 146.34 57.6839 145.428L57.8279 141.18C57.8759 139.836 57.5879 138.756 56.9639 137.94C56.3879 137.124 55.4999 136.716 54.2999 136.716C53.6759 136.716 53.0279 136.836 52.3559 137.076C51.6839 137.316 51.1559 137.628 50.7719 138.012C50.5799 138.204 50.4359 138.468 50.3399 138.804C50.2919 139.092 50.2679 139.38 50.2679 139.668C50.2679 139.908 50.2679 140.22 50.2679 140.604C50.3159 140.94 50.3399 141.252 50.3399 141.54C50.3399 141.828 49.9799 142.188 49.2599 142.62C48.5399 143.052 47.7239 143.436 46.8119 143.772C45.8999 144.108 45.1319 144.276 44.5079 144.276C44.1719 144.276 43.9079 144.156 43.7159 143.916C43.5239 143.676 43.4279 143.388 43.4279 143.052C43.4279 142.284 43.6679 141.516 44.1479 140.748C44.6759 139.932 45.4919 139.068 46.5959 138.156C47.7959 137.148 49.1159 136.26 50.5559 135.492C51.9959 134.676 53.3879 134.028 54.7319 133.548C56.1239 133.068 57.3239 132.828 58.3319 132.828C60.6359 132.828 62.4839 133.596 63.8759 135.132C65.2679 136.62 65.9399 138.588 65.8919 141.036L65.5319 156.444C65.4839 157.5 65.6759 158.388 66.1079 159.108C66.5879 159.828 67.1639 160.188 67.8359 160.188C68.8439 160.188 69.6599 159.9 70.2839 159.324C70.4759 159.132 70.6439 159.036 70.7879 159.036C71.0279 159.036 71.2199 159.132 71.3639 159.324C71.5559 159.468 71.6519 159.66 71.6519 159.9C71.6519 160.428 71.2679 161.076 70.4999 161.844C69.6359 162.708 68.6999 163.356 67.6919 163.788C66.7319 164.268 65.7719 164.508 64.8119 164.508C62.2679 164.508 60.2039 163.188 58.6199 160.548H58.4039C56.8199 161.94 55.3559 162.948 54.0119 163.572C52.7159 164.196 51.3239 164.508 49.8359 164.508ZM53.7959 160.188C54.4679 160.188 55.0439 160.092 55.5239 159.9C56.0039 159.66 56.4119 159.348 56.7479 158.964C56.9399 158.724 57.0839 158.436 57.1799 158.1C57.3239 157.764 57.4199 157.284 57.4679 156.66L57.6119 152.052C57.6599 151.572 57.6119 151.26 57.4679 151.116C57.3239 150.924 57.1559 150.828 56.9639 150.828C56.8679 150.828 56.7239 150.852 56.5319 150.9C56.3399 150.9 56.1239 150.972 55.8839 151.116C54.1079 151.836 52.8359 152.604 52.0679 153.42C51.2999 154.236 50.9159 155.292 50.9159 156.588C50.9159 157.884 51.2279 158.82 51.8519 159.396C52.4759 159.924 53.1239 160.188 53.7959 160.188Z" fill="#FC4752"/>
<path d="M86.4699 164.508C83.5899 164.508 81.4059 163.74 79.9179 162.204C78.4299 160.668 77.6859 158.436 77.6859 155.508V138.876C77.6859 138.492 77.5179 138.204 77.1819 138.012C76.8939 137.82 76.2939 137.7 75.3819 137.652H74.5899C74.3019 137.652 74.0619 137.436 73.8699 137.004C73.6779 136.524 73.5819 136.068 73.5819 135.636C73.5819 135.54 73.6059 135.42 73.6539 135.276C73.7499 135.084 73.8699 134.964 74.0139 134.916C75.1179 134.436 76.2459 133.788 77.3979 132.972C78.5499 132.108 79.6299 131.244 80.6379 130.38C81.6459 129.468 82.4859 128.7 83.1579 128.076C83.4939 127.836 83.7579 127.62 83.9499 127.428C84.1899 127.236 84.4539 127.14 84.7419 127.14C85.1259 127.14 85.4139 127.236 85.6059 127.428C85.8459 127.572 85.9179 127.884 85.8219 128.364L85.3899 132.324C85.3419 132.9 85.4619 133.284 85.7499 133.476C86.0859 133.668 86.5419 133.764 87.1179 133.764H95.6139C95.7579 133.764 95.9019 133.932 96.0459 134.268C96.1899 134.604 96.2619 134.94 96.2619 135.276C96.2619 135.9 96.1659 136.476 95.9739 137.004C95.8299 137.532 95.6379 137.796 95.3979 137.796H88.5579C87.4539 137.796 86.6859 137.916 86.2539 138.156C85.8699 138.396 85.6779 138.9 85.6779 139.668V153.492C85.6779 155.604 86.0859 157.212 86.9019 158.316C87.7179 159.372 88.8699 159.9 90.3579 159.9C91.7019 159.9 92.7099 159.78 93.3819 159.54C94.1019 159.3 94.7499 159.012 95.3259 158.676C95.4699 158.58 95.5899 158.532 95.6859 158.532C95.9259 158.532 96.0939 158.676 96.1899 158.964C96.3339 159.252 96.4059 159.564 96.4059 159.9C96.4059 160.14 95.9259 160.644 94.9659 161.412C94.0539 162.18 92.8299 162.876 91.2939 163.5C89.8059 164.172 88.1979 164.508 86.4699 164.508Z" fill="#FC4752"/>
<path d="M112.064 164.508C109.184 164.508 107 163.74 105.512 162.204C104.024 160.668 103.28 158.436 103.28 155.508V138.876C103.28 138.492 103.112 138.204 102.776 138.012C102.488 137.82 101.888 137.7 100.976 137.652H100.184C99.8956 137.652 99.6556 137.436 99.4636 137.004C99.2716 136.524 99.1756 136.068 99.1756 135.636C99.1756 135.54 99.1996 135.42 99.2476 135.276C99.3436 135.084 99.4636 134.964 99.6076 134.916C100.712 134.436 101.84 133.788 102.992 132.972C104.144 132.108 105.224 131.244 106.232 130.38C107.24 129.468 108.08 128.7 108.752 128.076C109.088 127.836 109.352 127.62 109.544 127.428C109.784 127.236 110.048 127.14 110.336 127.14C110.72 127.14 111.008 127.236 111.2 127.428C111.44 127.572 111.512 127.884 111.416 128.364L110.984 132.324C110.936 132.9 111.056 133.284 111.344 133.476C111.68 133.668 112.136 133.764 112.712 133.764H121.208C121.352 133.764 121.496 133.932 121.64 134.268C121.784 134.604 121.856 134.94 121.856 135.276C121.856 135.9 121.76 136.476 121.568 137.004C121.424 137.532 121.232 137.796 120.992 137.796H114.152C113.048 137.796 112.28 137.916 111.848 138.156C111.464 138.396 111.272 138.9 111.272 139.668V153.492C111.272 155.604 111.68 157.212 112.496 158.316C113.312 159.372 114.464 159.9 115.952 159.9C117.296 159.9 118.304 159.78 118.976 159.54C119.696 159.3 120.344 159.012 120.92 158.676C121.064 158.58 121.184 158.532 121.28 158.532C121.52 158.532 121.688 158.676 121.784 158.964C121.928 159.252 122 159.564 122 159.9C122 160.14 121.52 160.644 120.56 161.412C119.648 162.18 118.424 162.876 116.888 163.5C115.4 164.172 113.792 164.508 112.064 164.508Z" fill="#FC4752"/>
<path d="M139.601 164.508C136.769 164.508 134.225 163.884 131.969 162.636C129.713 161.34 127.913 159.564 126.569 157.308C125.225 155.052 124.553 152.508 124.553 149.676C124.553 147.468 124.985 145.356 125.849 143.34C126.713 141.324 127.889 139.524 129.377 137.94C130.865 136.356 132.617 135.108 134.633 134.196C136.649 133.236 138.809 132.756 141.113 132.756C144.041 132.756 146.657 133.452 148.961 134.844C151.313 136.188 153.185 137.988 154.577 140.244C155.969 142.5 156.665 144.972 156.665 147.66C156.665 150.636 156.017 153.42 154.721 156.012C153.473 158.556 151.577 160.62 149.033 162.204C146.537 163.74 143.393 164.508 139.601 164.508ZM141.041 161.7C142.241 161.7 143.297 161.46 144.209 160.98C145.169 160.5 145.937 159.756 146.513 158.748C147.089 157.74 147.473 156.42 147.665 154.788C147.905 153.108 148.025 151.308 148.025 149.388C148.025 146.844 147.689 144.54 147.017 142.476C146.345 140.412 145.409 138.756 144.209 137.508C143.009 136.26 141.593 135.636 139.961 135.636C139.049 135.636 138.209 135.804 137.441 136.14C136.721 136.428 136.049 136.932 135.425 137.652C134.561 138.66 133.961 140.052 133.625 141.828C133.337 143.556 133.193 145.572 133.193 147.876C133.193 150.18 133.529 152.388 134.201 154.5C134.921 156.612 135.857 158.34 137.009 159.684C138.209 161.028 139.553 161.7 141.041 161.7Z" fill="#FC4752"/>
<path d="M175.601 164.508C172.769 164.508 170.225 163.884 167.969 162.636C165.713 161.34 163.913 159.564 162.569 157.308C161.225 155.052 160.553 152.508 160.553 149.676C160.553 147.468 160.985 145.356 161.849 143.34C162.713 141.324 163.889 139.524 165.377 137.94C166.865 136.356 168.617 135.108 170.633 134.196C172.649 133.236 174.809 132.756 177.113 132.756C180.041 132.756 182.657 133.452 184.961 134.844C187.313 136.188 189.185 137.988 190.577 140.244C191.969 142.5 192.665 144.972 192.665 147.66C192.665 150.636 192.017 153.42 190.721 156.012C189.473 158.556 187.577 160.62 185.033 162.204C182.537 163.74 179.393 164.508 175.601 164.508ZM177.041 161.7C178.241 161.7 179.297 161.46 180.209 160.98C181.169 160.5 181.937 159.756 182.513 158.748C183.089 157.74 183.473 156.42 183.665 154.788C183.905 153.108 184.025 151.308 184.025 149.388C184.025 146.844 183.689 144.54 183.017 142.476C182.345 140.412 181.409 138.756 180.209 137.508C179.009 136.26 177.593 135.636 175.961 135.636C175.049 135.636 174.209 135.804 173.441 136.14C172.721 136.428 172.049 136.932 171.425 137.652C170.561 138.66 169.961 140.052 169.625 141.828C169.337 143.556 169.193 145.572 169.193 147.876C169.193 150.18 169.529 152.388 170.201 154.5C170.921 156.612 171.857 158.34 173.009 159.684C174.209 161.028 175.553 161.7 177.041 161.7Z" fill="#FC4752"/>
<path d="M205.985 164.508C204.449 164.508 202.961 164.292 201.521 163.86C200.129 163.476 198.857 162.876 197.705 162.06C197.369 161.388 197.105 160.332 196.913 158.892C196.769 157.452 196.697 156.036 196.697 154.644C196.697 154.068 197.105 153.78 197.921 153.78C198.257 153.78 198.545 153.876 198.785 154.068C199.025 154.26 199.193 154.476 199.289 154.716C200.105 156.828 201.137 158.532 202.385 159.828C203.633 161.076 205.049 161.7 206.633 161.7C207.977 161.7 209.033 161.292 209.801 160.476C210.569 159.612 210.953 158.628 210.953 157.524C210.953 156.228 210.473 155.148 209.513 154.284C208.601 153.42 207.329 152.532 205.697 151.62C204.209 150.804 202.865 149.94 201.665 149.028C200.513 148.116 199.601 147.084 198.929 145.932C198.257 144.732 197.921 143.34 197.921 141.756C197.921 139.98 198.377 138.42 199.289 137.076C200.201 135.732 201.473 134.676 203.105 133.908C204.785 133.14 206.705 132.756 208.865 132.756C210.401 132.756 211.769 132.924 212.969 133.26C214.217 133.596 215.081 133.932 215.561 134.268C215.945 134.748 216.257 135.636 216.497 136.932C216.737 138.18 216.857 139.5 216.857 140.892C216.857 141.324 216.497 141.54 215.777 141.54C215.441 141.54 215.105 141.444 214.769 141.252C214.433 141.06 214.217 140.868 214.121 140.676C213.497 138.9 212.705 137.556 211.745 136.644C210.785 135.732 209.681 135.276 208.433 135.276C207.329 135.276 206.321 135.636 205.409 136.356C204.545 137.028 204.113 137.988 204.113 139.236C204.113 140.244 204.521 141.156 205.337 141.972C206.201 142.788 207.425 143.628 209.009 144.492C212.033 146.124 214.217 147.684 215.561 149.172C216.905 150.612 217.577 152.556 217.577 155.004C217.577 157.932 216.569 160.26 214.553 161.988C212.537 163.668 209.681 164.508 205.985 164.508Z" fill="#FC4752"/>
<path d="M278.992 211.093C269.958 206.564 261.705 200.956 254.456 193.841C252.736 192.152 250.326 191.168 248.007 189.718C248.8 189.607 249.471 189.513 251.133 189.281C248.191 187.598 245.952 186.318 243.714 185.038C243.725 184.865 243.736 184.693 243.746 184.52C244.667 184.652 245.587 184.785 246.848 185.112C247.298 185.012 247.407 184.717 247.515 184.422C241.2 174.445 237.531 163.398 236.474 151.806C235.118 136.938 236.513 122.218 242.738 108.305C244.09 105.283 245.023 102.075 246.334 99.0326C246.646 98.3095 247.703 97.9088 248.371 97.8101C248.561 98.1492 248.799 98.038 249.036 97.9269C249.769 96.718 250.502 95.5092 251.169 94.0558C251.103 93.8112 251.162 93.7814 251.162 93.7814C251.851 93.1521 252.771 92.649 253.195 91.8739C257.78 83.4856 265.32 77.9112 272.106 71.5799C281.172 63.1203 290.049 54.4546 298.902 45.7705C300.61 44.0956 301.911 41.9794 303.27 39.9787C307.815 33.2907 308.93 26.4451 303.624 19.1688C309.638 15.8329 315.469 12.598 321.493 9.25603C324.279 15.5594 326.773 21.9696 324.18 29.0488C321.979 35.0596 318.037 39.9749 313.271 44.0489C307.072 49.3471 300.497 54.2038 294.092 59.2599C293.633 59.6225 293.234 60.0617 292.132 61.1023C294.079 60.6991 295.229 60.6219 296.255 60.223C305.089 56.7872 314.31 55.3079 323.703 54.7121C335.519 53.9628 346.945 55.7684 357.934 60.1934C359.603 60.8653 361.279 61.655 362.729 62.7005C364.596 64.0469 365.518 63.3724 366.929 61.8695C371.061 57.4715 375.331 53.1848 379.784 49.1153C383.839 45.4104 389.018 44.4051 394.216 45.1901C397.359 45.6647 399.519 45.1452 401.664 42.946C402.375 42.2176 403.816 42.204 405.097 42.3505C403.96 44.1534 403.605 46.5717 400.648 45.9341C399.949 45.7834 398.745 47.2095 398.015 48.1079C394.71 52.1803 391.479 56.3138 388.251 60.4483C387.505 61.4039 386.875 62.4504 386.272 63.3361C378.759 57.8493 369.01 61.654 364.687 66.3568C360.528 70.8822 356.697 75.7105 352.711 80.3966C351.866 81.3911 350.973 82.3463 350.043 83.3858C344.533 78.2436 337.983 75.3065 330.636 73.1301C330.13 73.104 329.987 73.1421 329.844 73.1802C329.959 73.3361 330.074 73.492 330.189 73.6479C330.127 74.1339 330.13 74.6416 329.98 75.0989C329.868 75.4413 329.558 75.7189 329.274 76.1123C328.481 72.566 327.85 72.2283 322.615 72.3727C322.311 72.0152 322.295 71.8525 322.202 71.4609C319.236 70.9608 316.345 70.6897 313.286 70.4027C313.286 72.2267 313.286 73.5026 313.326 75.0048C313.641 75.3238 313.916 75.4164 314.192 75.509C313.907 76.1125 313.38 76.7142 313.375 77.3199C313.318 84.7426 313.338 92.1658 313.338 99.6791C319.726 98.6349 324.662 93.5193 323.465 89.4909C325.788 88.9747 327.77 87.6405 329.536 91.1579C330.828 93.7308 334.137 94.484 337.286 94.0232C343.291 93.1444 348.774 91.1163 353.327 86.9451C353.586 86.7076 353.934 86.5676 354.655 86.724C353.529 88.4193 352.402 90.1145 351.049 92.1515C356.747 92.7976 362.022 92.9512 367.048 89.5024C367.449 89.6411 367.528 89.7175 367.607 89.7939C367.183 90.2746 366.758 90.7553 366.334 91.236C366.422 91.4346 366.511 91.6333 366.599 91.832C372.385 90.68 378.201 89.6545 383.948 88.3292C387.451 87.5214 390.899 86.3898 394.264 85.117C395.487 84.6544 397.193 83.4521 397.311 82.4291C397.806 78.1366 401.444 78.519 404.808 76.6744C403.461 80.4594 402.408 83.4192 401.298 86.5368C403.192 87.0025 405.507 87.5717 408.573 88.3255C407.512 88.7417 407.239 88.9642 407.03 88.9142C400.265 87.2931 393.593 88.6238 387.439 90.9331C376.691 94.9663 365.177 95.5796 354.565 99.4837C354.978 99.7095 355.606 100.053 355.713 100.112C349.228 101.04 342.412 102.016 335.596 102.992C335.599 103.401 335.601 103.81 335.604 104.219C336.56 104.329 337.515 104.489 338.475 104.541C370.16 106.249 390.63 131.1 390.324 159.769C390.179 173.347 385.119 185.251 378.886 196.884C376.081 202.12 373.49 207.47 370.509 212.975C367.674 215.944 367.511 219.444 367.282 222.901C367.268 223.099 368.02 223.348 368.416 223.572C368.543 224.794 368.669 226.016 368.576 227.555C366.319 229.901 367.509 231.533 368.829 233.234C369.166 234.139 369.671 234.939 370.155 235.717C370.133 235.694 370.099 235.747 370.099 235.747C371.681 239.36 371.666 239.539 369.346 243.754C366.948 241.239 365.237 238.577 364.762 235.019C363.851 228.195 364.781 221.619 366.673 215.097C366.918 214.253 367.002 213.363 367.145 212.491C367.153 212.442 367 212.306 366.948 212.319C366.792 212.355 366.649 212.445 366.152 212.518C365.154 212.417 364.505 212.313 363.856 212.208C364.204 212.769 364.552 213.33 364.9 213.891C364.9 213.891 364.796 214.171 364.556 214.312C364.05 214.772 363.784 215.091 363.518 215.41C363.47 215.51 363.422 215.61 363.244 215.719C363.114 215.728 362.993 215.653 362.982 215.489C362.562 215.238 362.153 215.152 361.645 215.049C361.547 215.033 361.347 215.039 361.253 214.916C360.944 214.877 360.729 214.961 360.521 215.057C360.528 215.07 360.521 215.046 360.364 215.085C360.109 215.302 360.009 215.481 359.911 215.658C359.911 215.658 359.901 215.651 359.686 215.659C357.812 217.226 356.154 218.786 354.299 220.409C353.807 220.676 353.512 220.879 353.244 221.061C353.271 221.04 353.218 220.997 353.218 220.997C339.377 229.395 325.752 250.985 327.115 262.601C318.548 264.771 309.852 266.715 301.798 271.371C301.325 271.29 301.213 271.142 301.146 270.959C301.714 269.714 302.725 268.485 302.774 267.22C302.985 261.817 304.879 256.914 307.582 252.48C313.909 242.102 321.702 232.978 332.434 226.123C334.418 224.335 336.06 222.792 337.703 221.249C337.542 220.955 337.381 220.661 337.22 220.367C333.296 221.443 329.367 222.439 325.286 221.837C325.122 221.812 324.868 222.402 324.656 222.705C324.445 222.7 324.235 222.695 323.813 222.419C321.757 222.027 319.912 221.906 317.805 221.777C315.296 221.591 313.05 221.414 310.804 221.237C306.961 220.466 303.117 219.695 298.89 218.81C298.207 218.635 297.909 218.574 297.479 218.389C296.993 218.211 296.638 218.157 296.117 217.953C291.409 216.104 286.867 214.406 282.125 212.581C281.676 212.498 281.427 212.541 281.158 212.614C281.139 212.643 281.17 212.581 281.198 212.343C280.497 211.861 279.769 211.618 279.062 211.329C279.042 211.14 279.011 211.077 278.992 211.093ZM312.655 188.427C312.655 186.976 312.655 185.525 312.655 183.952C311.018 184.478 309.698 184.902 308.327 184.892C311.754 182.932 313.485 180.208 312.725 176.067C312.408 174.34 312.672 172.506 312.672 170.721C312.997 170.728 313.323 170.736 313.648 170.743C313.648 173.916 313.648 177.09 313.648 180.777C315.125 179.831 316.129 179.237 317.082 178.569C319.667 176.756 322.23 174.912 324.805 173.571C325.603 173.812 326.401 174.053 327.702 174.397C337.111 175.511 345.654 178.867 353.435 184.259C354.034 184.674 354.929 184.66 355.62 185.2C355.698 185.292 355.777 185.383 355.616 185.805C351.546 189.358 347.475 192.911 343.405 196.464C343.589 196.687 343.774 196.91 343.958 197.133C359.998 193.355 372.304 183.995 382.541 170.887C382.607 170.665 382.672 170.443 382.738 170.22C382.366 170.351 381.994 170.483 381.183 170.701C375.775 173.454 370.366 176.206 364.601 178.754C364.471 178.711 364.341 178.668 364.142 178.205C363.833 177.948 363.545 177.66 363.212 177.439C354.857 171.88 345.295 170.164 335.619 169.028C333.698 168.803 331.627 169.863 329.26 170.168C329.001 169.964 328.741 169.761 328.894 169.504C329.016 169.394 329.157 169.296 329.253 169.166C329.285 169.121 329.22 168.924 329.177 168.916C328.203 168.727 327.215 168.602 326.252 168.371C322.307 167.424 318.369 166.445 314.166 165.237C313.694 165.247 313.221 165.256 312.683 164.702C312.683 152.002 312.683 139.302 312.683 126.602C312.285 126.513 311.888 126.424 311.49 126.335C309.536 128.593 307.582 130.85 305.413 133.356C306.829 133.935 307.714 134.297 308.597 134.658C306.77 138.705 305.532 139.306 302.078 137.373C302.525 135.999 302.657 134.388 303.479 133.297C305.712 130.332 308.247 127.595 310.637 124.746C311.199 124.076 312.067 123.333 312.094 122.598C312.238 118.617 312.162 114.628 312.162 110.407C305.137 112.2 298.359 113.93 291.454 115.693C293.978 116.91 296.366 118.15 298.83 119.216C300.372 119.882 301.218 120.723 301.198 122.558C301.141 127.693 301.255 132.829 301.127 138.511C301.127 146.974 301.127 155.436 301.127 163.776C302.397 164.196 303.192 164.251 303.697 164.664C305.276 165.956 308.066 167.494 307.962 168.732C307.786 170.828 305.753 172.766 304.501 174.771C304.215 174.59 303.929 174.409 303.7 174.243C303.7 174.243 303.66 174.211 304.117 174.027C303.847 173.133 303.843 171.971 303.26 171.393C300.674 168.826 297.367 168.188 293.848 168.38C293.835 168.38 293.843 168.787 293.792 169.487C293.798 169.649 293.803 169.811 293.301 169.856C282.641 167.33 276.587 172.057 273.912 182.587C277.456 184.741 281.144 186.981 284.846 189.231C285.649 187.851 286.198 186.907 287.13 185.991C287.384 185.977 287.639 185.963 287.71 186.389C286.698 188.24 286.723 189.897 288.752 191.017C290.023 191.718 291.323 192.458 292.704 192.853C299.307 194.739 305.941 196.513 313.105 198.475C312.919 195.175 312.778 192.692 312.69 189.799C312.678 189.525 312.666 189.25 312.655 188.427ZM246.398 131.183C245.554 134.121 245.28 136.927 248.496 139.114C248.496 137.044 248.496 135.092 248.875 133.162C249.001 133.156 249.128 133.151 249.197 133.694C249.311 136.291 249.3 138.901 249.585 141.478C249.748 142.954 250.393 144.375 250.821 145.821C251.642 144.523 252.544 143.269 253.268 141.919C255.196 138.324 256.643 134.377 259.086 131.188C260.474 129.377 263.397 128.664 265.745 127.755C266.119 127.61 267.102 129.042 267.804 129.745C267.133 130.269 266.525 130.922 265.777 131.286C264.645 131.837 263.277 131.977 262.251 132.656C257.591 135.741 256.046 140.706 254.342 145.946C255.162 145.824 255.632 145.754 256.389 145.935C256.491 146.011 256.592 146.088 256.456 146.535C253.956 150.539 253.393 154.522 256.812 158.582C256.11 158.837 255.587 159.026 255.086 158.88C254.949 158.873 254.812 158.866 254.675 158.859C254.805 158.978 254.934 159.097 254.914 159.635C255.529 161.957 257.856 162.945 258.741 165.49C260.2 169.69 264.601 170.466 270.23 169.342C270.223 169.596 270.216 169.849 269.918 170.271C269.87 170.398 269.806 170.522 269.788 170.653C269.784 170.681 269.947 170.761 270.037 170.768C274.86 171.175 279.295 165.26 278.523 159.393C278.265 157.426 277.62 155.48 277.599 153.52C277.575 151.269 277.991 149.004 278.314 146.759C279.341 139.623 272.687 135.45 266.278 136.816C266.878 136.111 267.587 135.263 268.372 135.184C271.551 134.866 274.754 134.784 278.319 134.595C278.319 129.903 278.319 124.506 278.319 118.683C271.823 120.312 265.395 121.95 258.95 123.519C257.666 123.832 256.317 123.879 255.064 123.597C256.008 123.267 256.965 122.969 257.895 122.604C265.181 119.746 266.997 113.719 262.167 108.461C264.957 107.569 267.476 107.485 269.687 110.002C270.211 110.599 271.817 110.243 272.95 110.568C272.904 110.587 272.858 110.607 272.813 110.626C272.858 110.535 272.904 110.445 272.654 110.473C272.604 110.38 272.554 110.286 272.583 110.103C272.583 110.103 272.665 110.016 273.147 110.025C276.481 109.731 277.39 108.368 276.26 105.414C276.167 105.17 276.326 104.816 276.403 104.523C277.227 101.388 279.397 98.4774 278.193 95.2787C274.57 95.0604 271.168 94.8555 267.306 94.6227C268.205 92.431 268.767 91.0613 269.406 89.5052C275.184 91.3732 280.475 90.4696 285.511 87.583C286.091 87.2509 286.842 86.922 287.46 87.0021C292.508 87.6554 295.507 84.2195 298.523 81.1982C299.353 80.3661 299.447 78.0292 298.924 76.7873C298.128 74.9017 296.435 75.922 295.062 76.5913C294.757 76.74 294.318 76.6131 293.391 76.6131C294.478 75.0359 295.32 73.8144 296.162 72.5929C296.016 72.304 295.87 72.0151 295.725 71.7262C291.101 73.2983 286.436 74.762 281.862 76.4671C274.528 79.2007 268.075 83.294 262.655 89.6013C261.903 90.3381 261 90.9747 260.431 91.8334C259.38 93.4221 258.524 95.141 257.375 97.1602C256.555 98.3652 255.798 99.6185 254.907 100.768C249.2 108.127 247.475 116.801 246.574 126.317C246.586 127.789 246.597 129.261 246.398 131.183ZM327.639 139.671C327.464 139.589 327.331 139.463 327.544 139.019C330.987 135.048 336.16 133.489 339.985 129.876C341.571 130.914 342.952 132.199 344.585 132.821C351.604 135.495 358.723 137.904 365.751 140.558C368.675 141.662 371.285 142.022 373.855 138.787C370.527 136.316 367.402 133.391 363.764 131.413C353.502 125.833 342.532 122.434 330.761 121.898C325.424 121.656 320.062 121.021 315.168 123.911C314.405 124.361 313.347 125.236 313.347 125.915C313.343 132.394 313.538 138.873 313.676 145.352C313.965 145.456 314.254 145.561 314.543 145.665C315.726 144.337 316.908 143.009 318.129 141.637C318.262 142.083 318.397 142.535 318.623 143.291C319.431 142.376 320.021 141.706 320.923 141.383C321.418 141.921 321.912 142.459 322.083 143.338C320.399 144.28 318.715 145.223 317.031 146.165C317 146.545 316.969 146.925 316.938 147.305C322.103 149.016 327.198 151 332.455 152.36C337.486 153.662 342.673 154.389 347.819 155.195C348.957 155.373 350.236 154.91 351.401 154.574C352.659 154.211 353.861 153.651 355.011 153.59C354.008 154.303 353.005 155.015 352.613 155.294C363.198 159.4 373.819 163.52 384.488 167.658C387.581 161.618 383.107 147.91 375.965 142.662C374.774 143.42 373.594 144.172 372.508 144.864C371.92 144.004 371.436 143.298 370.817 142.392C365.42 146.102 360.232 149.668 354.623 152.881C355.167 152.262 355.711 151.643 356.296 150.978C346.963 148.365 338 145.218 329.808 140.159C329.291 139.839 328.522 139.927 327.639 139.671ZM311.337 76.9434C311.578 76.4392 311.82 75.935 312.191 74.8844C312.191 73.5096 312.191 72.1348 312.191 70.32C308.834 70.6283 305.8 70.907 302.47 71.2128C305.078 74.3721 303.606 77.2464 302.072 79.5909C299.986 82.7797 300.67 86.0179 300.524 89.5304C301.423 88.7824 302.078 88.2371 302.927 87.5308C302.927 88.3946 302.927 88.8914 302.551 89.617C302.163 90.7426 301.774 91.8682 301.161 93.3735C302.091 99.6287 304.953 102.43 312.053 100.692C312.241 100.165 312.429 99.6372 312.729 98.5979C312.692 97.5539 312.656 96.5099 312.724 95.063C312.675 94.793 312.626 94.5231 312.647 93.6877C312.581 88.9549 312.567 84.22 312.392 79.4912C312.365 78.7669 311.591 78.0703 311.337 76.9434ZM322.356 186.798C319.63 185.868 316.905 184.938 313.748 183.861C313.748 188.888 313.748 193.448 313.748 198.16C322.268 198.569 330.412 199.811 338.93 197.698C334.235 192.651 328.68 189.569 322.356 186.798ZM313.304 118.071C313.304 119.187 313.304 120.303 313.304 122.024C319.81 116.219 325.716 110.949 331.622 105.678C327.751 105.987 324.256 106.851 320.777 107.77C313.292 109.746 313.295 109.757 313.304 118.071ZM270.824 179.511C271.308 179.434 272.045 179.53 272.235 179.252C274.031 176.612 275.774 173.933 277.44 171.209C277.908 170.444 278.069 169.491 278.372 168.624C273.887 173.404 268.441 172.161 262.959 171.934C265.473 174.368 267.987 176.801 270.824 179.511ZM300.564 101.001C300.564 102.044 300.564 103.088 300.564 104.351C302.703 103.804 304.522 103.34 306.42 102.855C304.664 101.902 303.212 101.07 301.712 100.336C301.421 100.193 300.944 100.434 300.564 101.001ZM248.356 99.3935C248.23 99.3453 248.105 99.2972 247.979 99.2491C248.017 99.3839 248.056 99.5188 248.356 99.3935Z" fill="#FC4752"/>
<path d="M383.541 109.516C387.478 104.952 391.284 100.569 394.656 96.6864C397.592 98.9414 400.579 101.344 403.678 103.591C408.603 107.162 408.804 107.823 404.926 112.368C401.574 116.296 398.022 120.053 395.071 123.318C393.484 121.51 392.147 119.765 390.583 118.258C388.484 116.237 386.125 114.485 384.066 112.429C383.502 111.865 383.61 110.626 383.541 109.516Z" fill="#FC4752"/>
<path d="M324.848 222.804C324.868 222.402 325.122 221.812 325.286 221.837C329.367 222.439 333.296 221.443 337.22 220.367C337.381 220.661 337.542 220.955 337.703 221.249C336.06 222.792 334.418 224.335 332.606 225.988C331.931 223.687 330.008 224.83 328.89 224.981C326.321 225.327 323.823 226.179 321.286 226.783C319.766 227.145 318.227 227.426 316.62 227.759C317.443 227.172 318.137 226.677 319.44 225.748C308.241 225.748 297.851 225.748 287.461 225.748C287.427 225.391 287.393 225.034 287.359 224.676C289.23 224.623 291.102 224.493 292.971 224.53C304.272 224.75 315.591 225.53 326.829 222.902C326.233 222.902 325.636 222.902 324.848 222.804ZM320.214 225.467C319.95 225.565 319.686 225.664 319.422 225.762C319.437 225.869 319.453 225.976 319.468 226.082C320.143 226.007 320.817 225.932 321.66 225.839C321.397 225.644 321.325 225.558 321.236 225.533C321.054 225.481 320.862 225.463 320.214 225.467Z" fill="#FC4752"/>
<path d="M278.801 211.393C279.011 211.077 279.041 211.14 278.871 211.595C279.496 212.131 280.333 212.356 281.17 212.581C281.17 212.581 281.139 212.643 281.027 212.779C281.142 213.057 281.369 213.199 281.74 213.506C284.166 214.605 286.475 215.479 288.718 216.499C290.065 217.111 291.308 217.95 292.598 218.687C286.851 216.614 281.063 214.647 275.368 212.439C268.97 209.958 262.481 208.691 255.642 210.029C255.542 210.049 255.384 209.774 255.257 209.634C257.092 208.257 260.222 207.739 264.622 208.579C268.354 209.292 272.001 210.442 275.7 211.342C276.643 211.571 277.639 211.582 278.801 211.393Z" fill="#FC4752"/>
<path d="M286.112 47.0713C286.66 46.193 287.101 45.4999 287.398 45.0329C288.247 48.8957 277.539 64.945 269.015 71.6642C274.965 63.7257 282.073 56.5819 286.112 47.0713Z" fill="#FC4752"/>
<path d="M300.94 270.994C301.213 271.142 301.325 271.29 301.609 271.468C301.371 273.284 301.043 275.043 300.632 276.783C300.419 277.684 300.31 278.991 299.71 279.334C298.745 279.884 297.209 280.233 296.302 279.817C295.625 279.507 294.947 277.397 295.33 276.883C296.911 274.767 298.897 272.954 300.94 270.994Z" fill="#FC4752"/>
<path d="M302.592 234.07C297.202 237.18 292.704 240.899 290.08 246.748C288.63 242.551 300.458 231.979 306.941 231.581C305.344 232.504 304.07 233.241 302.592 234.07Z" fill="#FC4752"/>
<path d="M352.751 223.658C349.584 227.515 346.267 231.261 343.306 235.271C341.58 237.607 340.426 240.365 339.012 242.932C338.287 239.506 342.909 232.56 352.249 223.418C352.592 223.494 352.671 223.576 352.751 223.658Z" fill="#FC4752"/>
<path d="M361.347 215.039C361.347 215.039 361.547 215.033 361.75 215.199C362.3 215.461 362.646 215.557 362.993 215.653C362.993 215.653 363.114 215.728 363.098 215.797C362.359 216.94 361.599 217.99 360.922 219.091C358.604 222.856 356.316 226.639 354.196 230.12C353.621 229.101 353.621 229.101 357.405 220.219C357.141 220.047 357.156 219.944 357.329 220.208C357.923 220.094 358.344 219.717 358.745 219.333C358.726 219.325 358.739 219.366 358.987 219.3C359.471 218.539 359.707 217.843 359.972 216.962C359.967 216.401 359.934 216.026 359.901 215.651C359.901 215.651 359.912 215.657 360.057 215.605C360.308 215.385 360.415 215.215 360.521 215.046C360.521 215.046 360.528 215.07 360.729 215.07C361.069 215.06 361.208 215.05 361.347 215.039Z" fill="#FC4752"/>
<path d="M328.094 2.58399C326.772 4.69239 325.397 6.58954 324.023 8.48669C323.841 8.3268 323.659 8.1669 323.477 8.00701C323.688 6.28097 323.9 4.55494 324.173 2.32922C324.704 1.90719 325.719 1.10219 327.108 0C327.469 0.916008 327.756 1.64437 328.094 2.58399Z" fill="#FC4752"/>
<path d="M256.429 79.0088C258.354 74.1953 260.279 69.3817 262.203 64.5681C262.731 69.8872 259.432 74.0573 257.247 78.8493C256.749 79.0188 256.589 79.0138 256.429 79.0088Z" fill="#FC4752"/>
<path d="M368.999 233.128C367.509 231.533 366.319 229.901 368.583 227.819C370.28 230.602 371.75 233.438 373.314 236.457C372.513 236.134 371.419 235.694 370.212 235.5C370.099 235.747 370.133 235.694 370.417 235.617C370.134 234.736 369.566 233.932 368.999 233.128Z" fill="#FC4752"/>
<path d="M357.156 219.944C357.156 219.944 357.141 220.047 357.162 220.026C355.833 221.167 354.482 222.329 352.941 223.574C352.671 223.576 352.592 223.494 352.4 223.281C352.732 222.524 353.176 221.897 353.419 221.134C353.218 220.997 353.271 221.04 353.42 221.281C353.877 221.13 354.187 220.738 354.496 220.345C356.154 218.786 357.812 217.226 359.686 215.659C359.934 216.026 359.968 216.401 359.807 217.138C359.322 218.122 359.031 218.744 358.739 219.366C358.739 219.366 358.726 219.325 358.555 219.148C357.974 219.295 357.565 219.62 357.156 219.944Z" fill="#FC4752"/>
<path d="M256.319 79.1666C256.589 79.0138 256.749 79.0188 257.149 79.0405C255.641 82.7631 253.894 86.4691 251.902 90.3764C251.536 90.3829 251.415 90.1881 251.294 89.9933C252.932 86.437 254.57 82.8807 256.319 79.1666Z" fill="#FC4752"/>
<path d="M368.481 223.418C368.021 223.348 367.268 223.099 367.282 222.901C367.511 219.444 367.674 215.944 370.426 213.183C370.006 216.129 369.378 219.074 368.515 222.268C368.228 222.563 368.177 222.611 368.126 222.658C368.219 222.758 368.313 222.858 368.406 222.958C368.453 223.06 368.5 223.161 368.481 223.418Z" fill="#FC4752"/>
<path d="M318.068 221.785C319.912 221.906 321.757 222.027 323.657 222.39C319.078 222.736 314.443 222.842 309.807 222.944C309.71 222.947 309.611 222.913 309.513 222.897C309.611 222.718 309.71 222.54 310.288 222.338C313.202 222.138 315.635 221.961 318.068 221.785Z" fill="#FC4752"/>
<path d="M314.404 75.5122C313.916 75.4164 313.641 75.3238 313.546 75.0382C316.578 73.7933 319.428 72.7416 322.278 71.6898C322.295 71.8525 322.311 72.0152 322.353 72.422C319.79 73.6159 317.203 74.5656 314.404 75.5122Z" fill="#FC4752"/>
<path d="M365.098 213.884C364.552 213.33 364.204 212.769 363.856 212.208C364.505 212.313 365.154 212.417 365.984 212.636C365.875 213.127 365.586 213.502 365.098 213.884Z" fill="#FC4752"/>
<path d="M247.185 96.0741C247.719 95.3956 248.253 94.7171 249.303 93.3844C249.302 96.8246 249.302 96.8246 247.454 96.0564C247.184 96.0704 247.185 96.0741 247.185 96.0741Z" fill="#FC4752"/>
<path d="M367.256 89.4461C367.742 88.683 368.341 88.0385 368.941 87.394C369.118 87.5495 369.295 87.7049 369.472 87.8604C368.964 88.4438 368.455 89.0272 367.777 89.7022C367.528 89.7175 367.449 89.6411 367.256 89.4461Z" fill="#FC4752"/>
<path d="M363.666 215.318C363.784 215.091 364.05 214.772 364.492 214.446C364.384 214.702 364.099 214.964 363.666 215.318Z" fill="#FC4752"/>
<path d="M249.588 93.7182C249.617 93.3373 249.952 93.0107 250.461 92.6588C250.699 92.9189 250.762 93.2042 250.993 93.6355C251.162 93.7814 251.103 93.8112 251.102 93.8452C250.699 93.8436 250.297 93.808 249.588 93.7182Z" fill="#FC4752"/>
<path d="M285.992 226.194C286.06 226.262 286.026 226.332 285.992 226.402C285.958 226.333 285.923 226.265 285.992 226.194Z" fill="#FC4752"/>
<path d="M267.05 73.3351C267.181 73.3755 267.26 73.3644 267.338 73.3533C267.224 73.3301 267.11 73.3069 267.05 73.3351Z" fill="#FC4752"/>
<path d="M368.437 222.809C368.313 222.858 368.219 222.758 368.126 222.658C368.177 222.611 368.228 222.563 368.351 222.437C368.437 222.458 368.452 222.559 368.437 222.809Z" fill="#FC4752"/>
<path d="M248.902 97.8711C248.799 98.038 248.561 98.1492 248.401 98.0511C248.478 97.8419 248.768 97.8153 248.902 97.8711Z" fill="#FC4752"/>
<path d="M247.182 96.068C247.181 96.0655 247.208 96.1403 247.196 96.1072C247.185 96.0741 247.184 96.0704 247.182 96.068Z" fill="#FC4752"/>
<path d="M246.59 126.041C249.342 125.534 250.139 123.673 250.795 121.305C252.791 114.102 256.346 107.646 260.944 101.083C257.588 108.909 254.467 116.188 251.232 123.74C251.312 124.102 251.507 124.192 251.702 124.282C252.093 124.212 252.484 124.142 253.094 124.243C253.314 124.413 253.266 124.696 253.266 124.696C249.074 126.002 249.848 129.634 249.381 132.945C249.128 133.151 249.001 133.156 248.616 132.979C247.774 132.108 247.191 131.421 246.609 130.733C246.597 129.261 246.586 127.789 246.59 126.041Z" fill="#FC4752"/>
<path d="M286.938 185.978C290.409 180.808 295.488 178.735 301.663 179.25C303.326 179.389 304.537 180.197 303.975 182.582C301.136 179.558 297.464 179.49 292.762 182.103C293.535 182.435 294.218 182.729 294.383 182.8C292.455 183.75 290.371 184.778 288.09 185.878C287.639 185.963 287.384 185.977 286.938 185.978Z" fill="#FC4752"/>
<path d="M270.227 169.152C271.571 167.666 273.55 166.592 274.099 165.018C274.744 163.172 274.146 160.89 274.069 158.194C274.838 159.454 275.979 160.546 276.168 161.784C276.709 165.323 274.616 168.237 270.425 170.114C270.216 169.849 270.223 169.596 270.227 169.152Z" fill="#FC4752"/>
<path d="M293.816 169.246C295.627 170.369 297.763 171.458 299.11 173.17C300.779 175.292 299.547 177.629 297.095 178.018C297.378 176.656 298.297 174.96 297.81 173.933C297.103 172.443 295.381 171.437 293.95 170.099C293.803 169.811 293.797 169.649 293.816 169.246Z" fill="#FC4752"/>
<path d="M262.831 89.491C263.604 89.3806 264.201 89.3806 265.617 89.3806C262.754 92.1099 260.367 94.3846 257.783 96.7324C258.524 95.141 259.38 93.4221 260.431 91.8334C261 90.9747 261.903 90.3381 262.831 89.491Z" fill="#FC4752"/>
<path d="M246.503 130.958C247.191 131.421 247.774 132.108 248.426 132.968C248.495 135.092 248.496 137.044 248.496 139.114C245.28 136.927 245.554 134.121 246.503 130.958Z" fill="#FC4752"/>
<path d="M327.755 139.748C326.174 140.864 324.477 141.903 322.593 142.97C321.912 142.459 321.418 141.921 320.768 141.21C321.036 140.405 321.459 139.773 321.933 139.065C323.494 142.85 325.203 139.818 327.03 139.352C327.331 139.463 327.464 139.589 327.755 139.748Z" fill="#FC4752"/>
<path d="M314.297 165.358C314.219 166.297 314.01 167.116 313.506 168.155C313.056 168.363 312.901 168.353 312.746 168.343C312.71 167.485 312.673 166.628 312.693 165.518C313.221 165.256 313.694 165.247 314.297 165.358Z" fill="#FC4752"/>
<path d="M368.829 233.234C369.566 233.932 370.134 234.736 370.439 235.639C369.671 234.939 369.166 234.139 368.829 233.234Z" fill="#FC4752"/>
<path d="M281.198 212.343C280.333 212.356 279.496 212.131 278.85 211.64C279.769 211.618 280.497 211.861 281.198 212.343Z" fill="#FC4752"/>
<path d="M297.479 218.389C297.181 218.503 296.751 218.492 296.302 218.293C296.638 218.157 296.993 218.211 297.479 218.389Z" fill="#FC4752"/>
<path d="M356.714 184.07C356.708 184.528 356.508 184.969 356.082 185.441C355.777 185.383 355.698 185.291 355.653 185.023C355.964 184.581 356.242 184.316 356.714 184.07Z" fill="#FC4752"/>
<path d="M362.982 215.489C362.646 215.557 362.3 215.461 361.849 215.215C362.153 215.152 362.562 215.238 362.982 215.489Z" fill="#FC4752"/>
<path d="M311.611 190.282C311.721 189.888 312.042 189.56 312.509 189.104C312.666 189.25 312.678 189.525 312.664 190.004C312.366 190.255 312.093 190.301 311.611 190.282Z" fill="#FC4752"/>
<path d="M282.125 212.581C282.177 212.864 282.028 213.02 281.737 213.259C281.369 213.199 281.142 213.057 281.046 212.75C281.427 212.541 281.676 212.498 282.125 212.581Z" fill="#FC4752"/>
<path d="M354.299 220.409C354.187 220.738 353.877 221.13 353.392 221.302C353.512 220.879 353.807 220.676 354.299 220.409Z" fill="#FC4752"/>
<path d="M381.776 170.744C381.994 170.483 382.366 170.351 382.738 170.22C382.672 170.443 382.607 170.665 382.398 171C382.147 171.034 382.038 170.954 381.776 170.744Z" fill="#FC4752"/>
<path d="M330.284 73.5464C330.074 73.492 329.959 73.3361 329.844 73.1802C329.987 73.1421 330.13 73.104 330.407 73.1432C330.542 73.2205 330.378 73.4449 330.284 73.5464Z" fill="#FC4752"/>
<path d="M248.225 99.5236C248.056 99.5188 248.017 99.384 247.979 99.2491C248.105 99.2972 248.23 99.3453 248.225 99.5236Z" fill="#FC4752"/>
<path d="M255.075 159.048C254.934 159.097 254.805 158.978 254.675 158.859C254.812 158.866 254.949 158.873 255.075 159.048Z" fill="#FC4752"/>
<path d="M360.364 215.085C360.414 215.215 360.308 215.385 360.056 215.607C360.009 215.481 360.109 215.302 360.364 215.085Z" fill="#FC4752"/>
<path d="M364.78 178.856C364.798 179.095 364.638 179.232 364.319 179.316C364.083 179.15 364.004 179.037 364.068 178.774C364.341 178.668 364.471 178.711 364.78 178.856Z" fill="#FC4752"/>
<path d="M272.924 110.364C272.904 110.445 272.858 110.535 272.813 110.626C272.858 110.607 272.904 110.587 272.937 110.447C272.925 110.326 272.898 110.375 272.924 110.364Z" fill="#FC4752"/>
<path d="M247.348 184.584C247.407 184.717 247.298 185.012 247.035 185.204C246.981 184.983 247.081 184.864 247.348 184.584Z" fill="#FC4752"/>
<path d="M361.253 214.916C361.208 215.05 361.069 215.06 360.722 215.058C360.729 214.961 360.944 214.877 361.253 214.916Z" fill="#FC4752"/>
<path d="M308.599 185.959C308.195 186.927 307.792 187.896 307.389 188.865C308.591 189.243 309.793 189.622 311.235 190.075C310.951 191.156 310.661 192.68 309.849 193.047C308.584 193.62 306.706 193.917 305.59 193.346C304.879 192.983 304.693 190.751 304.974 189.518C305.263 188.252 306.407 187.181 307.621 185.966C308.243 185.924 308.421 185.941 308.599 185.959Z" fill="#FC4752"/>
<path d="M312.739 168.606C312.901 168.353 313.056 168.363 313.445 168.376C313.362 168.542 313.047 168.705 312.739 168.606Z" fill="#FC4752"/>
<path d="M303.672 174.235C303.818 174.393 303.993 174.559 304.167 174.724C304.056 174.664 303.944 174.604 303.746 174.378C303.66 174.211 303.7 174.243 303.672 174.235Z" fill="#FC4752"/>
<path d="M308.68 185.754C308.421 185.941 308.243 185.924 307.798 185.88C307.69 185.641 307.85 185.428 308.207 185.252C308.524 185.376 308.643 185.462 308.68 185.754Z" fill="#FC4752"/>
<path d="M253.508 124.721C253.266 124.696 253.314 124.413 253.293 124.272C253.734 124.022 254.197 123.914 254.883 123.889C254.653 124.229 254.201 124.488 253.508 124.721Z" fill="#FC4752"/>
<path d="M257.309 144.459C257.52 144.396 257.731 144.333 257.942 144.269C257.966 144.436 257.99 144.602 257.788 144.754C257.478 144.646 257.393 144.552 257.309 144.459Z" fill="#FC4752"/>
<path d="M256.683 145.049C256.789 144.875 256.896 144.702 257.156 144.493C257.393 144.552 257.478 144.646 257.68 144.886C257.704 145.2 257.582 145.344 257.185 145.392C256.853 145.23 256.768 145.139 256.683 145.049Z" fill="#FC4752"/>
<path d="M256.245 145.81C256.198 145.508 256.295 145.332 256.537 145.102C256.768 145.139 256.853 145.23 257.06 145.46C257.124 145.763 257.03 145.902 256.797 146.09C256.592 146.088 256.491 146.011 256.245 145.81Z" fill="#FC4752"/>
<path d="M275.087 82.2366C278.042 81.0194 280.997 79.8022 283.952 78.585C284.095 78.9397 284.238 79.2945 284.382 79.6492C281.449 80.7396 278.517 81.8299 275.356 82.7853C275.114 82.5124 275.101 82.3745 275.087 82.2366Z" fill="#FC4752"/>
<path d="M274.891 82.2949C275.101 82.3745 275.114 82.5124 275.131 82.8581C273.663 83.9599 272.192 84.8539 270.419 85.6861C270.047 85.5453 269.978 85.4663 269.909 85.3873C271.504 84.376 273.1 83.3646 274.891 82.2949Z" fill="#FC4752"/>
<path d="M268.102 86.6847C268.592 86.3052 269.082 85.9258 269.741 85.4668C269.978 85.4663 270.047 85.5453 270.219 85.7431C269.842 86.2452 269.362 86.6285 268.595 86.9463C268.309 86.8808 268.102 86.6847 268.102 86.6847Z" fill="#FC4752"/>
<path d="M265.642 88.4905C266.076 88.1565 266.509 87.8224 266.942 87.4884C267.046 87.5735 267.151 87.6586 267.255 87.7437C267.001 88.0958 266.746 88.448 266.18 88.746C265.867 88.6919 265.642 88.4905 265.642 88.4905Z" fill="#FC4752"/>
<path d="M276.97 99.0845C277.266 99.3276 277.31 99.5595 277.354 99.7914C277.12 99.7518 276.855 99.763 276.668 99.6473C276.594 99.6017 276.695 99.2731 276.97 99.0845Z" fill="#FC4752"/>
<path d="M268.41 86.9809C268.321 87.2322 268.13 87.3834 267.94 87.5345C267.89 87.3301 267.84 87.1257 267.947 86.803C268.102 86.6846 268.309 86.8808 268.41 86.9809Z" fill="#FC4752"/>
<path d="M272.543 110.148C272.355 110.011 272.208 109.829 272.06 109.647C272.254 109.637 272.449 109.627 272.654 109.816C272.665 110.016 272.583 110.103 272.543 110.148Z" fill="#FC4752"/>
<path d="M265.976 88.7965C265.89 89.074 265.694 89.247 265.499 89.4199C265.437 89.1965 265.376 88.9732 265.478 88.6201C265.642 88.4905 265.867 88.6919 265.976 88.7965Z" fill="#FC4752"/>
<path d="M358.509 182.838C358.222 183.423 357.738 183.948 357.066 184.293C357.356 183.667 357.834 183.222 358.509 182.838Z" fill="#FC4752"/>
<path d="M363.972 179.131C363.716 179.675 363.236 180.114 362.553 180.506C362.816 179.981 363.282 179.504 363.972 179.131Z" fill="#FC4752"/>
<path d="M360.908 181.037C360.887 181.489 360.638 181.91 360.159 182.303C360.18 181.852 360.431 181.428 360.908 181.037Z" fill="#FC4752"/>
<path d="M359.761 182.097C359.634 182.598 359.347 182.915 358.894 183.057C359.019 182.559 359.31 182.235 359.761 182.097Z" fill="#FC4752"/>
<path d="M362.193 180.275C362.056 180.783 361.759 181.109 361.301 181.25C361.439 180.74 361.736 180.417 362.193 180.275Z" fill="#FC4752"/>
<path d="M251.619 124.196C251.507 124.192 251.312 124.102 251.24 123.977C251.362 123.942 251.535 124.109 251.619 124.196Z" fill="#FC4752"/>
<path d="M410.301 163.86C409.725 163.86 409.245 163.764 408.861 163.572C408.477 163.428 408.285 163.164 408.285 162.78C408.285 162.348 408.453 162.012 408.789 161.772C409.173 161.532 409.653 161.316 410.229 161.124C411.621 160.74 412.821 160.164 413.829 159.396C414.885 158.58 415.725 157.476 416.349 156.084C417.549 153.252 418.701 150.54 419.805 147.948C420.909 145.308 421.965 142.692 422.973 140.1C423.981 137.508 424.989 134.868 425.997 132.18C427.053 129.492 428.109 126.66 429.165 123.684C429.693 122.196 430.053 121.044 430.245 120.228C430.437 119.412 430.605 118.812 430.749 118.428C431.469 118.236 432.141 118.044 432.765 117.852C433.389 117.66 434.085 117.42 434.853 117.132C435.525 116.796 436.101 116.364 436.581 115.836C437.061 115.308 437.421 114.9 437.661 114.612C437.805 114.516 437.949 114.468 438.093 114.468C438.237 114.42 438.381 114.516 438.525 114.756C438.669 115.044 438.789 115.332 438.885 115.62C438.981 115.908 439.077 116.22 439.173 116.556C440.229 119.964 441.309 123.42 442.413 126.924C443.565 130.38 444.693 133.812 445.797 137.22C446.901 140.58 447.957 143.82 448.965 146.94C450.021 150.012 450.981 152.844 451.845 155.436C452.277 156.732 452.805 157.764 453.429 158.532C454.101 159.3 454.821 159.9 455.589 160.332C456.405 160.716 457.293 161.028 458.253 161.268C458.877 161.412 459.357 161.604 459.693 161.844C460.029 162.084 460.197 162.42 460.197 162.852C460.197 163.14 460.029 163.356 459.693 163.5C459.405 163.644 459.021 163.716 458.541 163.716C457.677 163.716 456.573 163.692 455.229 163.644C453.933 163.596 452.589 163.548 451.197 163.5C449.805 163.404 448.557 163.356 447.453 163.356C446.493 163.356 445.413 163.38 444.213 163.428C443.061 163.476 441.885 163.524 440.685 163.572C439.533 163.62 438.549 163.644 437.733 163.644C437.253 163.644 436.821 163.572 436.437 163.428C436.101 163.236 435.933 162.972 435.933 162.636C435.933 162.252 436.125 161.94 436.509 161.7C436.893 161.412 437.349 161.22 437.877 161.124C439.605 160.836 440.853 160.404 441.621 159.828C442.389 159.204 442.677 158.316 442.485 157.164C442.341 156.348 442.125 155.388 441.837 154.284C441.549 153.132 441.237 151.956 440.901 150.756C440.613 149.508 440.301 148.38 439.965 147.372C439.869 146.988 439.725 146.724 439.533 146.58C439.341 146.388 438.981 146.292 438.453 146.292H425.493C425.157 146.292 424.893 146.412 424.701 146.652C424.509 146.844 424.365 147.156 424.269 147.588C424.077 148.212 423.837 148.932 423.549 149.748C423.309 150.516 423.045 151.332 422.757 152.196C422.517 153.012 422.277 153.78 422.037 154.5C421.845 155.22 421.701 155.844 421.605 156.372C421.365 157.668 421.581 158.7 422.253 159.468C422.973 160.188 424.197 160.764 425.925 161.196C427.221 161.532 427.869 162.036 427.869 162.708C427.869 162.996 427.701 163.236 427.365 163.428C427.077 163.572 426.645 163.644 426.069 163.644C424.965 163.644 423.813 163.596 422.613 163.5C421.413 163.452 420.093 163.428 418.653 163.428C417.213 163.428 415.797 163.5 414.405 163.644C413.061 163.788 411.693 163.86 410.301 163.86ZM427.437 142.98H437.445C438.117 142.98 438.453 142.836 438.453 142.548C438.453 142.404 438.429 142.284 438.381 142.188C438.381 142.092 438.357 141.948 438.309 141.756L433.269 125.124C433.077 124.452 432.909 124.116 432.765 124.116C432.669 124.116 432.501 124.428 432.261 125.052L426.213 141.756C426.117 141.996 426.069 142.188 426.069 142.332C426.069 142.572 426.189 142.74 426.429 142.836C426.717 142.932 427.053 142.98 427.437 142.98Z" fill="#FC4752"/>
<path d="M462.928 163.716C462.544 163.716 462.208 163.644 461.92 163.5C461.632 163.308 461.488 163.068 461.488 162.78C461.488 162.396 461.632 162.108 461.92 161.916C462.256 161.724 462.664 161.556 463.144 161.412C464.152 161.124 464.848 160.788 465.232 160.404C465.664 159.972 465.88 159.396 465.88 158.676V142.476C465.88 141.372 465.712 140.46 465.376 139.74C465.088 138.972 464.44 138.468 463.432 138.228C463.24 138.132 463.048 138.012 462.856 137.868C462.664 137.676 462.568 137.412 462.568 137.076C462.568 136.452 462.832 136.068 463.36 135.924C464.8 135.54 466.36 135.036 468.04 134.412C469.72 133.74 471.136 133.092 472.288 132.468C472.528 132.324 472.792 132.18 473.08 132.036C473.368 131.892 473.584 131.82 473.728 131.82C474.112 131.82 474.304 132.06 474.304 132.54C474.304 132.732 474.28 133.164 474.232 133.836C474.232 134.508 474.208 135.252 474.16 136.068C474.16 136.836 474.136 137.532 474.088 138.156C474.088 138.444 474.16 138.588 474.304 138.588C475.072 137.58 475.936 136.644 476.896 135.78C477.856 134.916 478.864 134.196 479.92 133.62C481.024 133.044 482.128 132.756 483.232 132.756C484.624 132.756 485.656 133.044 486.328 133.62C487.048 134.196 487.408 134.916 487.408 135.78C487.408 136.452 487.216 137.172 486.832 137.94C486.496 138.708 486.04 139.38 485.464 139.956C484.936 140.484 484.336 140.748 483.664 140.748C483.28 140.748 482.872 140.676 482.44 140.532C482.008 140.34 481.576 140.124 481.144 139.884C480.712 139.692 480.256 139.5 479.776 139.308C479.344 139.116 478.936 139.02 478.552 139.02C477.352 139.02 476.272 139.476 475.312 140.388C474.352 141.252 473.872 142.98 473.872 145.572V158.244C473.872 159.108 474.184 159.78 474.808 160.26C475.432 160.692 476.392 161.1 477.688 161.484C478.216 161.628 478.6 161.796 478.84 161.988C479.128 162.132 479.272 162.396 479.272 162.78C479.272 163.404 478.84 163.716 477.976 163.716C476.536 163.716 475.168 163.644 473.872 163.5C472.624 163.404 471.376 163.356 470.128 163.356C469.312 163.356 468.52 163.38 467.752 163.428C467.032 163.476 466.288 163.524 465.52 163.572C464.752 163.668 463.888 163.716 462.928 163.716Z" fill="#FC4752"/>
<path d="M502.722 164.508C499.842 164.508 497.658 163.74 496.17 162.204C494.682 160.668 493.938 158.436 493.938 155.508V138.876C493.938 138.492 493.77 138.204 493.434 138.012C493.146 137.82 492.546 137.7 491.634 137.652H490.842C490.554 137.652 490.314 137.436 490.122 137.004C489.93 136.524 489.834 136.068 489.834 135.636C489.834 135.54 489.858 135.42 489.906 135.276C490.002 135.084 490.122 134.964 490.266 134.916C491.37 134.436 492.498 133.788 493.65 132.972C494.802 132.108 495.882 131.244 496.89 130.38C497.898 129.468 498.738 128.7 499.41 128.076C499.746 127.836 500.01 127.62 500.202 127.428C500.442 127.236 500.706 127.14 500.994 127.14C501.378 127.14 501.666 127.236 501.858 127.428C502.098 127.572 502.17 127.884 502.074 128.364L501.642 132.324C501.594 132.9 501.714 133.284 502.002 133.476C502.338 133.668 502.794 133.764 503.37 133.764H511.866C512.01 133.764 512.154 133.932 512.298 134.268C512.442 134.604 512.514 134.94 512.514 135.276C512.514 135.9 512.418 136.476 512.226 137.004C512.082 137.532 511.89 137.796 511.65 137.796H504.81C503.706 137.796 502.938 137.916 502.506 138.156C502.122 138.396 501.93 138.9 501.93 139.668V153.492C501.93 155.604 502.338 157.212 503.154 158.316C503.97 159.372 505.122 159.9 506.61 159.9C507.954 159.9 508.962 159.78 509.634 159.54C510.354 159.3 511.002 159.012 511.578 158.676C511.722 158.58 511.842 158.532 511.938 158.532C512.178 158.532 512.346 158.676 512.442 158.964C512.586 159.252 512.659 159.564 512.659 159.9C512.659 160.14 512.178 160.644 511.218 161.412C510.306 162.18 509.082 162.876 507.546 163.5C506.058 164.172 504.45 164.508 502.722 164.508Z" fill="#FC4752"/>
<path d="M530.044 165.516C529.852 165.516 529.66 165.444 529.468 165.3C529.276 165.204 529.156 165.06 529.108 164.868L518.812 139.596C518.428 138.588 517.9 137.748 517.228 137.076C516.604 136.356 515.884 135.876 515.068 135.636C514.636 135.444 514.276 135.252 513.988 135.06C513.748 134.868 513.628 134.556 513.628 134.124C513.628 133.788 513.82 133.596 514.204 133.548C514.636 133.452 514.996 133.404 515.284 133.404C516.196 133.404 516.964 133.428 517.588 133.476C518.26 133.524 518.884 133.596 519.46 133.692C520.084 133.74 520.828 133.764 521.692 133.764C522.604 133.764 523.396 133.74 524.068 133.692C524.74 133.596 525.412 133.524 526.084 133.476C526.804 133.428 527.644 133.404 528.604 133.404C528.892 133.404 529.228 133.452 529.612 133.548C529.996 133.644 530.188 133.884 530.188 134.268C530.188 134.652 530.02 134.94 529.684 135.132C529.348 135.276 528.988 135.42 528.604 135.564C528.076 135.756 527.692 136.092 527.452 136.572C527.212 137.004 527.092 137.628 527.092 138.444C527.092 139.212 527.236 139.98 527.524 140.748L532.204 153.06C532.204 153.156 532.276 153.204 532.42 153.204C532.564 153.204 532.636 153.156 532.636 153.06L537.46 141.612C537.604 141.228 537.7 140.82 537.748 140.388C537.844 139.956 537.892 139.524 537.892 139.092C537.892 138.372 537.58 137.7 536.956 137.076C536.38 136.452 535.684 135.972 534.868 135.636C534.436 135.492 534.076 135.324 533.788 135.132C533.5 134.892 533.356 134.58 533.356 134.196C533.356 133.86 533.548 133.644 533.932 133.548C534.364 133.452 534.772 133.404 535.156 133.404C536.164 133.404 537.172 133.476 538.18 133.62C539.236 133.716 540.244 133.764 541.204 133.764C542.5 133.764 543.652 133.716 544.66 133.62C545.716 133.476 546.82 133.404 547.972 133.404C548.26 133.404 548.596 133.476 548.98 133.62C549.364 133.716 549.556 133.932 549.556 134.268C549.556 134.652 549.388 134.94 549.052 135.132C548.716 135.276 548.356 135.444 547.972 135.636C547.444 135.828 546.964 136.092 546.532 136.428C546.148 136.764 545.956 137.292 545.956 138.012C545.956 138.492 546.004 138.972 546.1 139.452C546.244 139.932 546.388 140.364 546.532 140.748L551.212 152.844C551.308 153.132 551.404 153.276 551.5 153.276C551.644 153.276 551.764 153.156 551.86 152.916L556.324 141.756C556.516 141.324 556.66 140.844 556.756 140.316C556.852 139.74 556.876 139.26 556.828 138.876C556.828 138.06 556.612 137.388 556.18 136.86C555.748 136.284 555.22 135.9 554.596 135.708C554.212 135.564 553.852 135.396 553.516 135.204C553.18 135.012 553.012 134.724 553.012 134.34C553.012 134.004 553.204 133.788 553.588 133.692C553.972 133.548 554.308 133.476 554.596 133.476C555.844 133.524 556.78 133.596 557.404 133.692C558.028 133.74 558.796 133.764 559.708 133.764C560.332 133.764 560.812 133.74 561.148 133.692C561.532 133.644 561.94 133.62 562.372 133.62C562.852 133.572 563.452 133.524 564.172 133.476C564.508 133.476 564.868 133.524 565.252 133.62C565.636 133.716 565.828 133.932 565.828 134.268C565.828 134.652 565.684 134.964 565.396 135.204C565.156 135.396 564.82 135.564 564.388 135.708C563.572 135.996 562.804 136.572 562.084 137.436C561.412 138.252 560.836 139.212 560.356 140.316L550.276 164.868C550.132 165.252 549.796 165.444 549.268 165.444C548.884 165.444 548.572 165.252 548.332 164.868L539.836 144.924C539.788 144.684 539.692 144.564 539.548 144.564C539.452 144.564 539.356 144.684 539.26 144.924L531.052 164.868C530.86 165.3 530.524 165.516 530.044 165.516Z" fill="#FC4752"/>
<path d="M581.448 164.508C578.616 164.508 576.072 163.884 573.816 162.636C571.56 161.34 569.76 159.564 568.416 157.308C567.072 155.052 566.4 152.508 566.4 149.676C566.4 147.468 566.832 145.356 567.696 143.34C568.56 141.324 569.736 139.524 571.224 137.94C572.712 136.356 574.464 135.108 576.48 134.196C578.496 133.236 580.656 132.756 582.96 132.756C585.888 132.756 588.504 133.452 590.808 134.844C593.16 136.188 595.032 137.988 596.424 140.244C597.816 142.5 598.512 144.972 598.512 147.66C598.512 150.636 597.864 153.42 596.568 156.012C595.32 158.556 593.424 160.62 590.88 162.204C588.384 163.74 585.24 164.508 581.448 164.508ZM582.888 161.7C584.088 161.7 585.144 161.46 586.056 160.98C587.016 160.5 587.784 159.756 588.36 158.748C588.936 157.74 589.32 156.42 589.512 154.788C589.752 153.108 589.872 151.308 589.872 149.388C589.872 146.844 589.536 144.54 588.864 142.476C588.192 140.412 587.256 138.756 586.056 137.508C584.856 136.26 583.44 135.636 581.808 135.636C580.896 135.636 580.056 135.804 579.288 136.14C578.568 136.428 577.896 136.932 577.272 137.652C576.408 138.66 575.808 140.052 575.472 141.828C575.184 143.556 575.04 145.572 575.04 147.876C575.04 150.18 575.376 152.388 576.048 154.5C576.768 156.612 577.704 158.34 578.856 159.684C580.056 161.028 581.4 161.7 582.888 161.7Z" fill="#FC4752"/>
<path d="M603.624 163.716C603.24 163.716 602.904 163.644 602.616 163.5C602.328 163.308 602.184 163.068 602.184 162.78C602.184 162.396 602.328 162.108 602.616 161.916C602.952 161.724 603.36 161.556 603.84 161.412C604.848 161.124 605.544 160.788 605.928 160.404C606.36 159.972 606.576 159.396 606.576 158.676V142.476C606.576 141.372 606.408 140.46 606.072 139.74C605.784 138.972 605.136 138.468 604.128 138.228C603.936 138.132 603.744 138.012 603.552 137.868C603.36 137.676 603.264 137.412 603.264 137.076C603.264 136.452 603.528 136.068 604.056 135.924C605.496 135.54 607.056 135.036 608.736 134.412C610.416 133.74 611.832 133.092 612.984 132.468C613.224 132.324 613.488 132.18 613.776 132.036C614.064 131.892 614.28 131.82 614.424 131.82C614.808 131.82 615 132.06 615 132.54C615 132.732 614.976 133.164 614.928 133.836C614.928 134.508 614.904 135.252 614.856 136.068C614.856 136.836 614.832 137.532 614.784 138.156C614.784 138.444 614.856 138.588 615 138.588C615.768 137.58 616.632 136.644 617.592 135.78C618.552 134.916 619.56 134.196 620.616 133.62C621.72 133.044 622.824 132.756 623.928 132.756C625.32 132.756 626.352 133.044 627.024 133.62C627.744 134.196 628.104 134.916 628.104 135.78C628.104 136.452 627.912 137.172 627.528 137.94C627.192 138.708 626.736 139.38 626.16 139.956C625.632 140.484 625.032 140.748 624.36 140.748C623.976 140.748 623.568 140.676 623.136 140.532C622.704 140.34 622.272 140.124 621.84 139.884C621.408 139.692 620.952 139.5 620.472 139.308C620.04 139.116 619.632 139.02 619.248 139.02C618.048 139.02 616.968 139.476 616.008 140.388C615.048 141.252 614.568 142.98 614.568 145.572V158.244C614.568 159.108 614.88 159.78 615.504 160.26C616.128 160.692 617.088 161.1 618.384 161.484C618.912 161.628 619.296 161.796 619.536 161.988C619.824 162.132 619.968 162.396 619.968 162.78C619.968 163.404 619.536 163.716 618.672 163.716C617.232 163.716 615.864 163.644 614.568 163.5C613.32 163.404 612.072 163.356 610.824 163.356C610.008 163.356 609.216 163.38 608.448 163.428C607.728 163.476 606.984 163.524 606.216 163.572C605.448 163.668 604.584 163.716 603.624 163.716Z" fill="#FC4752"/>
<path d="M631.106 163.716C630.098 163.716 629.594 163.404 629.594 162.78C629.594 162.396 629.738 162.132 630.026 161.988C630.362 161.796 630.77 161.604 631.25 161.412C631.97 161.172 632.618 160.908 633.194 160.62C633.818 160.284 634.13 159.612 634.13 158.604V123.54C634.13 122.052 633.914 120.876 633.482 120.012C633.098 119.148 632.306 118.596 631.106 118.356C630.626 118.26 630.386 117.9 630.386 117.276C630.386 116.7 630.602 116.364 631.034 116.268C632.282 116.028 633.53 115.692 634.778 115.26C636.026 114.828 637.202 114.396 638.306 113.964C639.41 113.532 640.322 113.196 641.042 112.956C641.426 112.812 641.714 112.74 641.906 112.74C642.146 112.74 642.314 112.812 642.41 112.956C642.506 113.1 642.554 113.292 642.554 113.532C642.554 113.964 642.482 114.732 642.338 115.836C642.194 116.892 642.098 118.284 642.05 120.012L642.122 145.86C642.122 146.388 642.29 146.652 642.626 146.652C642.818 146.652 643.058 146.58 643.346 146.436C643.682 146.292 643.994 146.076 644.282 145.788C646.106 144.204 647.69 142.668 649.034 141.18C650.426 139.692 651.362 138.612 651.842 137.94C652.082 137.652 652.25 137.412 652.346 137.22C652.442 137.028 652.49 136.86 652.49 136.716C652.49 136.476 652.298 136.26 651.914 136.068C651.53 135.828 651.002 135.66 650.33 135.564C649.754 135.42 649.466 135.132 649.466 134.7C649.466 134.364 649.634 134.124 649.97 133.98C650.306 133.836 650.666 133.764 651.05 133.764H654.578C655.394 133.764 656.402 133.716 657.602 133.62C658.85 133.524 660.026 133.428 661.13 133.332C662.282 133.188 663.146 133.092 663.722 133.044C664.298 133.044 664.586 133.308 664.586 133.836C664.586 134.172 664.418 134.46 664.082 134.7C663.794 134.94 663.386 135.132 662.858 135.276C661.994 135.468 661.058 135.804 660.05 136.284C659.09 136.716 658.106 137.22 657.098 137.796C656.474 138.132 655.682 138.66 654.722 139.38C653.762 140.1 652.754 140.892 651.698 141.756C650.69 142.572 649.754 143.388 648.89 144.204C648.65 144.444 648.53 144.684 648.53 144.924C648.53 145.068 648.554 145.188 648.602 145.284C648.698 145.38 648.794 145.5 648.89 145.644C650.09 147.132 651.266 148.62 652.418 150.108C653.618 151.596 654.77 152.988 655.874 154.284C656.978 155.58 657.962 156.732 658.826 157.74C659.642 158.556 660.602 159.324 661.706 160.044C662.858 160.716 663.794 161.172 664.514 161.412C664.994 161.604 665.45 161.796 665.882 161.988C666.362 162.132 666.602 162.396 666.602 162.78C666.602 163.404 666.098 163.716 665.09 163.716C662.498 163.716 659.882 163.668 657.242 163.572C654.65 163.524 652.154 163.5 649.754 163.5C648.842 163.5 648.386 163.212 648.386 162.636C648.386 162.3 648.506 162.036 648.746 161.844C649.034 161.604 649.394 161.412 649.826 161.268C650.258 161.124 650.594 160.956 650.834 160.764C651.074 160.524 651.218 160.26 651.266 159.972C651.266 159.78 651.194 159.588 651.05 159.396C650.906 159.156 650.714 158.868 650.474 158.532L642.986 148.884C642.794 148.644 642.626 148.524 642.482 148.524C642.242 148.572 642.122 148.764 642.122 149.1C642.074 149.772 642.05 150.492 642.05 151.26C642.05 152.028 642.05 152.796 642.05 153.564C642.05 154.38 642.05 155.22 642.05 156.084C642.05 156.948 642.074 157.788 642.122 158.604C642.122 159.468 642.314 160.092 642.698 160.476C643.082 160.86 643.634 161.172 644.354 161.412C644.738 161.556 645.098 161.724 645.434 161.916C645.77 162.06 645.938 162.324 645.938 162.708C645.938 163.044 645.77 163.308 645.434 163.5C645.098 163.644 644.786 163.716 644.498 163.716C643.586 163.716 642.794 163.668 642.122 163.572C641.45 163.524 640.802 163.476 640.178 163.428C639.554 163.38 638.81 163.356 637.946 163.356C637.13 163.356 636.386 163.38 635.714 163.428C635.042 163.476 634.346 163.524 633.626 163.572C632.906 163.668 632.066 163.716 631.106 163.716Z" fill="#FC4752"/>
<path d="M677.293 164.508C675.757 164.508 674.269 164.292 672.829 163.86C671.437 163.476 670.165 162.876 669.013 162.06C668.677 161.388 668.413 160.332 668.221 158.892C668.077 157.452 668.005 156.036 668.005 154.644C668.005 154.068 668.413 153.78 669.229 153.78C669.565 153.78 669.853 153.876 670.093 154.068C670.333 154.26 670.501 154.476 670.597 154.716C671.413 156.828 672.445 158.532 673.693 159.828C674.941 161.076 676.357 161.7 677.941 161.7C679.285 161.7 680.341 161.292 681.109 160.476C681.877 159.612 682.261 158.628 682.261 157.524C682.261 156.228 681.781 155.148 680.821 154.284C679.909 153.42 678.637 152.532 677.005 151.62C675.517 150.804 674.173 149.94 672.973 149.028C671.821 148.116 670.909 147.084 670.237 145.932C669.565 144.732 669.229 143.34 669.229 141.756C669.229 139.98 669.685 138.42 670.597 137.076C671.509 135.732 672.781 134.676 674.413 133.908C676.093 133.14 678.013 132.756 680.173 132.756C681.709 132.756 683.077 132.924 684.277 133.26C685.525 133.596 686.389 133.932 686.869 134.268C687.253 134.748 687.565 135.636 687.805 136.932C688.045 138.18 688.165 139.5 688.165 140.892C688.165 141.324 687.805 141.54 687.085 141.54C686.749 141.54 686.413 141.444 686.077 141.252C685.741 141.06 685.525 140.868 685.429 140.676C684.805 138.9 684.013 137.556 683.053 136.644C682.093 135.732 680.989 135.276 679.741 135.276C678.637 135.276 677.629 135.636 676.717 136.356C675.853 137.028 675.421 137.988 675.421 139.236C675.421 140.244 675.829 141.156 676.645 141.972C677.509 142.788 678.733 143.628 680.317 144.492C683.341 146.124 685.525 147.684 686.869 149.172C688.213 150.612 688.885 152.556 688.885 155.004C688.885 157.932 687.877 160.26 685.861 161.988C683.845 163.668 680.989 164.508 677.293 164.508Z" fill="#FC4752"/>
</svg>
