<svg width="41" height="63" viewBox="0 0 41 63" fill="none" xmlns="http://www.w3.org/2000/svg">
<path d="M13.9261 62.7853C13.7957 62.7853 13.6654 62.7853 13.5286 62.7744C13.4778 62.7187 13.4352 62.6718 13.3885 62.6295C13.2436 62.498 13.1189 62.3644 13.1544 62.1399C13.2026 61.8348 13.3161 61.5551 13.5473 61.3583C13.949 61.0162 14.3741 60.7013 14.7929 60.3797C14.8862 60.308 14.9657 60.2429 14.9339 60.1089C14.823 59.6411 14.9408 59.184 15.0282 58.7324C15.0856 58.4362 15.2151 58.1529 15.3227 57.8677C15.4306 57.5817 15.5322 57.2908 15.6711 57.0198C15.8568 56.6575 16.0732 56.3109 16.2816 55.9606C16.3906 55.7774 16.5019 55.5943 16.6275 55.4224C16.8507 55.1168 17.0813 54.8163 17.3169 54.5201C17.5451 54.2334 17.7733 53.9454 18.02 53.6749C18.4044 53.2537 18.7972 52.8395 19.2004 52.4363C19.4713 52.1656 19.7564 51.9068 20.0534 51.6651C20.3756 51.4029 20.7119 51.1564 21.0553 50.9223C21.3455 50.7244 21.6546 50.5541 21.9686 50.3694C22.0948 50.2847 22.2077 50.2023 22.3315 50.1159C22.3516 50.0997 22.3608 50.0874 22.37 50.0752C22.3463 50.0813 22.3227 50.0874 22.2848 50.095C22.1658 50.1562 22.061 50.2157 21.9411 50.277C21.8864 50.2856 21.8467 50.2924 21.7924 50.2965C21.6806 50.3435 21.5835 50.3932 21.4864 50.4444C21.4864 50.4461 21.4832 50.4453 21.4722 50.4446C21.4428 50.4646 21.4244 50.4852 21.3941 50.5086C21.3658 50.5113 21.3495 50.5113 21.3257 50.5031C21.2824 50.5121 21.2464 50.5294 21.2042 50.5601C20.9398 50.6803 20.6833 50.7908 20.4234 50.8929C19.9696 51.0713 19.542 51.2896 19.1716 51.6161C19.0563 51.7176 18.9421 51.9388 18.7134 51.7164C18.7755 51.6495 18.8271 51.5593 18.9049 51.5161C19.3808 51.2516 19.8595 50.9916 20.3439 50.7432C20.5626 50.6311 20.7967 50.5491 21.0324 50.4574C21.0698 50.4487 21.0987 50.4361 21.1416 50.425C21.2147 50.3991 21.2737 50.3716 21.3432 50.3456C21.3745 50.33 21.3954 50.313 21.4301 50.2922C21.5371 50.2518 21.6302 50.2151 21.7382 50.1768C21.9044 50.1028 22.0557 50.0303 22.207 49.9578C22.2044 49.9503 22.2018 49.9428 22.1992 49.9353C21.9833 50.0009 21.7673 50.0665 21.5375 50.1321C21.4084 50.1758 21.2932 50.2195 21.1706 50.2598C21.1389 50.2672 21.1146 50.278 21.0744 50.2858C20.8534 50.3329 20.6489 50.3861 20.4429 50.4322C20.1354 50.5011 19.8235 50.5525 19.5195 50.6338C19.076 50.7525 18.6375 50.8902 18.1975 51.0217C18.0259 51.073 17.8559 51.1295 17.6852 51.1837C17.465 51.2537 17.2417 51.3156 17.0254 51.3962C16.8258 51.4706 16.6354 51.569 16.4382 51.65C16.0977 51.7899 15.74 51.8962 15.417 52.0682C14.9813 52.3001 14.5617 52.5664 14.154 52.8454C13.8297 53.0673 13.5174 53.3131 13.2299 53.5807C12.98 53.8132 12.7874 54.107 12.5403 54.3431C12.3808 54.4955 12.2912 54.6591 12.2603 54.8684C12.254 54.9108 12.2281 54.9501 12.2132 54.9915C12.1644 55.1275 12.0752 55.196 11.8785 55.168C11.8975 55.0279 11.8709 54.8635 11.9404 54.7728C12.2771 54.3331 12.6133 53.8871 13.0012 53.4943C13.3344 53.1568 13.7254 52.8715 14.1134 52.5947C14.3816 52.4033 14.685 52.2598 14.9783 52.1056C15.3647 51.9025 15.7453 51.6818 16.149 51.5201C16.6284 51.328 17.1274 51.1827 17.6222 51.0314C18.215 50.85 18.8128 50.6848 19.4077 50.5103C19.5925 50.456 19.775 50.3942 19.9586 50.3358C19.9147 50.2921 19.8781 50.2793 19.8445 50.2849C19.5088 50.341 19.1753 50.4128 18.8379 50.4544C18.5293 50.4924 18.2169 50.5031 17.9058 50.517C17.7072 50.5259 17.5073 50.5093 17.309 50.5212C17.057 50.5363 16.8061 50.5882 16.5546 50.5891C16.1174 50.5906 15.6801 50.5589 15.2428 50.5531C14.8971 50.5485 14.5511 50.5666 14.2053 50.5661C13.6925 50.5655 13.1798 50.5574 12.667 50.5525C12.6476 50.5523 12.6283 50.551 12.6089 50.5512C12.2604 50.5549 11.9117 50.5535 11.5635 50.5662C11.4735 50.5695 11.3667 50.5947 11.3 50.6493C11.1591 50.7647 11.0738 50.6954 10.9769 50.6029C11.1454 50.3629 11.3411 50.2488 11.5848 50.2609C12.3027 50.2965 13.0206 50.247 13.7413 50.3367C14.2598 50.4013 14.7953 50.3187 15.3229 50.3246C15.7582 50.3295 16.193 50.3848 16.6282 50.3867C17.111 50.3889 17.5956 50.3752 18.0763 50.3332C18.7464 50.2746 19.4169 50.2046 20.0809 50.0992C20.6021 50.0165 21.114 49.8741 21.6292 49.7546C21.6915 49.7401 21.7486 49.7028 21.8068 49.6747C21.8055 49.6732 21.8036 49.6766 21.8199 49.6782C22.0809 49.6267 22.3256 49.5737 22.5703 49.5207C22.5681 49.5121 22.566 49.5034 22.5639 49.4948C22.4147 49.5037 22.2654 49.5127 22.1041 49.514C22.0817 49.4903 22.0713 49.4599 22.0615 49.4601C21.8842 49.4634 21.707 49.4704 21.5133 49.4772C21.4232 49.4903 21.3499 49.5041 21.2762 49.5153C21.098 49.5423 20.9196 49.5681 20.7267 49.5925C20.6462 49.5971 20.5802 49.6024 20.5144 49.6103C20.3484 49.6303 20.1826 49.6516 19.9987 49.6741C19.7766 49.6892 19.5718 49.7209 19.3685 49.7128C18.6525 49.6844 17.9368 49.6467 17.2215 49.6033C16.9544 49.5872 16.6872 49.5559 16.4229 49.5137C15.9951 49.4454 15.5687 49.3673 15.1436 49.284C14.767 49.2103 14.3876 49.1427 14.0193 49.0379C13.6538 48.9338 13.2995 48.7897 12.9423 48.6578C12.3755 48.4484 11.8093 48.2372 11.245 48.0213C11.0787 47.9577 10.9199 47.8744 10.7569 47.802C10.4667 47.6731 10.1718 47.5538 9.88637 47.4152C9.54153 47.2478 9.20558 47.0621 8.86364 46.8886C8.61206 46.7609 8.34339 46.6616 8.10634 46.5117C7.56809 46.1712 7.03818 45.8166 6.51729 45.4501C6.11915 45.17 5.7275 44.8777 5.35566 44.5639C4.90631 44.1847 4.48738 43.7696 4.04308 43.3842C3.68947 43.0774 3.301 42.8017 2.8404 42.7009C2.60953 42.6504 2.629 42.5601 2.6664 42.3579C2.90326 42.4438 3.12223 42.5232 3.3412 42.6026C3.35515 42.5775 3.36909 42.5525 3.38304 42.5275C3.19137 42.3839 3.00664 42.2297 2.80644 42.0991C2.49373 41.8953 2.21014 41.6282 1.7985 41.6201C1.7457 41.6191 1.67626 41.5191 1.65127 41.4514C1.63899 41.4182 1.70987 41.3119 1.7449 41.311C1.881 41.3076 2.0239 41.3135 2.15281 41.3532C2.31593 41.4034 2.46789 41.4899 2.62466 41.5607C2.63431 41.546 2.64395 41.5312 2.6536 41.5165C2.61937 41.4568 2.58559 41.3968 2.55084 41.3374C2.33348 40.966 2.09594 40.6047 1.90344 40.2208C1.65958 39.7345 1.42952 39.2386 1.23533 38.7309C1.02019 38.1684 0.851364 37.5881 0.66447 37.0148C0.623598 36.8895 0.587353 36.7622 0.556353 36.6341C0.474815 36.297 0.390839 35.9603 0.320089 35.6209C0.250728 35.2882 0.19744 34.9521 0.134868 34.6179C0.120178 34.5394 0.10047 34.4613 0.0741071 34.3861C0.0677638 34.368 0.0256589 34.3625 0 34.3512C7.75829e-08 33.0961 7.97692e-08 31.841 0.0151454 30.5658C0.0390336 30.3806 0.0478756 30.2155 0.0541793 30.0504C0.0542172 30.0494 0.0188396 30.047 0 30.0453C7.75829e-08 29.9278 7.74571e-08 29.8102 0.00932384 29.6915C0.0476059 29.6491 0.0765642 29.6078 0.105233 29.5502C0.162453 29.0666 0.202883 28.5965 0.282444 28.1331C0.356858 27.6998 0.448438 27.2661 0.576106 26.8458C0.768581 26.2122 0.991443 25.5874 1.21622 24.9642C1.34732 24.6007 1.51449 24.2504 1.65225 23.8891C1.78669 23.5365 1.90645 23.1783 2.02847 22.8211C2.0857 22.6536 2.12507 22.4798 2.18683 22.3141C2.27881 22.0674 2.39033 21.828 2.48099 21.5808C2.59855 21.2603 2.67884 20.9239 2.82035 20.615C3.01645 20.1869 3.17392 19.7545 3.21456 19.2827C3.22499 19.1615 3.28317 19.0747 3.45497 19.1193C3.44372 19.2385 3.4503 19.3632 3.41714 19.4762C3.36344 19.6593 3.28245 19.8342 3.21512 20.0134C3.02092 20.5302 2.8261 21.0467 2.63542 21.5648C2.5881 21.6933 2.55553 21.8273 2.51618 21.9588C2.53487 21.9656 2.55357 21.9725 2.57227 21.9793C2.64714 21.7878 2.72331 21.5967 2.79614 21.4044C2.8203 21.3406 2.82728 21.2693 2.85706 21.2088C2.93762 21.0452 3.02973 20.8873 3.11087 20.7239C3.27796 20.3875 3.44223 20.0496 3.60521 19.7112C3.80382 19.2987 4.00524 18.8874 4.19573 18.4712C4.42699 17.9659 4.64543 17.4548 4.87461 16.9485C5.01527 16.6378 5.19724 16.3419 5.30405 16.0206C5.45289 15.5728 5.54528 15.1065 5.67031 14.6504C5.69469 14.5614 5.75779 14.4831 5.80304 14.3999C5.82588 14.4022 5.84873 14.4045 5.87158 14.4068C5.90645 14.5303 5.98752 14.662 5.96748 14.7758C5.90923 15.1066 5.83787 15.4406 5.72018 15.7541C5.59381 16.0906 5.4045 16.4031 5.25116 16.7301C5.13639 16.9748 5.04015 17.2282 4.92654 17.4735C4.7797 17.7905 4.62107 18.102 4.47299 18.4185C4.40723 18.5591 4.36363 18.7102 4.29474 18.849C4.1069 19.2275 3.90904 19.6009 3.71912 19.9783C3.63688 20.1417 3.57142 20.3138 3.48603 20.4754C3.313 20.8029 3.11873 21.1198 2.95853 21.4532C2.86511 21.6477 2.82205 21.8661 2.75344 22.0728C2.7309 22.1407 2.69927 22.2056 2.67179 22.2719C2.7883 22.1715 2.87431 22.059 2.94702 21.9384C3.0935 21.6954 3.22456 21.4429 3.37765 21.2043C3.49286 21.0248 3.63986 20.8659 3.75972 20.6891C4.02651 20.2954 4.27807 19.8914 4.54956 19.5011C4.73631 19.2326 4.94634 18.9804 5.1455 18.7205C5.37881 18.4161 5.61089 18.1108 5.84483 17.8069C6.04728 17.5439 6.2396 17.2718 6.45762 17.0223C6.88219 16.5364 7.32788 16.069 7.75274 15.5834C8.04315 15.2514 8.31241 14.901 8.59241 14.5599C8.83764 14.2611 9.09203 13.9695 9.32877 13.6642C9.55518 13.3722 9.76317 13.066 9.98113 12.7673C10.0566 12.6639 10.1499 12.5717 10.214 12.462C10.3995 12.1445 10.588 11.8273 10.7499 11.4976C10.9546 11.0811 11.1618 10.662 11.3145 10.2253C11.4106 9.95038 11.4088 9.64124 11.4504 9.35059C11.6297 9.34082 11.7695 9.44689 11.7484 9.59417C11.7176 9.809 11.6839 10.0309 11.6021 10.2294C11.4161 10.6813 11.2197 11.1312 10.9908 11.5624C10.7492 12.0175 10.4735 12.4554 10.1957 12.8899C10.0552 13.1098 9.87949 13.3077 9.71558 13.5122C9.30329 14.0267 8.89759 14.5469 8.47212 15.0503C8.1421 15.4407 7.78407 15.8074 7.44238 16.1882C7.05139 16.6239 6.66216 17.0612 6.27724 17.5023C6.09088 17.7159 5.91418 17.938 5.73878 18.1607C5.71898 18.1859 5.7361 18.2401 5.7361 18.2808C5.75281 18.2936 5.76953 18.3064 5.78624 18.3191C5.88074 18.2107 5.97212 18.0994 6.07034 17.9944C6.33663 17.7099 6.5907 17.4116 6.87723 17.1489C7.36836 16.6986 7.88205 16.273 8.3833 15.8336C8.77351 15.4916 9.15781 15.1428 9.54729 14.7999C9.94697 14.448 10.3641 14.1146 10.7477 13.7462C11.2849 13.2305 11.8001 12.6919 12.3209 12.1592C12.6718 11.8003 13.0223 11.4404 13.3616 11.0705C13.6993 10.7022 14.0312 10.3279 14.3495 9.94291C14.5757 9.66944 14.8068 9.39159 14.9789 9.08397C15.2372 8.6226 15.4494 8.13511 15.6743 7.65555C15.8828 7.21112 15.9667 6.74189 15.8573 6.26013C15.7284 5.6922 15.5717 5.13245 15.2102 4.65345C15.0665 4.46304 15.104 4.34914 15.3213 4.22563C15.4555 4.14937 15.6502 4.12455 15.7256 4.01388C15.8197 3.87565 15.9464 3.8547 16.0666 3.8001C16.2788 3.7037 16.5026 3.63176 16.7114 3.52898C17.0009 3.38645 17.2835 3.22922 17.5645 3.07006C17.7738 2.95146 17.9763 2.82074 18.1808 2.69368C18.3386 2.59566 18.4948 2.49521 18.6514 2.39538C18.8838 2.24727 19.134 2.11993 19.3415 1.94268C19.4717 1.83148 19.5963 1.65298 19.6184 1.49044C19.6498 1.25795 19.7254 0.982281 19.4566 0.794574C19.6145 0.683382 19.7623 0.594982 19.8901 0.483628C19.9732 0.411293 20.027 0.305496 20.094 0.214691C20.1859 0.214691 20.2779 0.214691 20.3881 0.228831C20.4549 0.307155 20.5349 0.366142 20.5465 0.436428C20.5953 0.73138 20.5692 1.0239 20.3558 1.25336C20.1139 1.51352 19.9116 1.81556 19.5805 1.98711C19.456 2.05161 19.3484 2.1558 19.2472 2.25609C19.1704 2.33221 19.1137 2.42572 19.2077 2.54033C19.2789 2.62707 19.3582 2.71824 19.3936 2.82128C19.52 3.18928 19.6495 3.55835 19.7391 3.9362C19.828 4.3105 19.8646 4.69688 19.9339 5.07618C20.0359 5.63479 19.8275 6.16448 19.7015 6.67682C19.581 7.16662 19.2292 7.60599 18.9478 8.04758C18.7452 8.36548 18.5009 8.65874 18.2576 8.9482C17.9806 9.27774 17.7038 9.61181 17.3912 9.9059C16.9768 10.2957 16.5283 10.6492 16.0934 11.017C15.9651 11.1254 15.8371 11.2348 15.7017 11.3338C15.5309 11.4587 15.3495 11.5691 15.1787 11.6939C15.0604 11.7804 14.9545 11.8837 14.8392 11.9745C14.597 12.1654 14.3528 12.3537 14.1083 12.5417C13.9427 12.669 13.7741 12.7925 13.6088 12.9202C13.438 13.0521 13.2697 13.187 13.1013 13.3228C13.1023 13.325 13.1065 13.3226 13.0933 13.3212C13.0507 13.3458 13.0213 13.3717 12.9916 13.3986C12.9913 13.3994 12.9895 13.3997 12.9772 13.392C12.932 13.4023 12.8991 13.4203 12.8526 13.4373C12.7744 13.4923 12.7097 13.5484 12.6314 13.6062C12.4436 13.721 12.2695 13.8341 12.0816 13.9467C11.9751 14.0077 11.8824 14.0691 11.7896 14.1305C11.7992 14.1485 11.8088 14.1664 11.8183 14.1844C11.9869 14.1405 12.1604 14.1098 12.3227 14.0492C12.5022 13.9823 12.6714 13.888 12.8574 13.799C13.0726 13.7109 13.2733 13.6235 13.4787 13.5489C13.9114 13.3919 14.337 13.2002 14.7827 13.0974C15.6893 12.8883 16.6087 12.735 17.5203 12.5462C18.0079 12.4452 18.4961 12.3765 18.9949 12.3934C19.0568 12.3955 19.1191 12.3739 19.1816 12.3665C19.4338 12.3365 19.6857 12.3031 19.9385 12.2806C20.074 12.2686 20.2113 12.2792 20.3475 12.274C20.5519 12.2661 20.7577 12.2318 20.9601 12.2466C21.4865 12.2853 22.0115 12.343 22.5367 12.3968C22.7123 12.4148 22.8876 12.4389 23.0615 12.4686C23.5021 12.5441 23.9423 12.6216 24.3818 12.7035C24.737 12.7696 25.0945 12.8289 25.444 12.9184C25.7101 12.9866 25.9658 13.0958 26.2252 13.1896C26.5976 13.3242 26.9739 13.4497 27.3392 13.6015C27.5643 13.6951 27.7721 13.8302 27.9876 13.9469C28.2364 14.0816 28.485 14.2165 28.736 14.3525C28.8359 14.2852 28.9648 14.2297 29.05 14.135C29.2966 13.8608 29.5221 13.5677 29.7628 13.2881C29.9466 13.0746 30.1364 12.8658 30.3318 12.6628C30.6472 12.3351 30.9487 11.9895 31.2942 11.6963C31.6789 11.3699 32.1011 11.0863 32.5171 10.7987C32.7203 10.6583 32.9338 10.5035 33.1657 10.4414C33.4305 10.3705 33.678 10.2366 33.9752 10.247C34.282 10.2577 34.5926 10.1476 34.9002 10.1543C35.2571 10.1621 35.6119 10.2433 35.9686 10.2844C36.092 10.2987 36.2549 10.3388 36.3361 10.2797C36.5541 10.1209 36.7355 9.91259 36.9356 9.72847C37.1055 9.57211 37.2808 9.40925 37.5374 9.45935C37.6249 9.47642 37.7389 9.52782 37.7745 9.59744C37.8202 9.6869 37.8755 9.80081 37.7194 9.9069C37.5655 10.0114 37.4671 10.1952 37.3358 10.3363C37.2468 10.432 37.1635 10.5179 36.9984 10.4221C36.8645 10.3445 36.6884 10.3404 36.5579 10.4693C36.4295 10.5961 36.3032 10.7267 36.1899 10.8669C35.9021 11.2228 35.6226 11.5854 35.3388 11.9446C34.8333 12.5845 34.3309 13.2271 33.8181 13.8612C33.6976 14.0102 33.5409 14.1299 33.4131 14.2514C33.2683 14.1401 33.1483 14.0304 33.0122 13.9469C32.7107 13.7619 32.367 13.6758 32.0234 13.6716C31.3187 13.6632 30.6236 13.7258 30.0004 14.1226C29.7648 14.2727 29.4639 14.3318 29.2518 14.5047C28.8542 14.8287 28.4825 15.1895 28.1318 15.5648C27.7764 15.9451 27.4555 16.3582 27.127 16.763C26.93 17.0059 26.7462 17.2595 26.5589 17.5101C26.4652 17.6354 26.3859 17.7726 26.2842 17.8908C26.0663 18.144 25.8433 18.3933 25.6112 18.6334C25.5293 18.7182 25.415 18.7715 25.3154 18.8392C25.305 18.8285 25.2945 18.8177 25.284 18.807C25.3003 18.7494 25.3167 18.6919 25.3323 18.6368C24.0501 17.5383 22.5484 16.883 20.9213 16.3969C20.9442 16.4623 20.9618 16.4902 20.9625 16.5185C20.9669 16.6865 20.9808 16.8563 20.9596 17.0213C20.9543 17.0629 20.8224 17.1275 20.766 17.1132C20.6957 17.0953 20.6357 17.0344 20.6982 16.9099C20.7398 16.8272 20.7025 16.6623 20.6409 16.5777C20.3903 16.2339 19.975 16.2816 19.6534 16.3187C19.1557 16.3762 18.6447 16.4677 18.182 16.7049C17.94 16.8289 17.6834 16.925 17.4439 17.0533C17.3745 17.0904 17.3037 17.1924 17.2984 17.2692C17.2802 17.5323 17.2857 17.7975 17.2919 18.0617C17.2972 18.2864 17.3258 18.5108 17.3269 18.7355C17.3314 19.6564 17.3294 20.5773 17.3297 21.4982C17.3298 21.8125 17.3297 22.1268 17.3297 22.4675C17.4198 22.4277 17.4785 22.4041 17.5353 22.3764C17.9154 22.1902 18.3194 22.0394 18.6675 21.8054C18.96 21.6089 19.194 21.3217 19.4395 21.0611C19.5225 20.973 19.5918 20.8489 19.6127 20.7315C19.6344 20.6099 19.5965 20.4752 19.572 20.3486C19.5566 20.2688 19.4749 20.1705 19.5007 20.1219C19.5326 20.0621 19.6422 20.03 19.7239 20.0132C19.8962 19.9778 20.0725 19.9622 20.2466 19.9347C20.5363 19.8889 20.6738 19.9924 20.7094 20.2836C20.7138 20.3198 20.727 20.3583 20.7469 20.3887C20.9678 20.7277 21.3241 20.8955 21.672 21.0347C22.141 21.2225 22.639 21.0984 23.1199 21.0293C23.3895 20.9905 23.6562 20.9062 23.9134 20.8126C24.2929 20.6745 24.6679 20.521 25.0346 20.3522C25.2371 20.2589 25.4296 20.135 25.6076 19.9999C25.926 19.7583 26.2666 19.5377 26.48 19.1811C26.5633 19.0417 26.6624 18.9118 26.7544 18.7776C26.7776 18.7927 26.8008 18.8077 26.8239 18.8227C26.5501 19.5167 26.1381 20.1318 25.6751 20.743C25.88 20.7769 26.0694 20.7764 26.2588 20.777C26.5428 20.778 26.8269 20.784 27.1108 20.7797C27.2832 20.777 27.4579 20.7736 27.6273 20.7451C28.1576 20.6558 28.6469 20.455 29.0942 20.1577C29.2418 20.0596 29.3797 19.9452 29.5127 19.8277C29.5987 19.7518 29.6679 19.6567 29.7446 19.5701C29.7658 19.5823 29.7871 19.5945 29.8083 19.6068C29.8148 19.6535 29.8413 19.7092 29.8249 19.7455C29.6343 20.1673 29.1951 20.3203 28.8549 20.6287C29.1814 20.5837 29.4819 20.5529 29.7783 20.4992C30.3573 20.3942 30.9345 20.2787 31.5116 20.1632C31.9986 20.0657 32.4847 19.9637 32.9704 19.8603C33.1933 19.8129 33.4122 19.7414 33.6369 19.7084C34.4171 19.5939 35.1526 19.3593 35.7764 18.8658C36.008 18.6826 36.1891 18.4372 36.1634 18.0964C36.1571 18.0122 36.2157 17.8856 36.2848 17.841C36.424 17.7511 36.5913 17.7047 36.7465 17.6391C36.976 17.5421 37.2037 17.4406 37.4355 17.3494C37.4805 17.3317 37.5601 17.3325 37.5882 17.3604C37.6167 17.3889 37.6135 17.464 37.6028 17.5142C37.5786 17.6278 37.5367 17.7376 37.5103 17.8509C37.4564 18.0815 37.4566 18.3404 37.3462 18.5385C37.1682 18.8581 37.0569 19.2327 36.7188 19.4359C37.1122 19.5148 37.4935 19.5772 37.8673 19.6697C38.4091 19.8037 38.9512 19.942 39.4821 20.1129C39.7889 20.2117 40.0731 20.3799 40.3691 20.5132C40.4611 20.5546 40.5585 20.5841 40.6534 20.619C40.6534 20.6729 40.6534 20.7268 40.6391 20.7965C40.3109 20.6949 39.996 20.5801 39.6837 20.4587C39.5499 20.4067 39.426 20.3256 39.2895 20.2847C39.0471 20.2122 38.8007 20.1484 38.552 20.1025C38.1328 20.025 37.7125 19.9412 37.2889 19.9035C36.915 19.8702 36.5352 19.8819 36.1594 19.9014C35.9262 19.9135 35.6932 19.9668 35.4646 20.0205C35.1375 20.0973 34.8153 20.1946 34.4895 20.2774C34.0929 20.3784 33.6947 20.4734 33.2972 20.571C33.606 20.644 33.9052 20.6713 34.2041 20.701C34.2475 20.7054 34.2907 20.7181 34.3323 20.7319C34.4445 20.769 34.5213 20.8493 34.4683 20.9624C34.4102 21.0866 34.2953 21.0162 34.2018 20.9926C34.0208 20.9468 33.8361 20.849 33.6601 20.863C33.0904 20.908 32.5234 20.9892 31.9566 21.0654C31.545 21.1208 31.1318 21.1734 30.7257 21.258C30.3006 21.3466 29.8834 21.4728 29.4624 21.5809C29.0938 21.6755 28.7257 21.7724 28.3555 21.8601C27.6527 22.0268 26.9486 22.1877 26.2875 22.3412C26.4199 22.3707 26.5953 22.3974 26.7605 22.4541C26.8108 22.4714 26.8328 22.5712 26.8678 22.6332C26.7852 22.6715 26.6517 22.7624 26.6281 22.7397C26.4446 22.5621 26.2082 22.635 26.0055 22.6078C25.7249 22.5702 25.4316 22.6112 25.1454 22.6372C24.9396 22.6559 24.7349 22.6978 24.5326 22.7425C24.2614 22.8025 23.9943 22.8814 23.7229 22.9409C23.3423 23.0243 22.9591 23.0957 22.5778 23.1759C22.493 23.1937 22.4112 23.2257 22.3284 23.2525C22.2233 23.2866 22.1186 23.3221 22.0137 23.3569C22.0195 23.3864 22.0253 23.4158 22.0312 23.4452C22.3406 23.4452 22.6502 23.4413 22.9596 23.4467C23.141 23.4499 23.3247 23.4524 23.5028 23.4826C23.8138 23.5354 24.1205 23.6131 24.4303 23.6733C24.7726 23.7398 25.1194 23.7858 25.4586 23.8648C25.7046 23.922 25.941 24.0198 26.1825 24.0967C26.4344 24.177 26.6889 24.2494 26.9388 24.3352C27.0215 24.3636 27.0903 24.4303 27.171 24.4672C27.5783 24.6532 28.0008 24.8106 28.3924 25.0246C28.8914 25.2972 29.378 25.5969 29.8465 25.919C30.1438 26.1233 30.4097 26.3782 30.6692 26.6314C30.9674 26.9223 31.263 27.2203 31.5235 27.5443C31.8534 27.9544 32.154 28.3888 32.4531 28.8225C32.625 29.0716 32.7752 29.3365 32.9235 29.6008C33.0538 29.833 33.1694 30.0735 33.2887 30.3118C33.4263 30.5867 33.5851 30.8542 33.6911 31.141C33.8389 31.541 33.9638 31.9516 34.0665 32.3655C34.1833 32.8362 34.3299 33.3011 34.3676 33.7903C34.391 34.0927 34.4739 34.3927 34.4766 34.6943C34.4837 35.4734 34.4625 36.2527 34.4487 37.0319C34.4469 37.1338 34.4236 37.2356 34.4076 37.337C34.379 37.5187 34.3468 37.6999 34.3196 37.8818C34.3102 37.9452 34.3213 38.0127 34.3058 38.0739C34.2192 38.4168 34.1355 38.7607 34.0352 39.0997C33.9031 39.5457 33.772 39.9931 33.612 40.4294C33.4455 40.883 33.2466 41.3248 33.0591 41.7706C32.8498 42.2684 32.6565 42.7743 32.4199 43.2589C32.2403 43.6267 32.002 43.9657 31.7931 44.3194C31.5488 44.7331 31.2986 45.1436 31.069 45.5653C30.8922 45.8902 30.7345 46.2264 30.5841 46.5647C30.4068 46.9634 30.2299 47.3639 30.084 47.7747C29.9686 48.0998 29.8871 48.4388 29.8149 48.7768C29.746 49.0988 29.7207 49.43 29.6547 49.7527C29.5643 50.1944 29.6055 50.6393 29.6975 51.0619C29.7791 51.4369 29.9681 51.7959 30.1532 52.1385C30.2802 52.3736 30.4638 52.5853 30.7287 52.7005C30.7626 52.7152 30.7923 52.805 30.7791 52.8455C30.7635 52.8935 30.7046 52.95 30.6554 52.9606C30.4096 53.0131 30.2805 52.8226 30.1566 52.673C29.9361 52.4067 29.7438 52.1197 29.6668 51.769C29.5951 51.4424 29.5037 51.1201 29.4288 50.7825C29.4368 50.4921 29.4368 50.2152 29.4368 49.9383C29.3716 49.962 29.3301 49.9986 29.3283 50.0371C29.3152 50.3209 29.3095 50.6051 29.3042 50.8892C29.304 50.8997 29.3319 50.9107 29.351 50.9379C29.3627 51.0501 29.357 51.149 29.3797 51.2409C29.4667 51.5942 29.5777 51.9422 29.6513 52.298C29.7224 52.6413 29.9463 52.8954 30.1297 53.1678C30.286 53.3999 30.3162 53.4491 30.185 53.6959C30.1002 53.8556 30.0405 54.0289 29.974 54.1979C29.9211 54.3324 29.8752 54.4696 29.8261 54.6057C29.7959 54.6111 29.7657 54.6166 29.7355 54.622C29.6133 54.4396 29.4797 54.2635 29.3732 54.0723C29.3114 53.9616 29.2984 53.8247 29.1303 53.8165C29.1035 53.8152 29.0807 53.7681 29.0529 53.7463C28.8506 53.5872 28.8845 53.3335 28.8456 53.1292C28.7414 52.5821 28.6605 52.0248 28.6411 51.4691C28.6247 51.0009 28.6964 50.528 28.7503 50.0596C28.794 49.6795 28.834 49.2931 28.9382 48.9274C29.1023 48.3515 29.3197 47.7909 29.5115 47.2229C29.5248 47.1835 29.5133 47.1358 29.5133 47.0919C29.5007 47.0893 29.4882 47.0866 29.4757 47.084C29.3329 47.3134 29.1901 47.5427 29.0399 47.7789C29.0292 47.7981 29.0258 47.8106 29.0208 47.8304C29.0191 47.8379 29.0086 47.8489 28.9946 47.8488C28.9529 47.8492 28.9251 47.8497 28.8978 47.8361C28.8163 47.7857 28.8029 47.803 28.7256 47.9136C28.5419 48.1768 28.3521 48.4359 28.1601 48.6931C28.0694 48.8147 27.9649 48.9258 27.8721 49.046C27.7827 49.1617 27.7029 49.2846 27.6146 49.4012C27.417 49.662 27.1812 49.9014 27.0263 50.1851C26.8021 50.5958 26.6863 51.0529 26.5998 51.5153C26.5872 51.5824 26.4952 51.6616 26.4237 51.6843C26.3155 51.7186 26.2796 51.6309 26.2901 51.5331C26.2993 51.4467 26.3088 51.3593 26.3299 51.2752C26.3577 51.1649 26.4091 51.0596 26.4293 50.9484C26.5312 50.3883 26.8252 49.9225 27.1601 49.4823C27.4288 49.129 27.7252 48.7969 28.0208 48.4503C28.1484 48.3347 28.2681 48.2263 28.2982 48.0634C28.2778 48.0495 28.2574 48.0356 28.237 48.0217C28.144 48.1554 28.0511 48.2891 27.944 48.4224C27.8342 48.4975 27.7323 48.5665 27.6444 48.6502C27.5064 48.7818 27.3844 48.9304 27.244 49.0591C26.9163 49.3594 26.5768 49.6469 26.2519 49.9501C26.0923 50.0991 25.9596 50.2765 25.8057 50.432C25.6182 50.6216 25.4045 50.7875 25.2318 50.9891C24.9373 51.3326 24.6556 51.6884 24.3878 52.0532C24.1153 52.4243 23.8634 52.8108 23.6086 53.1945C23.5476 53.2864 23.5104 53.3941 23.4631 53.4949C23.3724 53.6882 23.2808 53.881 23.1927 54.0755C23.1522 54.165 23.1244 54.2605 23.0804 54.348C23.0633 54.382 23.0042 54.4298 22.9874 54.422C22.9475 54.4032 22.9083 54.3601 22.892 54.3178C22.8355 54.1711 22.9175 54.0618 22.9836 53.9343C23.1197 53.6717 23.1923 53.3737 23.3441 53.1223C23.5711 52.7464 23.8353 52.3918 24.0995 52.04C24.3852 51.6594 24.6815 51.2861 24.9883 50.9224C25.1367 50.7465 25.3212 50.6012 25.4869 50.4395C25.8558 50.0793 26.2186 49.7125 26.5932 49.3584C26.7842 49.1778 27 49.0238 27.1955 48.8475C27.2796 48.7717 27.3404 48.6701 27.4118 48.5801C27.3967 48.5651 27.3817 48.5501 27.3667 48.535C27.1606 48.6894 26.954 48.8431 26.7485 48.9983C26.3405 49.3063 25.9314 49.613 25.5258 49.9241C25.2309 50.1503 24.9288 50.3694 24.6521 50.6165C24.4134 50.8297 24.2013 51.0738 23.9859 51.3118C23.7595 51.5621 23.5398 51.8187 23.3234 52.0777C23.1192 52.322 22.9073 52.5621 22.7274 52.8238C22.4898 53.1696 22.2877 53.5395 22.0564 53.8898C21.8378 54.2207 21.5932 54.5343 21.3742 54.8649C20.9527 55.5009 20.6632 56.2018 20.4493 56.9282C20.3055 57.4163 20.2671 57.9289 20.285 58.441C20.286 58.4703 20.2985 58.5025 20.3147 58.5274C20.4581 58.7462 20.4332 58.8093 20.1769 58.8674C19.8544 58.9404 19.5323 59.016 19.2087 59.0837C19.1157 59.1031 19.012 59.0809 18.923 59.1088C18.5262 59.2333 18.132 59.3665 17.7384 59.5012C17.0924 59.7223 16.4476 59.9471 15.8022 60.17C15.6584 60.2197 15.457 60.2247 15.3812 60.3251C15.1797 60.5924 14.8432 60.6347 14.6124 60.8795C14.3101 61.2 14.2849 61.715 14.4381 61.9928C14.572 62.2358 14.5787 62.2585 14.3632 62.4345C14.2913 62.4932 14.1676 62.5154 14.1329 62.5863C14.0835 62.6869 13.863 62.5918 13.9261 62.7853ZM19.3963 31.6554C19.3927 31.6736 19.389 31.6917 19.3854 31.7098C19.4036 31.6999 19.4218 31.69 19.4599 31.6757C19.4664 31.6645 19.473 31.6532 19.5087 31.6408C19.8039 31.4893 20.1202 31.3676 20.3886 31.178C20.6737 30.9766 20.9069 30.7032 21.1743 30.4748C21.5428 30.16 21.7832 29.764 21.9006 29.3036C21.9769 29.0042 21.9253 28.6896 21.7771 28.4201C21.6396 28.17 21.3879 28.1132 21.0984 28.1911C21.1191 28.0204 21.1793 27.899 21.3391 27.8773C21.692 27.8296 21.9898 28.0313 22.079 28.3707C22.2252 28.9275 22.1565 29.4525 21.839 29.9399C21.7703 30.0453 21.7122 30.1575 21.6274 30.3042C21.8165 30.1773 21.9714 30.0843 22.1142 29.9755C22.4695 29.705 22.8171 29.4243 23.1748 29.1572C23.2094 29.1314 23.2969 29.1631 23.3536 29.1845C23.3985 29.2014 23.4314 29.2473 23.4737 29.2738C23.7489 29.446 24.0248 29.6229 24.2932 29.7989C24.7526 30.1004 25.2813 30.224 25.75 30.488C25.9377 30.5937 26.158 30.6412 26.3633 30.7159C26.5661 30.7896 26.7652 30.8761 26.9721 30.9354C27.2547 31.0163 27.5453 31.0692 27.8285 31.1481C28.2057 31.2532 28.5794 31.3708 28.9541 31.4849C29.1558 31.5463 29.3557 31.6138 29.5576 31.6744C29.7856 31.7429 30.0006 31.7888 30.2103 31.5931C30.3641 31.4494 30.5608 31.3517 30.7556 31.222C30.6546 31.1341 30.5313 31.0263 30.4075 30.9191C30.0434 30.6036 29.6896 30.2748 29.311 29.9777C29.0623 29.7826 28.7837 29.6227 28.5076 29.4663C28.2124 29.299 27.9081 29.1465 27.601 29.0021C27.3305 28.8749 27.0543 28.7579 26.7739 28.6546C26.465 28.541 26.1479 28.4499 25.8357 28.345C25.7632 28.3206 25.6969 28.2784 25.6263 28.2477C25.4373 28.1652 25.2517 28.0719 25.0568 28.0066C24.8681 27.9433 24.6708 27.9032 24.4751 27.8641C23.9412 27.7573 23.4082 27.6439 22.8709 27.5576C22.5122 27.5 22.147 27.4818 21.7843 27.4503C21.1673 27.3967 20.5494 27.3002 19.933 27.3087C19.3944 27.316 18.8502 27.3435 18.3181 27.5268C18.0182 27.6301 17.7474 27.7799 17.4623 27.9038C17.3768 27.9409 17.3 28.069 17.2795 28.168C17.2487 28.317 17.2709 28.4771 17.2706 28.6324C17.27 28.9459 17.2631 29.2595 17.27 29.5727C17.2851 30.2594 17.3101 30.9458 17.3251 31.6324C17.3325 31.9671 17.3264 32.3021 17.3264 32.637C17.3477 32.6476 17.3689 32.6581 17.3902 32.6687C17.5719 32.5374 17.7746 32.4266 17.9285 32.2683C18.0502 32.1432 18.2181 32.0089 18.1589 31.7783C18.1546 31.7617 18.2746 31.7131 18.3368 31.6794C18.3592 31.7282 18.3977 31.7762 18.4004 31.8261C18.4052 31.9147 18.3882 32.0044 18.3804 32.0936C18.4014 32.1025 18.4224 32.1114 18.4435 32.1203C18.6446 31.8599 18.8544 31.6055 19.0433 31.3364C19.1386 31.2007 19.2022 31.041 19.2658 30.8861C19.2803 30.8507 19.2292 30.7919 19.2197 30.7417C19.2125 30.7034 19.2083 30.6381 19.2284 30.6254C19.3531 30.5466 19.4623 30.5997 19.4667 30.7452C19.472 30.9207 19.4829 31.099 19.3457 31.2469C19.3032 31.2928 19.2984 31.3738 19.2444 31.4387C19.2054 31.471 19.1665 31.5033 19.1276 31.5356C19.1405 31.5497 19.1534 31.5638 19.1663 31.5779C19.2115 31.5436 19.2566 31.5094 19.3234 31.4596C19.6243 31.1946 19.8849 30.8983 20.0698 30.5381C20.1743 30.3346 20.142 30.0023 19.9934 29.8309C19.9121 29.7371 19.9094 29.6494 20.0386 29.5853C20.1594 29.5253 20.2988 29.6231 20.349 29.8136C20.4464 30.183 20.3265 30.5191 20.1278 30.8103C19.9298 31.1004 19.6727 31.3502 19.4303 31.6227C19.4232 31.6276 19.4187 31.6342 19.3963 31.6554ZM3.6091 21.2441C3.63895 21.198 3.66881 21.152 3.69866 21.106C3.68098 21.0953 3.6633 21.0846 3.64562 21.0739C3.61685 21.1262 3.58808 21.1785 3.54347 21.2431C3.54406 21.2523 3.54465 21.2614 3.54524 21.2705C3.55832 21.2659 3.5714 21.2613 3.6091 21.2441ZM3.84927 20.7779C3.79226 20.8606 3.73526 20.9432 3.67825 21.0259C3.70429 21.041 3.73032 21.056 3.75636 21.0711C3.802 20.9767 3.84764 20.8824 3.91424 20.7727C3.97533 20.6907 4.03642 20.6087 4.09751 20.5267C4.0774 20.5134 4.0573 20.5001 4.03719 20.4869C3.98303 20.5812 3.92888 20.6756 3.84927 20.7779ZM3.69128 23.1852C3.59335 23.366 3.49543 23.5467 3.3975 23.7275C3.41785 23.7381 3.43819 23.7486 3.45854 23.7592C3.55988 23.5728 3.66122 23.3863 3.78344 23.1864C3.83072 23.0958 3.878 23.0052 3.95474 22.9137C4.04825 22.7603 4.14177 22.607 4.26351 22.4524C4.29489 22.4013 4.32628 22.3501 4.38273 22.2891C4.49816 22.1264 4.60451 21.9563 4.73087 21.8026C5.003 21.4716 5.27163 21.1358 5.56759 20.8268C5.85192 20.5299 6.15621 20.2487 6.475 19.9892C6.82069 19.7078 7.19071 19.4558 7.55494 19.1977C7.83798 18.9972 8.11168 18.7737 8.41927 18.6198C8.95642 18.3511 9.51274 18.1191 10.0689 17.891C10.2576 17.8136 10.4689 17.7873 10.6722 17.751C10.806 17.7272 10.8723 17.8261 10.8056 17.9223C10.7258 18.0377 10.613 18.1669 10.4396 18.1336C10.1221 18.0725 9.85555 18.2302 9.58611 18.3395C9.17327 18.507 8.77469 18.7107 8.37481 18.9086C8.17192 19.009 7.97137 19.1185 7.78406 19.2451C7.47613 19.4531 7.17203 19.6685 6.88066 19.8989C6.53921 20.169 6.19609 20.441 5.88504 20.7443C5.56359 21.0577 5.25607 21.3918 4.98541 21.7494C4.63718 22.2095 4.32271 22.6961 4.01129 23.1826C3.83064 23.4648 3.68577 23.7698 3.52228 24.0632C3.44901 24.1946 3.35366 24.316 3.29611 24.4536C3.15467 24.7917 3.02455 25.1348 2.8991 25.4793C2.80486 25.7381 2.70936 25.9981 2.64224 26.2647C2.53752 26.6805 2.44013 27.0997 2.37175 27.5227C2.33501 27.7499 2.36522 27.988 2.36522 28.251C2.42784 28.2069 2.52665 28.1749 2.54531 28.1169C2.59492 27.963 2.60044 27.7954 2.64124 27.6379C2.68899 27.4536 2.75552 27.2741 2.8139 27.0925C2.83673 27.0996 2.85956 27.1067 2.88239 27.1137C2.80937 27.4544 2.73636 27.7951 2.66137 28.1451C2.77369 28.1109 2.85038 28.1014 2.91078 28.0649C2.9603 28.035 3.00847 27.9788 3.02622 27.9242C3.13975 27.575 3.23101 27.2181 3.35581 26.8732C3.52628 26.4021 3.70895 25.9345 3.90775 25.4747C4.04978 25.1462 4.22471 24.8317 4.38914 24.5131C4.4986 24.301 4.60536 24.0865 4.73168 23.8845C4.86584 23.67 5.02839 23.4734 5.16542 23.2605C5.24219 23.1413 5.28452 23.0002 5.35753 22.878C5.40128 22.8048 5.4874 22.7399 5.55972 22.8371C5.60927 22.9037 5.66406 23.0293 5.63421 23.0813C5.49898 23.3168 5.36047 23.5603 5.17454 23.7544C4.88281 24.0589 4.7457 24.4473 4.546 24.7994C4.32619 25.187 4.15425 25.6026 3.97401 26.0115C3.82405 26.3518 3.67864 26.6952 3.55664 27.0461C3.45548 27.3371 3.39137 27.6409 3.30907 27.9455C3.46016 27.9125 3.60875 27.8905 3.75075 27.847C4.12409 27.7327 4.49499 27.6103 4.86586 27.4881C4.95214 27.4596 5.04491 27.4335 5.11651 27.3813C5.30077 27.247 5.46622 27.086 5.65471 26.9587C6.11266 26.6493 6.37358 26.2374 6.43792 25.6796C6.48869 25.2396 6.15841 24.5482 5.71335 24.4376C5.69144 24.4322 5.67822 24.3917 5.64291 24.3424C5.77675 24.3219 5.88752 24.3079 5.99713 24.2876C6.1575 24.2579 6.3169 24.2229 6.47697 24.1915C6.54029 24.1791 6.60661 24.155 6.66734 24.1641C6.72649 24.1731 6.77727 24.2315 6.83687 24.2444C7.1141 24.3044 7.29211 24.4894 7.46649 24.696C7.53995 24.783 7.62389 24.9577 7.80392 24.8088C7.82923 24.7879 7.91486 24.8403 7.97271 24.8582C8.06566 24.8871 8.15874 24.9155 8.27676 24.9519C8.16405 24.835 8.07412 24.7578 8.00714 24.6642C7.98199 24.629 8.01013 24.5557 8.01397 24.4998C8.06752 24.519 8.13821 24.5229 8.17166 24.5601C8.324 24.7299 8.45756 24.76 8.65614 24.6631C8.97694 24.5066 9.10192 24.2459 9.07355 23.9007C9.06448 23.7902 9.05642 23.6825 8.90197 23.6685C8.86611 23.6652 8.83671 23.5908 8.80433 23.5492C8.84927 23.5146 8.89431 23.4514 8.93912 23.4516C9.02164 23.4519 9.10402 23.4894 9.18981 23.5123C9.0658 23.29 8.99079 23.0325 8.71007 22.9308C8.67128 22.9168 8.67072 22.7971 8.65246 22.7264C8.70853 22.712 8.78117 22.6679 8.81783 22.6883C8.99337 22.7861 9.14369 22.9106 9.19657 23.1238C9.21433 23.1954 9.27391 23.2566 9.31438 23.3226C9.32952 23.3146 9.34467 23.3067 9.35981 23.2988C9.30433 23.0826 9.27004 22.858 9.18744 22.6528C9.1043 22.4463 9.02729 22.2408 8.75599 22.1505C8.56336 22.0863 8.38551 21.9833 8.17348 21.9664C8.12827 21.9628 8.05779 21.8833 8.05407 21.8346C8.04655 21.7363 8.11642 21.6872 8.2197 21.7057C8.28787 21.7179 8.36302 21.7173 8.42254 21.7472C8.67314 21.8734 8.98081 21.899 9.14723 22.1768C9.21413 22.2884 9.31929 22.3772 9.41772 22.4885C9.41772 22.0808 9.41772 21.7021 9.41772 21.3174C9.3355 21.3174 9.26288 21.3064 9.19473 21.3192C8.79603 21.3941 8.39929 21.4803 7.99006 21.3954C7.73111 21.3418 7.47054 21.296 7.21104 21.2449C7.04106 21.2115 7.01166 21.1111 7.07188 20.9598C7.16362 20.7292 7.24862 20.496 7.33605 20.2637C7.37876 20.1503 7.45133 20.1038 7.57645 20.1348C7.83296 20.1984 8.0887 20.2847 8.3495 20.3075C8.97437 20.3621 9.58953 20.285 10.182 20.0707C10.3412 20.0132 10.4875 19.9202 10.6461 19.8603C10.9463 19.747 11.192 19.5803 11.3319 19.2772C11.3872 19.1574 11.4842 19.13 11.5958 19.2283C11.5353 19.3559 11.477 19.4786 11.4188 19.6013C11.6944 19.4682 11.805 19.2202 11.9276 18.9862C11.9666 18.9119 11.9698 18.8063 11.9567 18.72C11.9287 18.5359 12.0158 18.4078 12.2342 18.3781C12.2342 18.5354 12.2723 18.7032 12.2251 18.8419C12.157 19.0424 12.026 19.2212 11.924 19.4104C11.8828 19.4868 11.8473 19.5664 11.7855 19.6932C11.9961 19.6078 12.1586 19.5648 12.297 19.4817C12.7901 19.1858 13.311 18.9292 13.7322 18.5262C13.8544 18.4092 14.0275 18.2891 14.0583 18.1451C14.1169 17.8709 14.225 17.5827 14.0838 17.2922C14.0052 17.1305 13.6573 16.9801 13.5027 17.0729C13.3854 17.1433 13.2876 17.2453 13.1766 17.327C13.0451 17.4237 12.9087 17.5137 12.7745 17.6066C12.7626 17.5927 12.7507 17.5788 12.7388 17.5648C12.9569 17.0732 13.1018 16.5345 13.6288 16.2352C13.5658 16.2192 13.5126 16.2091 13.4647 16.2207C12.9078 16.3561 12.3453 16.4735 11.7972 16.6384C11.2361 16.8071 10.6824 17.0059 10.1383 17.2237C9.68193 17.4065 9.24206 17.6314 8.79904 17.8463C8.60225 17.9417 8.40257 18.0405 8.22735 18.1692C7.89359 18.4144 7.57663 18.6825 7.25234 18.9406C6.98357 19.1546 6.68541 19.3405 6.45124 19.5873C5.96226 20.1025 5.4932 20.6384 5.04288 21.1879C4.76552 21.5263 4.53789 21.9055 4.26495 22.2734C4.24499 22.3257 4.22504 22.3781 4.18058 22.438C4.08336 22.5866 3.98613 22.7352 3.86724 22.8992C3.81653 22.9897 3.76582 23.0802 3.69128 23.1852ZM6.01817 38.2698C5.9817 38.2537 5.94523 38.2377 5.90876 38.2216C5.90389 38.2338 5.89903 38.2459 5.89417 38.2581C5.9211 38.2818 5.94803 38.3055 5.98623 38.3543C6.60884 39.0909 7.28789 39.7708 7.98616 40.4084C8.08543 40.1302 8.14168 39.8658 8.26801 39.6407C8.53386 39.167 8.82178 38.7056 9.24636 38.3451C9.44166 38.1792 9.45378 37.8651 9.31547 37.6666C9.27486 37.728 9.2351 37.792 9.19159 37.8534C8.96919 38.167 8.65077 38.3604 8.30163 38.4789C8.04769 38.5651 7.76777 38.5894 7.49724 38.6066C7.33064 38.6171 7.1589 38.5359 6.99124 38.5423C6.64103 38.5556 6.33776 38.4164 6.01817 38.2698ZM15.357 19.2252C15.5902 19.0342 15.7994 18.7978 16.1712 18.8139C16.1886 18.8857 16.2499 19.0021 16.2181 19.0394C16.1676 19.0987 16.0543 19.1033 15.969 19.1348C15.8512 19.1784 15.7052 19.1955 15.6228 19.2765C15.2921 19.6014 14.9779 19.944 14.782 20.3743C14.7699 20.401 14.7656 20.4314 14.7527 20.4577C14.6213 20.7256 14.5041 20.9964 14.5536 21.3324C14.6644 21.152 14.7423 20.983 14.8582 20.8459C15.0455 20.6244 15.1703 20.6079 15.3307 20.7512C15.0892 20.8633 14.9048 21.0071 14.8185 21.2832C14.7268 21.5764 14.7907 21.8578 14.9049 22.0842C15.1405 22.5511 15.6185 22.7039 16.1037 22.7362C16.3731 22.7541 16.6501 22.6491 16.9244 22.6037C17.0761 22.5786 17.1344 22.5038 17.1285 22.3432C17.108 21.7787 17.0964 21.2138 17.0906 20.6489C17.085 20.0962 17.0998 19.5431 17.0884 18.9906C17.0779 18.4787 17.0449 17.9673 17.0205 17.4557C17.0194 17.4333 17.0057 17.4115 16.9908 17.3695C16.8401 17.5037 16.6975 17.6212 16.5658 17.75C16.3563 17.9548 16.144 18.1583 15.9515 18.3787C15.7202 18.6435 15.5085 18.9254 15.2669 19.2154C15.2322 19.27 15.1975 19.3246 15.1628 19.3792C15.1794 19.3901 15.1961 19.4009 15.2127 19.4118C15.2521 19.3513 15.2914 19.2907 15.357 19.2252ZM24.0487 44.1292C24.1657 44.1098 24.2866 44.1031 24.3989 44.0684C24.6433 43.9929 24.8774 43.8672 25.1262 43.8264C25.7494 43.7241 26.314 43.4837 26.8556 43.1749C27.3107 42.9154 27.7754 42.6703 28.2154 42.3871C28.7625 42.035 29.3015 41.6671 29.8193 41.2735C30.1682 41.0083 30.4757 40.6883 30.7992 40.3901C31.0421 40.1662 31.291 39.9474 31.5191 39.7089C31.7618 39.4551 31.9854 39.1829 32.2129 38.9149C32.4006 38.6938 32.5838 38.4687 32.7639 38.2414C32.7961 38.2007 32.8035 38.1404 32.8183 38.1003C32.4478 38.25 32.0867 38.3992 31.723 38.5417C31.4688 38.6414 31.1965 38.7048 30.9579 38.8322C30.5019 39.0755 30.0637 39.3524 29.6188 39.6164C29.3365 39.7839 29.0457 39.9393 28.7759 40.1252C28.3745 40.402 27.986 40.6978 27.5963 40.9911C27.1776 41.3061 26.7647 41.6287 26.3478 41.9459C25.7706 42.385 25.2277 42.8616 24.7238 43.3843C24.5408 43.5743 24.3246 43.7319 24.1289 43.9102C24.0692 43.9646 24.0272 44.0387 23.9571 44.1174C23.9532 44.1316 23.9493 44.1459 23.9454 44.1602C23.9691 44.1506 23.9928 44.141 24.0487 44.1292ZM11.0366 37.9495C10.8134 38.0238 10.5902 38.0981 10.3851 38.1664C10.6466 38.189 10.9256 38.1893 11.1932 38.2449C11.3667 38.281 11.5251 38.3948 11.6858 38.482C11.7109 38.4957 11.7301 38.5598 11.7195 38.5886C11.7088 38.6178 11.6553 38.6526 11.625 38.6488C11.567 38.6417 11.5112 38.6113 11.4564 38.5863C11.3085 38.5188 11.1641 38.3988 11.0138 38.3914C10.7452 38.3782 10.4658 38.4017 10.2046 38.466C9.86349 38.5499 9.54206 38.7003 9.27472 38.9422C9.25122 38.9635 9.22951 38.9938 9.20167 39.0021C9.03033 39.0531 8.9894 39.1934 8.95915 39.3429C8.95073 39.3845 8.95529 39.4484 8.93027 39.4639C8.71557 39.5967 8.76322 39.7979 8.78792 39.9896C8.81239 40.1796 8.88747 40.3655 8.65415 40.5014C8.54652 40.5641 8.4806 40.6984 8.38563 40.8124C9.21992 41.371 10.0452 41.9291 10.9321 42.3618C11.0171 42.1573 11.0693 41.9663 11.1694 41.805C11.357 41.5029 11.5653 41.2061 11.864 41.0037C12.3814 40.653 12.8889 40.2898 13.5427 40.201C13.9995 40.1389 14.4461 40.0864 14.8963 40.2111C15.0907 40.265 15.2985 40.4711 15.2378 40.6825C15.2176 40.7528 15.1212 40.8309 15.0461 40.8489C14.9384 40.8747 14.8881 40.7891 14.8967 40.6796C14.9117 40.4866 14.7603 40.4335 14.6284 40.4142C14.3896 40.3793 14.1434 40.3553 13.9037 40.3735C13.4668 40.4066 13.0627 40.5709 12.6696 40.7573C12.6294 40.7763 12.5999 40.8179 12.5605 40.8535C12.7358 40.8752 12.8945 40.8866 13.0495 40.9167C13.1749 40.941 13.1893 41.0415 13.109 41.114C13.062 41.1564 12.9508 41.1668 12.8858 41.1435C12.5692 41.0299 12.2893 41.1066 12.0333 41.2932C11.9149 41.3794 11.8321 41.5181 11.7089 41.5933C11.4243 41.7672 11.3992 42.0368 11.4036 42.3207C11.4081 42.6105 11.6426 42.7319 11.8516 42.8225C12.0199 42.8954 12.2044 42.8362 12.3368 42.6587C12.3792 42.6018 12.5432 42.5706 12.6046 42.607C12.7154 42.6725 12.6673 42.7857 12.5795 42.8633C12.5046 42.9296 12.4247 42.9903 12.3141 43.0801C12.6878 43.2012 13.0348 43.3218 13.3868 43.4256C13.8124 43.5512 14.2426 43.6605 14.6697 43.7811C14.7902 43.8151 14.9038 43.8764 15.0255 43.9032C15.355 43.9757 15.6874 44.0353 16.0182 44.1019C16.3895 44.1767 16.7604 44.2537 17.1667 44.3369C17.1399 43.7223 17.1144 43.1349 17.0888 42.5475C16.9511 42.668 16.8629 42.8036 16.759 42.9259C16.5892 43.1256 16.4833 43.3798 16.1694 43.4435C15.8999 43.4983 15.658 43.5293 15.4398 43.3377C15.2306 43.1541 15.1693 42.73 15.3308 42.4523C15.4856 42.1859 15.638 41.9045 15.8514 41.689C16.1718 41.3656 16.5382 41.086 16.8981 40.8045C17.0275 40.7033 17.1122 40.6174 17.1111 40.4369C17.1036 39.2604 17.1081 38.0839 17.1084 36.9073C17.1084 36.8493 17.1055 36.7912 17.1046 36.7332C17.0972 36.2844 17.0843 35.8356 17.0846 35.3869C17.0848 35.0073 17.1502 34.6206 17.0966 34.2501C17.0293 33.7845 17.1281 33.3217 17.0445 32.8566C16.996 32.587 17.0646 32.2974 17.071 32.0165C17.0777 31.7259 17.0828 31.4345 17.07 31.1443C17.0597 30.9117 17.003 30.6805 16.9994 30.4482C16.9894 29.8001 16.9967 29.1517 16.9961 28.5034C16.996 28.4489 16.9883 28.3945 16.9833 28.33C16.9429 28.3396 16.9112 28.3376 16.8957 28.3524C16.6895 28.5509 16.4768 28.7438 16.2837 28.9546C16.1128 29.141 15.8915 29.2945 15.8517 29.5807C15.8439 29.6364 15.7357 29.6781 15.6738 29.7263C15.6596 29.7122 15.6454 29.6982 15.6311 29.6841C15.6311 29.7854 15.6311 29.8867 15.6311 29.9951C15.7892 30.0385 15.9459 30.0796 16.1012 30.1252C16.1526 30.1403 16.2372 30.1614 16.2418 30.1901C16.2503 30.2424 16.2173 30.3064 16.189 30.3587C16.1091 30.5066 15.9907 30.6425 15.9487 30.7995C15.9114 30.9386 15.8388 30.9843 15.7247 31.0105C15.6011 31.0389 15.477 31.0767 15.3517 31.0832C15.2009 31.091 15.0261 31.115 14.9018 31.0524C14.6494 30.9253 14.5924 30.6134 14.734 30.3548C15.0673 29.746 15.4976 29.2048 15.9464 28.6817C16.2385 28.3413 16.5826 28.0458 16.8951 27.7221C16.9497 27.6655 16.9903 27.5695 16.9915 27.4911C17.0006 26.8707 16.9989 26.2501 17 25.6296C17.0006 25.3464 17.0001 25.0632 17.0001 24.8017C15.4378 25.1986 13.892 25.5913 12.3294 25.9883C12.5662 26.0767 12.7875 26.1462 12.9976 26.2406C13.3908 26.4173 13.7739 26.6166 14.1682 26.7907C14.4116 26.8982 14.5282 27.0377 14.5336 27.3057C14.542 27.7201 14.549 28.1346 14.5553 28.5491C14.5652 29.2059 14.5845 29.8628 14.5793 30.5195C14.5763 30.8955 14.5197 31.2709 14.5114 31.6471C14.5045 31.9542 14.5381 32.2619 14.5454 32.5696C14.5616 33.2526 14.5704 33.9359 14.5869 34.619C14.5932 34.8815 14.6191 35.1436 14.6239 35.4061C14.6305 35.7594 14.6405 36.1139 14.6197 36.4661C14.6058 36.7018 14.6196 36.7561 14.8583 36.8149C14.9808 36.8451 15.1231 36.8427 15.2233 36.9068C15.4574 37.0567 15.6799 37.2281 15.8914 37.4091C16.1503 37.6307 16.2205 37.9159 16.0402 38.1932C15.8146 38.5401 15.6205 38.9162 15.2975 39.1915C15.255 39.2277 15.191 39.2387 15.137 39.2614C15.1402 39.19 15.1324 39.116 15.1489 39.0478C15.1856 38.8963 15.2977 38.7289 15.1604 38.5981C14.9441 38.3923 14.7177 38.1839 14.4612 38.0363C13.9617 37.7491 13.3957 37.7256 12.8336 37.716C12.8077 37.7155 12.7818 37.7149 12.7561 37.717C12.7306 37.719 12.7055 37.7244 12.6533 37.7325C13.1338 37.9098 13.5651 38.1067 13.8751 38.4919C14.0762 38.7418 14.2577 38.9876 14.2324 39.352C14.2169 39.5758 14.007 39.8816 13.7616 39.9636C13.6316 40.0071 13.5175 39.9156 13.4836 39.8056C13.4527 39.7052 13.5436 39.6597 13.6514 39.6134C13.7569 39.5681 13.886 39.4191 13.8862 39.3154C13.887 38.9093 13.6259 38.6217 13.3368 38.3818C13.1277 38.2082 12.8657 38.1266 12.5952 38.0466C12.0842 37.8954 11.5814 37.8452 11.0366 37.9495ZM6.33241 29.4719C6.18193 29.5597 6.02634 29.6398 5.88211 29.7368C5.62718 29.9083 5.39163 30.1005 5.19816 30.3459C4.88978 30.7369 4.62987 31.1553 4.46504 31.6245C4.31831 32.0422 4.19653 32.4688 4.06851 32.8929C4.04063 32.9852 4.03304 33.0837 4.01486 33.1864C4.22759 32.9067 4.41341 32.6393 4.62733 32.3966C4.68409 32.3322 4.86856 32.2906 4.92208 32.3319C5.03322 32.4179 4.9032 32.4833 4.84276 32.5604C4.66039 32.7932 4.48858 33.0351 4.32614 33.2823C4.10152 33.6241 4.11233 34.0166 4.11515 34.4034C4.11815 34.8137 4.25753 35.1642 4.58439 35.4294C4.61042 35.4505 4.63395 35.5237 4.62304 35.5336C4.53304 35.6156 4.45134 35.7366 4.29941 35.6497C4.24324 35.6176 4.18648 35.5865 4.10583 35.5415C4.26309 36.1015 4.6669 36.3907 5.163 36.6377C5.02915 36.733 4.94122 36.7956 4.8172 36.8838C5.02417 37.1215 5.23929 37.3729 5.46044 37.619C5.51039 37.6745 5.57551 37.7243 5.64351 37.7545C6.08669 37.9518 6.53928 38.1016 7.0357 37.9912C7.52693 37.882 7.99225 37.7184 8.31279 37.3021C8.41164 37.1737 8.46086 37.0081 8.54168 36.8646C8.74589 36.5018 8.6566 36.0282 8.34122 35.7611C8.29824 35.7247 8.30222 35.6329 8.28446 35.5667C8.35698 35.5496 8.45418 35.4939 8.49786 35.5219C8.71526 35.6611 8.92214 35.8354 8.94862 36.1082C8.99816 36.6186 8.91554 37.107 8.58326 37.522C8.25348 37.9338 7.80645 38.143 7.29871 38.2517C7.32261 38.2633 7.34864 38.2802 7.37717 38.2886C7.40758 38.2975 7.44043 38.3026 7.47209 38.3021C8.1283 38.2911 8.64331 38.0172 9.00702 37.4689C9.06821 37.3767 9.12062 37.2768 9.16366 37.1748C9.24834 36.974 9.36776 36.7746 9.39274 36.5651C9.43333 36.2246 9.41573 35.8764 9.41156 35.5316C9.40424 34.9275 9.20923 34.3943 8.78825 33.952C8.62957 33.7853 8.43953 33.6918 8.20476 33.6921C8.10304 33.6923 8.02525 33.6997 7.98783 33.8206C7.95934 33.9126 7.80965 33.9144 7.73919 33.835C7.65346 33.7384 7.74285 33.4405 7.87671 33.433C8.07163 33.4223 8.28237 33.4163 8.46254 33.4779C8.85323 33.6115 9.07999 33.9436 9.29967 34.2721C9.32753 34.3138 9.36446 34.3494 9.41144 34.4045C9.42714 34.3499 9.43735 34.3316 9.4369 34.3136C9.42108 33.6701 9.39042 33.0267 9.39209 32.3833C9.39335 31.8946 9.13899 31.5456 8.83084 31.2167C8.74642 31.1266 8.65192 31.0329 8.54285 30.9819C8.33969 30.8868 8.12623 30.8084 7.91014 30.7476C7.58668 30.6566 7.25844 30.5441 6.94188 30.7922C6.89934 30.8255 6.78858 30.7938 6.72338 30.7628C6.70408 30.7536 6.70838 30.6161 6.7437 30.5852C6.85795 30.4849 6.98546 30.3955 7.11917 30.3227C7.37936 30.181 7.67376 30.1318 7.95945 30.133C8.31134 30.1346 8.66462 30.191 9.01376 30.2461C9.13734 30.2656 9.25051 30.351 9.39443 30.4186C9.41949 29.1471 9.44376 27.9156 9.46819 26.6764C9.43008 26.6889 9.39507 26.7037 9.35858 26.7118C8.72091 26.8541 8.0825 26.9932 7.44544 27.1382C7.0569 27.2266 6.66921 27.3193 6.28323 27.4183C5.92451 27.5103 5.56831 27.6122 5.21152 27.7116C5.03579 27.7605 4.85876 27.8065 4.68668 27.8664C4.33929 27.9874 3.93819 27.9226 3.62763 28.1726C3.61744 28.1808 3.58028 28.1481 3.56093 28.1535C3.41516 28.1938 3.21655 28.1421 3.18077 28.3764C3.13056 28.7051 3.07256 29.0326 3.02137 29.3612C2.99607 29.5235 2.96833 29.6865 2.95956 29.8502C2.93785 30.2551 2.894 30.6625 2.91911 31.0652C2.95056 31.5693 3.04118 32.0697 3.10816 32.5715C3.1285 32.7238 3.15513 32.8753 3.17888 33.0272C3.23611 32.7537 3.2452 32.4852 3.27042 32.2182C3.29428 31.9655 3.32565 31.7126 3.37077 31.463C3.4281 31.1457 3.49412 30.8295 3.57261 30.5169C3.62874 30.2933 3.70379 30.0735 3.78469 29.8574C3.85888 29.6592 3.9474 29.4659 4.03903 29.275C4.08927 29.1703 4.15269 29.0698 4.22615 28.9805C4.23826 28.9658 4.37847 29.014 4.38144 29.0416C4.39458 29.1633 4.39409 29.2726 4.30208 29.3961C4.13249 29.6236 3.98998 29.8811 3.88716 30.1459C3.78898 30.3988 3.7414 30.6745 3.69707 30.9443C3.62205 31.401 3.56706 31.8609 3.50383 32.3194C3.49688 32.3698 3.50291 32.4257 3.48279 32.4699C3.3463 32.7699 3.41152 33.068 3.46577 33.3812C3.49772 33.3563 3.52394 33.3465 3.52643 33.3325C3.57366 33.0658 3.61253 32.7975 3.6648 32.5319C3.71004 32.3019 3.76389 32.0733 3.82484 31.847C3.88677 31.617 3.99454 31.3946 4.02254 31.1617C4.05169 30.9192 4.16809 30.7179 4.27809 30.5259C4.48038 30.1729 4.72652 29.8425 4.97688 29.5201C5.33269 29.062 5.77636 28.7149 6.36569 28.6205C6.59593 28.5837 6.83799 28.5844 7.01072 28.8143C7.13962 28.9859 7.13941 29.1696 7.0546 29.3322C7.01518 29.4077 6.86076 29.4404 6.75276 29.4586C6.627 29.4799 6.49498 29.4639 6.33241 29.4719ZM29.5524 36.0632C29.7353 36.125 29.9251 36.1719 30.0999 36.2517C30.4921 36.4307 30.8705 36.6409 31.2662 36.8114C31.8533 37.0644 32.4291 37.3348 32.9633 37.6892C32.9948 37.7101 33.0905 37.6956 33.1065 37.6683C33.1995 37.5101 33.3291 37.3493 33.35 37.1776C33.3928 36.825 33.4197 36.4586 33.3705 36.1095C33.3045 35.6408 33.1648 35.1819 33.0474 34.7212C33.0092 34.5713 32.9551 34.4221 32.8848 34.2847C32.7628 34.0463 32.6039 33.8258 32.4936 33.5827C32.2096 32.9565 31.7013 32.496 31.3329 31.9435C31.0025 32.1929 30.6901 32.4387 30.258 32.5889C30.3054 32.517 30.323 32.4922 30.3387 32.4662C30.44 32.2989 30.317 32.1813 30.2297 32.0753C30.1558 31.9855 30.0467 31.9754 29.9309 32.0565C29.5993 32.2887 29.2554 32.5033 28.924 32.7356C28.6029 32.9605 28.2924 33.2004 27.9753 33.431C27.5845 33.7151 27.192 33.9971 26.7993 34.2786C26.691 34.3563 26.5785 34.428 26.4691 34.5041C26.2581 34.6509 26.048 34.7988 25.8452 34.9409C26.044 34.992 26.2436 35.0425 26.4427 35.0949C26.9827 35.2373 27.5235 35.3769 28.0619 35.5248C28.317 35.5949 28.5706 35.6732 28.8193 35.7632C29.0577 35.8495 29.2889 35.9557 29.5524 36.0632ZM19.2991 33.4609C19.4439 33.5134 19.5965 33.5507 19.732 33.621C20.3747 33.9545 21.0778 34.0705 21.777 34.1973C22.3359 34.2987 22.8983 34.3812 23.4588 34.4744C23.5821 34.4949 23.7036 34.5258 23.8262 34.5505C24.1226 34.6102 24.4207 34.6619 24.715 34.73C25.0873 34.8162 25.4375 34.9209 25.7939 34.6269C26.1388 34.3425 26.5365 34.1221 26.9456 33.8507C26.7081 33.8007 26.5119 33.7739 26.3247 33.7173C25.8313 33.5681 25.3412 33.4081 24.8511 33.2485C24.5612 33.1541 24.2658 33.0706 23.9867 32.95C23.3224 32.6629 22.6598 32.3699 22.0094 32.0527C21.6632 31.8838 21.3458 31.6563 21.0114 31.4623C20.9028 31.3993 20.7712 31.3024 20.668 31.3208C20.5174 31.3478 20.3806 31.4612 20.2419 31.5443C20.0438 31.6629 19.8539 31.7955 19.6522 31.9072C19.4169 32.0375 19.1707 32.1478 18.9332 32.2742C18.7618 32.3654 18.5944 32.4647 18.4299 32.568C18.305 32.6463 18.1876 32.7365 18.0273 32.8492C18.4651 33.056 18.8711 33.2477 19.2991 33.4609ZM25.0445 38.3801C24.7013 38.3008 24.3607 38.206 24.0141 38.146C23.4766 38.0529 22.9361 37.9741 22.3945 37.9089C22.177 37.8828 21.9495 37.9354 21.7335 37.9042C21.4923 37.8693 21.3145 37.9676 21.1349 38.0904C20.8264 38.3014 20.519 38.5138 20.2119 38.7269C20.0641 38.8295 19.9183 38.9348 19.7715 39.039C19.7788 39.0547 19.786 39.0704 19.7933 39.0861C19.8827 39.0724 19.9736 39.0408 20.0613 39.0482C20.5284 39.0873 20.997 39.1209 21.4604 39.188C21.6977 39.2224 21.9222 39.3362 22.1579 39.3906C22.6297 39.4995 23.0794 39.6597 23.5306 39.8381C23.8783 39.9755 24.2177 40.1223 24.5508 40.289C24.8099 40.4186 25.0814 40.5277 25.3272 40.6788C25.741 40.933 26.1388 41.2133 26.5552 41.4905C26.8022 41.3145 27.0953 41.1075 27.3865 40.8978C27.6428 40.7132 27.8952 40.5233 28.1527 40.3405C28.2944 40.2399 28.4465 40.1538 28.5853 40.0497C28.6127 40.0292 28.6237 39.9299 28.6034 39.9125C28.5252 39.8458 28.4334 39.7936 28.3428 39.7431C28.0608 39.5862 27.7813 39.4241 27.4929 39.2798C27.1544 39.1105 26.8103 38.9518 26.4632 38.8008C26.3091 38.7337 26.1423 38.6953 25.9804 38.6467C25.6801 38.5567 25.3792 38.4689 25.0445 38.3801ZM19.9276 44.5572C20.9574 44.5928 21.9706 44.4509 22.9829 44.3038C22.854 44.1688 22.7528 44.0384 22.628 43.9369C22.2639 43.6411 21.8972 43.3475 21.5183 43.0711C21.2515 42.8766 20.9728 42.6935 20.6819 42.5379C20.306 42.3368 19.914 42.1651 19.5263 41.9865C19.2581 41.8629 18.9913 41.7316 18.713 41.6352C18.3611 41.5133 17.9995 41.418 17.639 41.3231C17.5474 41.299 17.4441 41.3195 17.3392 41.3195C17.3392 41.9057 17.3375 42.4683 17.341 43.0309C17.3415 43.1247 17.3735 43.2183 17.3758 43.3123C17.3815 43.551 17.3748 43.79 17.3802 44.0287C17.3875 44.3522 17.2923 44.4078 17.7111 44.404C18.0038 44.4014 18.298 44.385 18.5889 44.4079C19.024 44.4423 19.4568 44.5059 19.9276 44.5572ZM20.7335 37.9878C20.7865 37.9507 20.8394 37.9135 20.9218 37.8557C20.4222 37.7787 19.9641 37.7082 19.5061 37.6376C19.0831 37.5724 18.6601 37.5072 18.2372 37.4418C18.2183 37.4388 18.1985 37.4364 18.1811 37.429C17.902 37.311 17.6231 37.1922 17.3317 37.0683C17.3317 38.1945 17.3317 39.3138 17.3317 40.4849C18.5448 39.7229 19.5839 38.8025 20.7335 37.9878ZM17.2709 26.9961C17.2709 27.0975 17.2709 27.199 17.2709 27.3347C18.7 26.0647 20.0887 24.8307 21.4773 23.5967C21.4674 23.5805 21.4575 23.5643 21.4476 23.5481C21.2681 23.6036 21.0901 23.6652 20.9087 23.7136C20.4107 23.8466 19.911 23.9732 19.4126 24.1046C19.3466 24.122 19.2857 24.1592 19.2194 24.1747C18.9983 24.2266 18.7743 24.2671 18.5541 24.3225C18.2032 24.4108 17.8559 24.5132 17.5043 24.5981C17.3498 24.6353 17.2664 24.6862 17.2694 24.8729C17.2807 25.5679 17.272 26.2633 17.2709 26.9961ZM14.3877 20.0452C14.3904 20.1046 14.3931 20.164 14.398 20.2688C14.4879 20.097 14.5428 19.962 14.623 19.8441C14.8957 19.4431 15.1598 19.0343 15.4599 18.6544C15.8416 18.1713 16.2543 17.7132 16.7472 17.3348C16.844 17.2605 16.984 17.1617 16.9913 17.0656C17.0196 16.6883 17.0029 16.3075 17.0029 15.8836C16.7875 15.8836 16.5906 15.8739 16.395 15.8862C16.1792 15.8997 15.9648 15.935 15.7495 15.9577C15.4542 15.989 15.1586 16.0174 14.8397 16.0493C14.8687 16.0859 14.8848 16.1111 14.9055 16.1315C15.1779 16.4 15.2499 16.7319 15.1204 17.0735C14.9633 17.4878 14.7509 17.8809 14.5687 18.2861C14.4934 18.4536 14.364 18.5886 14.3797 18.8075C14.4084 19.2061 14.3878 19.6082 14.3877 20.0452ZM16.194 42.5464C16.4441 42.6526 16.6802 42.5567 16.9107 42.4802C16.9781 42.4578 17.0577 42.3558 17.0635 42.2846C17.0909 41.9538 17.1002 41.621 17.1027 41.2889C17.1034 41.19 16.9558 41.1516 16.8665 41.2211C16.567 41.4541 16.2761 41.699 15.9673 41.9188C15.8298 42.0166 15.8434 42.1366 15.8951 42.234C15.9568 42.35 16.0733 42.4368 16.194 42.5464ZM19.1412 15.9921C19.0999 16.0003 19.0579 16.0181 19.0175 16.0151C18.5867 15.9833 18.1563 15.9463 17.7254 15.9155C17.6278 15.9085 17.5265 15.9347 17.431 15.9198C17.2788 15.8962 17.2511 15.9682 17.2605 16.0939C17.2704 16.2272 17.2776 16.3609 17.2811 16.4945C17.2845 16.6288 17.2818 16.7632 17.2818 16.944C17.9969 16.4825 18.7384 16.2268 19.5232 16.0794C19.4057 16.0539 19.2883 16.0284 19.1412 15.9921ZM14.4185 22.648C14.4185 22.8994 14.4185 23.1507 14.4185 23.4019C14.8554 23.299 15.2944 23.1956 15.7137 23.0969C15.488 23.0078 15.2448 22.9384 15.0291 22.8193C14.8111 22.6988 14.6204 22.5289 14.4185 22.3813C14.4185 22.4467 14.4185 22.5303 14.4185 22.648ZM2.584 29.2925C2.55985 29.5177 2.51948 29.7427 2.51616 29.9682C2.51291 30.1889 2.54551 30.4104 2.56623 30.6312C2.57518 30.7265 2.50766 30.8555 2.67198 30.8935C2.68074 30.8955 2.67311 30.9684 2.67311 31.0083C2.66044 30.1102 2.7352 29.2185 2.92583 28.3109C2.80373 28.3443 2.72085 28.367 2.65387 28.3853C2.63013 28.6875 2.60769 28.9729 2.584 29.2925ZM2.47586 28.9323C2.47586 28.751 2.47586 28.5698 2.47586 28.3886C2.40042 28.4235 2.33176 28.4751 2.32536 28.5334C2.29615 28.7999 2.26652 29.0685 2.27052 29.3358C2.27682 29.7574 2.30581 30.1789 2.33452 30.5999C2.34207 30.7107 2.38389 30.8191 2.40998 30.9286C2.42792 30.9263 2.44587 30.9239 2.46381 30.9215C2.43044 30.27 2.31235 29.6167 2.47586 28.9323ZM29.5087 48.9278C29.4351 49.1797 29.3758 49.4327 29.436 49.706C29.5452 49.1881 29.6516 48.6833 29.7525 48.2044C29.5894 48.3836 29.5403 48.6355 29.5087 48.9278ZM9.14697 24.6089C9.1448 24.6028 9.14365 24.5961 9.14004 24.5911C9.13822 24.5886 9.13009 24.5871 9.12795 24.5889C8.97449 24.7177 8.82135 24.8469 8.67321 24.9719C8.91148 24.9768 9.08879 24.8909 9.14697 24.6089ZM5.72951 18.3314C5.69551 18.32 5.63905 18.2903 5.63101 18.3001C5.55732 18.3902 5.49204 18.4872 5.39317 18.6258C5.58886 18.5927 5.63886 18.4615 5.72951 18.3314ZM4.15692 20.4271C4.15177 20.4047 4.14662 20.3822 4.14147 20.3597C4.12025 20.3912 4.09903 20.4227 4.07782 20.4543C4.09768 20.4517 4.11754 20.4492 4.15692 20.4271ZM20.0971 50.2998C20.1023 50.2961 20.1083 50.2929 20.1125 50.2882C20.1147 50.2858 20.1139 50.2806 20.1144 50.2767C20.0748 50.2737 20.0352 50.2707 19.9956 50.2677C19.9953 50.2795 19.9949 50.2912 19.9946 50.3029C20.0188 50.3029 20.043 50.3029 20.0971 50.2998ZM19.1003 31.6136C19.0732 31.6132 19.046 31.612 19.0192 31.6145C19.0174 31.6146 19.0184 31.6435 19.018 31.659C19.0426 31.6549 19.0672 31.6508 19.1003 31.6136ZM20.2033 50.2769C20.1938 50.2763 20.1844 50.2758 20.1749 50.2752C20.1794 50.2797 20.1839 50.2843 20.2033 50.2769Z" fill="#F1F3F4"/>
<path d="M0 30.0633C0.0188396 30.047 0.0542172 30.0494 0.0541793 30.0504C0.0478756 30.2155 0.0390336 30.3806 0.0151454 30.5476C7.97692e-08 30.3935 7.75829e-08 30.2374 0 30.0633Z" fill="#F1F3F4"/>
<path d="M7.86131e-08 29.5928C0.025299 29.5793 0.0505978 29.5788 0.0907096 29.5724C0.0765642 29.6078 0.0476059 29.6491 0.00932384 29.6739C7.74571e-08 29.6402 7.86131e-08 29.6229 7.86131e-08 29.5928Z" fill="#F1F3F4"/>
<path d="M12.7651 13.7947C12.783 13.7961 12.8009 13.7976 12.8319 13.8023C12.6714 13.888 12.5022 13.9823 12.3227 14.0492C12.1604 14.1098 11.9869 14.1405 11.8183 14.1844C11.8088 14.1664 11.7992 14.1485 11.7896 14.1305C11.8824 14.0691 11.9751 14.0077 12.0967 13.9505C12.3227 13.8736 12.5352 13.8151 12.6451 13.6044C12.7097 13.5484 12.7744 13.4923 12.8593 13.4528C12.9162 13.4461 12.9528 13.4229 12.9895 13.3997C12.9895 13.3997 12.9913 13.3994 13.0026 13.4147C13.0447 13.3941 13.0756 13.3584 13.1065 13.3226C13.1065 13.3226 13.1023 13.325 13.1013 13.3228C13.1875 13.2901 13.2747 13.2596 13.3814 13.2348C13.4209 13.2562 13.4409 13.2719 13.4609 13.2875C13.2203 13.437 12.9796 13.5864 12.7209 13.7513C12.6848 13.7819 12.6667 13.797 12.6486 13.8121C12.6527 13.8201 12.6567 13.8281 12.6607 13.8361C12.6955 13.8223 12.7303 13.8085 12.7651 13.7947Z" fill="#F1F3F4"/>
<path d="M20.018 49.7185C20.0238 49.7107 20.0297 49.7028 20.0261 49.6836C20.1826 49.6516 20.3484 49.6303 20.5144 49.6103C20.5802 49.6024 20.6462 49.5971 20.735 49.6079C21.0076 49.6012 21.2573 49.5782 21.5065 49.5503C21.5169 49.5491 21.5222 49.5022 21.5298 49.4766C21.707 49.4704 21.8842 49.4634 22.0615 49.4601C22.0713 49.4599 22.0817 49.4903 22.0964 49.5279C22.0446 49.5533 21.9825 49.5438 21.9337 49.5649C21.8836 49.5865 21.8464 49.6381 21.8036 49.6766C21.8036 49.6766 21.8055 49.6732 21.8068 49.6747C21.6074 49.682 21.4062 49.6807 21.2062 49.696C21.0509 49.7079 20.8971 49.7405 20.7234 49.7563C20.6004 49.7434 20.4967 49.7373 20.3929 49.7328C20.268 49.7273 20.143 49.7232 20.018 49.7185Z" fill="#F1F3F4"/>
<path d="M29.4288 50.7825C29.3985 50.826 29.3761 50.8561 29.3502 50.9038C29.3319 50.9107 29.304 50.8997 29.3042 50.8892C29.3095 50.6051 29.3152 50.3209 29.3283 50.0371C29.3301 49.9986 29.3716 49.962 29.4368 49.9383C29.4368 50.2152 29.4368 50.4921 29.4288 50.7825Z" fill="#F1F3F4"/>
<path d="M21.9686 50.3694C21.9562 50.3502 21.9571 50.3288 21.9571 50.2913C22.061 50.2157 22.1658 50.1562 22.2902 50.1016C22.3098 50.1066 22.3205 50.1199 22.3205 50.1199C22.2077 50.2023 22.0948 50.2847 21.9686 50.3694Z" fill="#F1F3F4"/>
<path d="M3.89328 20.788C3.84764 20.8824 3.802 20.9767 3.75636 21.0711C3.73032 21.056 3.70429 21.041 3.67825 21.0259C3.73526 20.9432 3.79226 20.8606 3.86665 20.7784C3.88403 20.7789 3.89328 20.788 3.89328 20.788Z" fill="#F1F3F4"/>
<path d="M21.7924 50.2965C21.7101 50.3471 21.6132 50.395 21.5014 50.4429C21.5835 50.3932 21.6806 50.3435 21.7924 50.2965Z" fill="#F1F3F4"/>
<path d="M3.87938 20.7744C3.92888 20.6756 3.98303 20.5812 4.03719 20.4869C4.0573 20.5001 4.0774 20.5134 4.09751 20.5267C4.03642 20.6087 3.97533 20.6907 3.90376 20.7804C3.89328 20.788 3.88403 20.7789 3.87938 20.7744Z" fill="#F1F3F4"/>
<path d="M28.8258 47.9673C28.8428 47.9323 28.8598 47.8972 28.887 47.8562C28.9251 47.8497 28.9529 47.8492 28.9946 47.8488C28.9867 47.8879 28.9648 47.9268 28.9159 47.9676C28.8678 47.9687 28.8468 47.968 28.8258 47.9673Z" fill="#F1F3F4"/>
<path d="M3.55931 21.2308C3.58808 21.1785 3.61685 21.1262 3.64562 21.0739C3.6633 21.0846 3.68098 21.0953 3.69866 21.106C3.66881 21.152 3.63895 21.198 3.59065 21.2438C3.5722 21.2435 3.55931 21.2308 3.55931 21.2308Z" fill="#F1F3F4"/>
<path d="M4.14716 20.4369C4.11754 20.4492 4.09768 20.4517 4.07782 20.4543C4.09903 20.4227 4.12025 20.3912 4.14147 20.3597C4.14662 20.3822 4.15177 20.4047 4.14716 20.4369Z" fill="#F1F3F4"/>
<path d="M21.3257 50.5031C21.301 50.5274 21.2688 50.5434 21.2236 50.5531C21.2464 50.5294 21.2824 50.5121 21.3257 50.5031Z" fill="#F1F3F4"/>
<path d="M21.4722 50.4446C21.4656 50.4688 21.4479 50.4924 21.4181 50.5109C21.4244 50.4852 21.4428 50.4646 21.4722 50.4446Z" fill="#F1F3F4"/>
<path d="M22.3044 50.1C22.3227 50.0874 22.3463 50.0813 22.37 50.0752C22.3608 50.0874 22.3516 50.0997 22.3315 50.1159C22.3205 50.1199 22.3098 50.1066 22.3044 50.1Z" fill="#F1F3F4"/>
<path d="M24.007 44.124C23.9928 44.141 23.9691 44.1506 23.9454 44.1602C23.9493 44.1459 23.9532 44.1316 23.9671 44.1106C23.9839 44.108 23.9907 44.1123 24.007 44.124Z" fill="#F1F3F4"/>
<path d="M3.57834 21.2501C3.5714 21.2613 3.55832 21.2659 3.54524 21.2705C3.54465 21.2614 3.54406 21.2523 3.55139 21.237C3.55931 21.2308 3.5722 21.2435 3.57834 21.2501Z" fill="#F1F3F4"/>
<path d="M29.0399 47.7789C29.0464 47.7865 29.0455 47.801 29.0335 47.8192C29.0258 47.8106 29.0292 47.7981 29.0399 47.7789Z" fill="#F1F3F4"/>
<path d="M34.806 22.4924C35.0033 22.2005 35.1865 21.916 35.3809 21.6394C35.4214 21.5819 35.5034 21.5537 35.5663 21.512C35.5946 21.5682 35.6346 21.6215 35.6491 21.681C35.6907 21.8518 35.6851 22.0414 35.8838 22.133C35.9939 22.1837 36.1093 22.2342 36.2011 22.3104C36.3576 22.4401 36.4961 22.5915 36.6452 22.7305C36.6816 22.7644 36.7353 22.8149 36.7718 22.8081C37.0131 22.7633 37.1516 22.9775 37.2415 23.0918C37.3962 23.2885 37.6651 23.2823 37.7945 23.5192C37.9096 23.73 38.1417 23.8756 38.3167 24.0553C38.4441 24.1861 38.3946 24.3965 38.2287 24.6022C38.0727 24.7957 37.9479 25.0143 37.7936 25.2094C37.6779 25.3556 37.5415 25.4867 37.4065 25.6163C37.0492 25.9594 36.6907 26.2966 36.4231 26.7243C36.2884 26.9396 36.0775 27.1068 35.9044 27.2987C35.7622 27.4563 35.6249 27.6183 35.4722 27.7936C35.2673 27.7992 35.1669 27.6592 35.2525 27.4402C35.3146 27.2812 35.3345 27.1781 35.1453 27.0487C34.7842 26.8019 34.4655 26.4933 34.1299 26.2094C33.7366 25.8766 33.3438 25.5431 32.9512 25.2093C32.7282 25.0197 32.6926 24.8848 32.8945 24.6277C33.1529 24.2986 33.4596 24.0079 33.7353 23.6918C34.0318 23.352 34.3148 23.0006 34.608 22.6578C34.66 22.597 34.7327 22.5539 34.806 22.4924Z" fill="#F1F3F4"/>
<path d="M28.8163 47.9772C28.8468 47.968 28.8678 47.9687 28.9045 47.971C28.7821 48.2734 28.6535 48.5792 28.5035 48.874C28.3011 49.272 28.0746 49.6577 27.8748 50.057C27.8086 50.1893 27.7937 50.3471 27.7542 50.493C27.741 50.5415 27.7355 50.5979 27.7065 50.6349C27.6692 50.6824 27.6116 50.7141 27.5628 50.7525C27.5318 50.6877 27.466 50.617 27.4758 50.559C27.5268 50.2562 27.6523 49.9851 27.8238 49.7254C28.0454 49.3899 28.2303 49.0301 28.4325 48.6816C28.4842 48.5927 28.5418 48.5073 28.6155 48.4035C28.643 48.3578 28.6516 48.3289 28.6602 48.3C28.709 48.1957 28.7579 48.0914 28.8163 47.9772Z" fill="#F1F3F4"/>
<path d="M28.6491 48.3054C28.6516 48.3289 28.643 48.3578 28.6231 48.3909C28.6205 48.367 28.6293 48.339 28.6491 48.3054Z" fill="#F1F3F4"/>
<path d="M20.3703 9.03132C20.9756 8.59776 21.5562 8.1354 22.0528 7.57637C22.363 7.2271 22.7219 6.90716 22.9648 6.51563C23.2456 6.06304 23.5541 5.58796 23.4414 4.9932C23.4278 4.92142 23.4887 4.80397 23.5518 4.75553C23.7005 4.64131 23.8139 4.70493 23.811 4.88982C23.8074 5.11787 23.7709 5.33709 23.7207 5.56475C23.561 6.28844 23.0898 6.79601 22.6161 7.29963C22.1782 7.76505 21.7458 8.24372 21.1981 8.59193C20.955 8.74643 20.7137 8.90359 20.4478 9.05541C20.4061 9.04462 20.3882 9.03797 20.3703 9.03132Z" fill="#F1F3F4"/>
<path d="M13.473 13.2809C13.4409 13.2719 13.4209 13.2562 13.3954 13.2325C14.2178 12.7424 15.0458 12.2606 15.8971 11.7804C15.9286 11.7939 15.9368 11.8057 15.945 11.8175C15.8172 11.896 15.6896 11.9749 15.5615 12.0527C15.0728 12.3497 14.5856 12.6491 14.0945 12.9418C13.8959 13.0602 13.6885 13.1639 13.473 13.2809Z" fill="#F1F3F4"/>
<path d="M15.9596 11.8177C15.9368 11.8057 15.9286 11.7939 15.9106 11.7771C16.2004 11.5863 16.499 11.3988 16.7999 11.2151C17.1452 11.0042 17.4924 10.7964 17.8393 10.5883C17.8546 10.5792 17.8759 10.58 17.9074 10.589C17.9212 10.6196 17.922 10.6373 17.9227 10.6551C17.5522 10.8834 17.1836 11.1152 16.8103 11.3389C16.5348 11.504 16.2531 11.6586 15.9596 11.8177Z" fill="#F1F3F4"/>
<path d="M20.3598 9.03891C20.3882 9.03797 20.4061 9.04462 20.4331 9.05496C20.152 9.39009 19.7431 9.55415 19.3749 9.79336C19.3427 9.77508 19.3292 9.76548 19.3157 9.75588C19.5927 9.5641 19.8696 9.37207 20.1469 9.18075C20.2135 9.13479 20.2818 9.09119 20.3598 9.03891Z" fill="#F1F3F4"/>
<path d="M19.3036 9.76236C19.3292 9.76548 19.3427 9.77508 19.3615 9.79616C19.0121 10.0109 18.6575 10.2142 18.2822 10.4116C18.2615 10.4057 18.2498 10.3922 18.2498 10.3922C18.597 10.1844 18.9443 9.97664 19.3036 9.76236Z" fill="#F1F3F4"/>
<path d="M17.9363 10.651C17.922 10.6373 17.9212 10.6196 17.9216 10.5885C18.0241 10.5192 18.1254 10.4633 18.2382 10.3998C18.2498 10.3922 18.2615 10.4057 18.2673 10.4125C18.1653 10.4951 18.0576 10.571 17.9363 10.651Z" fill="#F1F3F4"/>
<path d="M16.5924 49.9062C16.2121 49.8433 15.8319 49.7798 15.4514 49.7175C15.2177 49.6793 14.9816 49.653 14.7502 49.6039C14.2825 49.5047 13.8154 49.4009 13.3517 49.2847C13.0745 49.2153 12.7998 49.1302 12.5316 49.0317C12.1664 48.8975 11.8073 48.7468 11.4478 48.5977C11.0715 48.4415 10.7007 48.2718 10.3224 48.1207C9.92539 47.9623 9.52676 47.8055 9.12093 47.672C8.45457 47.4529 7.78552 47.2399 7.10988 47.0521C6.85546 46.9814 6.58006 46.9809 6.31327 46.9612C5.87998 46.9292 5.44614 46.8996 5.012 46.8872C4.89139 46.8838 4.76972 46.9478 4.64711 46.9743C4.53118 46.9994 4.4139 47.0218 4.29605 47.032C4.26491 47.0346 4.20858 46.9925 4.2017 46.9624C4.19426 46.9297 4.22281 46.8792 4.25007 46.8499C4.40104 46.6877 4.61506 46.7021 4.80335 46.6925C5.22315 46.671 5.6455 46.6706 6.06548 46.6903C6.44519 46.708 6.82973 46.7326 7.20016 46.8108C7.66139 46.9083 8.11164 47.0596 8.56403 47.1962C8.79492 47.266 9.02105 47.352 9.24768 47.4352C9.56568 47.5519 9.88521 47.6653 10.1985 47.7939C10.5429 47.9352 10.8782 48.0987 11.2225 48.2405C11.614 48.4017 12.0107 48.5502 12.4057 48.7029C12.7867 48.8501 13.1641 49.0082 13.5512 49.1371C13.8056 49.2219 14.0735 49.2675 14.3369 49.3232C14.6317 49.3856 14.9288 49.4371 15.224 49.4982C15.3597 49.5263 15.4924 49.5687 15.6277 49.5993C15.7074 49.6174 15.7895 49.6252 15.891 49.6548C15.975 49.6625 16.0387 49.6531 16.1023 49.6437C16.1673 49.6546 16.2324 49.6656 16.315 49.6913C16.3575 49.7098 16.3825 49.7136 16.4074 49.7175C16.6158 49.7439 16.8242 49.7703 17.0541 49.8149C17.2231 49.844 17.3712 49.8496 17.5176 49.8687C17.5763 49.8764 17.631 49.914 17.6876 49.938C17.6702 49.9401 17.6529 49.9421 17.6175 49.9327C17.5782 49.9268 17.5569 49.9324 17.5355 49.9381C17.3634 49.9402 17.1912 49.9423 17.0039 49.9251C16.9636 49.9056 16.9386 49.9054 16.9135 49.9051C16.8168 49.9064 16.7201 49.9077 16.6064 49.9077C16.5894 49.9064 16.5924 49.9062 16.5924 49.9062Z" fill="#F1F3F4"/>
<path d="M17.7037 49.9434C17.631 49.914 17.5763 49.8764 17.5176 49.8687C17.3712 49.8496 17.2231 49.844 17.0709 49.8187C17.4423 49.8131 17.8184 49.8301 18.1945 49.8284C18.558 49.8267 18.9214 49.8058 19.3031 49.8114C19.3206 49.8566 19.3199 49.8837 19.3192 49.9109C19.2992 49.9238 19.2792 49.948 19.2592 49.9481C18.7461 49.9498 18.2329 49.9491 17.7037 49.9434Z" fill="#F1F3F4"/>
<path d="M20.0035 49.7157C20.143 49.7232 20.268 49.7273 20.3929 49.7328C20.4967 49.7373 20.6004 49.7434 20.708 49.763C20.3045 49.8112 19.897 49.8452 19.4895 49.8791C19.487 49.8553 19.4845 49.8314 19.482 49.8075C19.651 49.7759 19.82 49.7444 20.0035 49.7157Z" fill="#F1F3F4"/>
<path d="M16.0885 49.6402C16.0387 49.6531 15.975 49.6625 15.9076 49.6579C15.9608 49.6415 16.0177 49.6391 16.0885 49.6402Z" fill="#F1F3F4"/>
<path d="M19.3379 49.9111C19.3199 49.8837 19.3206 49.8566 19.3209 49.8158C19.3719 49.8022 19.4233 49.8022 19.4747 49.8022C19.4796 49.8193 19.4846 49.8364 19.4895 49.8535C19.4452 49.8728 19.4009 49.8921 19.3379 49.9111Z" fill="#F1F3F4"/>
<path d="M17.5408 49.9453C17.5569 49.9324 17.5782 49.9268 17.6044 49.9296C17.5882 49.9429 17.5672 49.9477 17.5408 49.9453Z" fill="#F1F3F4"/>
<path d="M2.9953 26.285C3.06297 26.0625 3.11881 25.8355 3.20075 25.6183C3.37433 25.1584 3.55909 24.7025 3.74482 24.2472C3.79178 24.1321 3.8471 24.0158 3.92226 23.9184C3.97299 23.8526 4.06524 23.8188 4.16998 23.8007C3.65874 24.59 3.40012 25.4709 3.07655 26.3421C3.03895 26.3306 3.01712 26.3078 2.9953 26.285Z" fill="#F1F3F4"/>
<path d="M2.87867 26.787C2.90143 26.693 2.92418 26.599 2.94694 26.505C2.96787 26.5094 2.98881 26.5138 3.00974 26.5182C3.05264 26.6315 3.05609 26.7395 2.92194 26.8197C2.8972 26.7986 2.88908 26.7915 2.87867 26.787Z" fill="#F1F3F4"/>
<path d="M2.98402 26.2919C3.01712 26.3078 3.03895 26.3306 3.07032 26.3557C3.06713 26.4071 3.0544 26.4561 3.03231 26.4944C3.00134 26.4556 2.97972 26.4276 2.95811 26.3996C2.96299 26.366 2.96787 26.3324 2.98402 26.2919Z" fill="#F1F3F4"/>
<path d="M2.95465 26.4157C2.97972 26.4276 3.00134 26.4556 3.01746 26.4997C2.99171 26.4878 2.97145 26.4598 2.95465 26.4157Z" fill="#F1F3F4"/>
<path d="M2.87657 26.7976C2.88908 26.7915 2.8972 26.7986 2.90618 26.8159C2.89771 26.8183 2.88609 26.8133 2.87657 26.7976Z" fill="#F1F3F4"/>
</svg>
