<svg width="802" height="1234" viewBox="0 0 24 36" fill="none" xmlns="http://www.w3.org/2000/svg">
<path d="M8.06407 35.963C7.98914 35.963 7.9142 35.963 7.8356 35.9567C7.80638 35.9247 7.78191 35.8978 7.75509 35.8735C7.67184 35.7979 7.60015 35.7211 7.62054 35.5921C7.64826 35.4167 7.71349 35.256 7.84634 35.1429C8.07721 34.9463 8.32151 34.7653 8.56222 34.5805C8.61583 34.5393 8.66154 34.5018 8.64327 34.4248C8.5795 34.156 8.64719 33.8933 8.69747 33.6337C8.73044 33.4635 8.80488 33.3007 8.8667 33.1368C8.92871 32.9724 8.9871 32.8052 9.06695 32.6495C9.17366 32.4413 9.29805 32.2421 9.41779 32.0408C9.48043 31.9355 9.54439 31.8302 9.61657 31.7314C9.74487 31.5558 9.87736 31.3831 10.0128 31.2129C10.144 31.0481 10.2751 30.8826 10.4169 30.7271C10.6378 30.485 10.8635 30.247 11.0953 30.0153C11.2509 29.8597 11.4148 29.711 11.5855 29.5721C11.7707 29.4214 11.964 29.2797 12.1613 29.1452C12.3281 29.0315 12.5057 28.9336 12.6862 28.8274C12.7587 28.7788 12.8236 28.7314 12.8947 28.6817C12.9063 28.6724 12.9116 28.6654 12.9169 28.6583C12.9033 28.6618 12.8897 28.6653 12.8679 28.6697C12.7995 28.7049 12.7393 28.7391 12.6704 28.7743C12.6389 28.7793 12.6161 28.7832 12.5849 28.7855C12.5207 28.8125 12.4649 28.8411 12.409 28.8706C12.409 28.8715 12.4072 28.871 12.4009 28.8707C12.384 28.8821 12.3734 28.894 12.356 28.9074C12.3398 28.909 12.3304 28.909 12.3167 28.9042C12.2918 28.9094 12.2711 28.9194 12.2469 28.937C12.0949 29.0061 11.9475 29.0696 11.7981 29.1283C11.5373 29.2308 11.2916 29.3563 11.0787 29.5439C11.0124 29.6023 10.9468 29.7294 10.8154 29.6016C10.8511 29.5631 10.8807 29.5113 10.9254 29.4864C11.1989 29.3344 11.474 29.185 11.7525 29.0423C11.8781 28.9778 12.0127 28.9307 12.1481 28.878C12.1696 28.873 12.1862 28.8658 12.2109 28.8594C12.2529 28.8445 12.2868 28.8287 12.3268 28.8138C12.3448 28.8048 12.3568 28.795 12.3767 28.7831C12.4382 28.7598 12.4917 28.7388 12.5538 28.7168C12.6493 28.6742 12.7362 28.6325 12.8232 28.5909C12.8217 28.5866 12.8202 28.5823 12.8187 28.5779C12.6946 28.6156 12.5705 28.6533 12.4384 28.691C12.3642 28.7162 12.298 28.7413 12.2275 28.7644C12.2093 28.7687 12.1954 28.7749 12.1723 28.7794C12.0452 28.8065 11.9278 28.837 11.8094 28.8635C11.6326 28.9031 11.4534 28.9327 11.2786 28.9794C11.0238 29.0476 10.7718 29.1267 10.5189 29.2023C10.4203 29.2318 10.3226 29.2643 10.2245 29.2954C10.0979 29.3356 9.96954 29.3712 9.84523 29.4175C9.73057 29.4603 9.62115 29.5169 9.50781 29.5634C9.31212 29.6438 9.10655 29.7049 8.92091 29.8037C8.67052 29.937 8.42934 30.09 8.19503 30.2504C8.00865 30.378 7.8292 30.5192 7.66395 30.673C7.52031 30.8066 7.40964 30.9755 7.26761 31.1112C7.17594 31.1988 7.12447 31.2928 7.1067 31.4131C7.1031 31.4374 7.0882 31.46 7.07966 31.4838C7.05156 31.562 7.00034 31.6014 6.88729 31.5852C6.8982 31.5047 6.88288 31.4103 6.92283 31.3581C7.11637 31.1054 7.30956 30.8491 7.5325 30.6234C7.72402 30.4294 7.94872 30.2654 8.1717 30.1063C8.32583 29.9964 8.5002 29.9139 8.66876 29.8253C8.89081 29.7085 9.10956 29.5817 9.34156 29.4888C9.61711 29.3784 9.90385 29.2949 10.1882 29.2079C10.529 29.1037 10.8725 29.0087 11.2144 28.9084C11.3206 28.8772 11.4255 28.8417 11.531 28.8081C11.5058 28.783 11.4847 28.7757 11.4654 28.7789C11.2725 28.8111 11.0808 28.8524 10.8869 28.8763C10.7095 28.8981 10.53 28.9042 10.3512 28.9122C10.2371 28.9173 10.1222 28.9078 10.0083 28.9147C9.86343 28.9233 9.71923 28.9532 9.57469 28.9537C9.32341 28.9546 9.07213 28.9364 8.82075 28.933C8.62208 28.9304 8.42327 28.9407 8.22453 28.9405C7.92983 28.9401 7.63513 28.9355 7.34043 28.9326C7.32929 28.9325 7.31816 28.9318 7.30704 28.9319C7.10674 28.934 6.90633 28.9332 6.70623 28.9405C6.65453 28.9424 6.59314 28.9569 6.55479 28.9883C6.47382 29.0546 6.4248 29.0148 6.36911 28.9616C6.46595 28.8237 6.57843 28.7581 6.71848 28.7651C7.13107 28.7855 7.54363 28.7571 7.95784 28.8086C8.25585 28.8457 8.56358 28.7983 8.86683 28.8017C9.11699 28.8045 9.36688 28.8363 9.61697 28.8374C9.89443 28.8386 10.173 28.8308 10.4493 28.8066C10.8343 28.773 11.2197 28.7327 11.6013 28.6721C11.9008 28.6246 12.195 28.5428 12.4911 28.4741C12.5269 28.4658 12.5597 28.4443 12.5932 28.4281C12.5924 28.4273 12.5914 28.4293 12.6007 28.4302C12.7507 28.4006 12.8913 28.3701 13.032 28.3397C13.0307 28.3347 13.0295 28.3297 13.0283 28.3248C12.9425 28.3299 12.8568 28.335 12.764 28.3358C12.7512 28.3222 12.7452 28.3047 12.7395 28.3048C12.6377 28.3067 12.5359 28.3108 12.4245 28.3146C12.3727 28.3222 12.3306 28.3302 12.2882 28.3366C12.1858 28.3521 12.0833 28.3669 11.9724 28.3809C11.9262 28.3836 11.8882 28.3866 11.8504 28.3912C11.7551 28.4027 11.6598 28.4149 11.5541 28.4278C11.4264 28.4365 11.3087 28.4547 11.1919 28.4501C10.7804 28.4338 10.369 28.4121 9.95793 28.3872C9.80444 28.3779 9.65089 28.3599 9.499 28.3357C9.25315 28.2964 9.0081 28.2515 8.76375 28.2036C8.54735 28.1613 8.3293 28.1224 8.11763 28.0622C7.90759 28.0024 7.70396 27.9195 7.49865 27.8437C7.17288 27.7234 6.8475 27.602 6.52317 27.4779C6.42759 27.4414 6.33636 27.3935 6.24268 27.3519C6.0759 27.2778 5.90643 27.2093 5.74237 27.1296C5.54419 27.0334 5.35111 26.9267 5.15459 26.827C5.01001 26.7536 4.8556 26.6965 4.71936 26.6103C4.41003 26.4147 4.10548 26.2109 3.80612 26.0002C3.5773 25.8393 3.35221 25.6713 3.13851 25.4909C2.88027 25.273 2.6395 25.0345 2.38416 24.8129C2.18093 24.6366 1.95767 24.4782 1.69296 24.4203C1.56027 24.3912 1.57147 24.3393 1.59296 24.2231C1.72909 24.2725 1.85493 24.3181 1.98077 24.3637C1.98879 24.3493 1.99681 24.335 2.00483 24.3206C1.89467 24.2381 1.7885 24.1494 1.67344 24.0744C1.49372 23.9572 1.33074 23.8037 1.09417 23.7991C1.06383 23.7985 1.02392 23.7411 1.00955 23.7021C1.0025 23.683 1.04323 23.622 1.06336 23.6215C1.14158 23.6195 1.22371 23.6229 1.2978 23.6457C1.39154 23.6745 1.47887 23.7242 1.56897 23.765C1.57452 23.7565 1.58006 23.748 1.58561 23.7396C1.56593 23.7052 1.54652 23.6708 1.52655 23.6367C1.40163 23.4232 1.26511 23.2155 1.15448 22.9949C1.01433 22.7154 0.882111 22.4304 0.770506 22.1386C0.646863 21.8153 0.549836 21.4818 0.442426 21.1524C0.418936 21.0803 0.398106 21.0072 0.38029 20.9336C0.333429 20.7398 0.285167 20.5463 0.244506 20.3513C0.204643 20.16 0.174018 19.9669 0.138057 19.7748C0.129614 19.7297 0.118288 19.6848 0.103137 19.6416C0.0994916 19.6312 0.0752934 19.6281 0.0605469 19.6216C0.0605469 18.9002 0.0605469 18.1789 0.0692511 17.4461C0.08298 17.3396 0.0880616 17.2447 0.0916844 17.1498C0.0917062 17.1493 0.0713742 17.1479 0.0605469 17.1469C0.0605469 17.0794 0.0605469 17.0118 0.0659054 16.9436C0.0879066 16.9192 0.104549 16.8955 0.121025 16.8623C0.153911 16.5844 0.177146 16.3143 0.222871 16.048C0.265638 15.7989 0.31827 15.5497 0.391642 15.3081C0.50226 14.944 0.630342 14.5849 0.759524 14.2267C0.834868 14.0178 0.930942 13.8165 1.01012 13.6089C1.08738 13.4062 1.15621 13.2004 1.22634 12.9951C1.25922 12.8988 1.28185 12.7989 1.31735 12.7037C1.37021 12.5619 1.4343 12.4243 1.4864 12.2823C1.55396 12.0981 1.60011 11.9047 1.68143 11.7272C1.79414 11.4812 1.88464 11.2327 1.90799 10.9615C1.91399 10.8919 1.94743 10.842 2.04616 10.8676C2.0397 10.9361 2.04348 11.0078 2.02442 11.0727C1.99356 11.1779 1.94701 11.2785 1.90832 11.3815C1.79671 11.6784 1.68474 11.9753 1.57516 12.273C1.54796 12.3469 1.52924 12.4239 1.50663 12.4995C1.51737 12.5034 1.52812 12.5074 1.53886 12.5113C1.58189 12.4012 1.62567 12.2914 1.66753 12.1809C1.68141 12.1442 1.68542 12.1033 1.70254 12.0685C1.74883 11.9745 1.80177 11.8837 1.8484 11.7898C1.94443 11.5964 2.03884 11.4023 2.13251 11.2078C2.24665 10.9707 2.36241 10.7343 2.47188 10.4951C2.60479 10.2047 2.73033 9.91097 2.86205 9.62001C2.94289 9.44143 3.04747 9.27141 3.10885 9.08673C3.19439 8.82939 3.24749 8.56138 3.31934 8.29926C3.33336 8.24814 3.36962 8.20312 3.39562 8.15529C3.40876 8.15662 3.42189 8.15796 3.43502 8.15929C3.45506 8.23026 3.50165 8.30591 3.49013 8.37132C3.45666 8.56147 3.41564 8.75343 3.348 8.93357C3.27538 9.12699 3.16658 9.30658 3.07845 9.4945C3.01249 9.63513 2.95718 9.78075 2.89189 9.92171C2.8075 10.1039 2.71633 10.283 2.63123 10.4648C2.59344 10.5456 2.56838 10.6325 2.52879 10.7123C2.42084 10.9298 2.30712 11.1444 2.19797 11.3613C2.15071 11.4552 2.11309 11.5541 2.06401 11.647C1.96457 11.8352 1.85292 12.0173 1.76085 12.2089C1.70716 12.3207 1.68242 12.4462 1.64299 12.565C1.63003 12.604 1.61185 12.6413 1.59606 12.6794C1.66302 12.6218 1.71245 12.5571 1.75424 12.4878C1.83842 12.3481 1.91374 12.203 2.00172 12.0659C2.06794 11.9627 2.15242 11.8714 2.22131 11.7698C2.37463 11.5435 2.51921 11.3113 2.67524 11.087C2.78256 10.9327 2.90327 10.7878 3.01773 10.6384C3.15181 10.4635 3.28519 10.288 3.41964 10.1133C3.53599 9.96217 3.64652 9.80582 3.77182 9.66243C4.01583 9.38319 4.27197 9.11457 4.51614 8.83547C4.68305 8.64468 4.83779 8.44328 4.99871 8.24723C5.13965 8.07552 5.28585 7.90795 5.42191 7.73248C5.55203 7.56467 5.67156 7.38867 5.79683 7.21705C5.84022 7.1576 5.89384 7.10459 5.93066 7.04156C6.03729 6.85907 6.14559 6.67682 6.23868 6.48733C6.35627 6.24795 6.4754 6.00707 6.56314 5.7561C6.61838 5.59811 6.61732 5.42044 6.64126 5.2534C6.74428 5.24778 6.82463 5.30874 6.8125 5.39339C6.79481 5.51685 6.77543 5.64436 6.72845 5.75847C6.62152 6.01816 6.50866 6.27675 6.37709 6.52458C6.23825 6.7861 6.07981 7.03776 5.92017 7.28749C5.83938 7.41387 5.73841 7.52758 5.64421 7.64513C5.40727 7.94082 5.17411 8.23976 4.92958 8.52908C4.73992 8.75348 4.53415 8.96422 4.33778 9.18305C4.11307 9.43345 3.88938 9.68481 3.66816 9.9383C3.56105 10.061 3.4595 10.1887 3.3587 10.3167C3.34732 10.3311 3.35716 10.3623 3.35716 10.3857C3.36676 10.393 3.37637 10.4004 3.38597 10.4077C3.44028 10.3454 3.4928 10.2814 3.54925 10.2211C3.70229 10.0576 3.84831 9.88618 4.01298 9.73519C4.29524 9.47639 4.59046 9.23178 4.87854 8.97927C5.10279 8.78269 5.32366 8.58224 5.5475 8.38518C5.7772 8.18297 6.0169 7.99134 6.2374 7.77963C6.5461 7.48324 6.84223 7.17368 7.14151 6.86757C7.34321 6.66126 7.54463 6.45446 7.7396 6.24185C7.93369 6.03021 8.12445 5.81508 8.30741 5.59381C8.43737 5.43665 8.57017 5.27696 8.66913 5.10017C8.81755 4.83501 8.93948 4.55485 9.06878 4.27924C9.18861 4.02382 9.23682 3.75415 9.17396 3.47727C9.09986 3.15088 9.00979 2.82918 8.80203 2.55389C8.71944 2.44447 8.74103 2.379 8.86592 2.30802C8.94302 2.26419 9.05492 2.24993 9.09825 2.18632C9.15235 2.10688 9.22512 2.09484 9.2942 2.06346C9.41617 2.00806 9.54478 1.96672 9.66478 1.90765C9.83118 1.82573 9.99361 1.73537 10.1551 1.6439C10.2754 1.57574 10.3918 1.50061 10.5093 1.42759C10.5999 1.37126 10.6897 1.31353 10.7798 1.25615C10.9133 1.17103 11.0571 1.09785 11.1764 0.995978C11.2512 0.932073 11.3228 0.829485 11.3355 0.736072C11.3536 0.602455 11.397 0.444028 11.2425 0.33615C11.3332 0.272246 11.4182 0.221442 11.4917 0.157445C11.5394 0.115873 11.5703 0.0550705 11.6088 0.00288391C11.6617 0.00288389 11.7145 0.00288389 11.7779 0.0110102C11.8163 0.0560239 11.8622 0.0899244 11.8689 0.130319C11.8969 0.299831 11.8819 0.467945 11.7593 0.599821C11.6203 0.749338 11.504 0.922922 11.3137 1.02151C11.2421 1.05859 11.1803 1.11846 11.1222 1.1761C11.078 1.21985 11.0454 1.27359 11.0995 1.33946C11.1404 1.38931 11.186 1.44171 11.2063 1.50093C11.2789 1.71242 11.3534 1.92453 11.4049 2.14168C11.4559 2.35679 11.477 2.57885 11.5168 2.79684C11.5754 3.11789 11.4557 3.4223 11.3832 3.71675C11.314 3.99825 11.1118 4.25076 10.9501 4.50454C10.8337 4.68724 10.6932 4.85578 10.5534 5.02214C10.3942 5.21153 10.2351 5.40353 10.0555 5.57254C9.81733 5.79655 9.55958 5.99975 9.3096 6.21111C9.23591 6.27342 9.16234 6.33629 9.08453 6.39318C8.98636 6.46496 8.88209 6.52838 8.78392 6.60016C8.71593 6.64986 8.65508 6.70919 8.58881 6.76141C8.44961 6.87109 8.30927 6.97934 8.16876 7.08735C8.07357 7.16053 7.97668 7.2315 7.88167 7.3049C7.78356 7.3807 7.68679 7.45825 7.59003 7.5363C7.59063 7.53757 7.59303 7.53615 7.58546 7.53537C7.56096 7.54949 7.54405 7.56441 7.52697 7.57983C7.52681 7.58033 7.52576 7.58045 7.51873 7.57602C7.49276 7.58196 7.47382 7.59232 7.44709 7.60208C7.40213 7.6337 7.36498 7.66592 7.31995 7.69915C7.21204 7.76514 7.112 7.83013 7.00402 7.89487C6.94279 7.9299 6.88949 7.9652 6.83619 8.00049C6.84169 8.01081 6.8472 8.02113 6.8527 8.03145C6.94958 8.00623 7.04928 7.98857 7.14257 7.95376C7.2457 7.91528 7.34295 7.86108 7.44987 7.80997C7.57355 7.75932 7.6889 7.70908 7.80693 7.66625C8.05561 7.57601 8.30018 7.4658 8.55634 7.40672C9.07741 7.28655 9.6058 7.19846 10.1297 7.08996C10.4099 7.03192 10.6905 6.99241 10.9772 7.00215C11.0127 7.00336 11.0485 6.99092 11.0845 6.98666C11.2294 6.96945 11.3742 6.95026 11.5195 6.93732C11.5973 6.93039 11.6762 6.93653 11.7545 6.93351C11.872 6.92898 11.9902 6.90924 12.1066 6.9178C12.4091 6.94004 12.7108 6.9732 13.0127 7.0041C13.1136 7.01442 13.2143 7.02827 13.3143 7.04538C13.5675 7.08873 13.8205 7.13328 14.0731 7.18033C14.2772 7.21836 14.4827 7.25243 14.6835 7.30387C14.8365 7.34304 14.9834 7.40585 15.1325 7.45971C15.3465 7.53706 15.5628 7.60922 15.7727 7.69647C15.9021 7.75024 16.0215 7.82791 16.1454 7.89497C16.2884 7.97237 16.4313 8.04991 16.5755 8.12808C16.6329 8.08937 16.707 8.0575 16.756 8.00306C16.8977 7.84548 17.0273 7.67703 17.1656 7.51631C17.2712 7.39361 17.3803 7.27364 17.4926 7.15698C17.6739 6.96862 17.8472 6.76999 18.0457 6.6015C18.2668 6.4139 18.5095 6.25093 18.7486 6.08567C18.8653 6.00495 18.988 5.916 19.1213 5.88031C19.2735 5.83956 19.4157 5.76259 19.5865 5.76857C19.7629 5.77475 19.9414 5.71146 20.1181 5.7153C20.3232 5.71976 20.5272 5.76643 20.7322 5.79009C20.8031 5.79827 20.8967 5.82134 20.9434 5.78736C21.0687 5.69613 21.1729 5.57639 21.2879 5.47057C21.3856 5.38071 21.4863 5.28711 21.6338 5.3159C21.684 5.32572 21.7496 5.35526 21.77 5.39527C21.7963 5.44668 21.8281 5.51215 21.7384 5.57312C21.6499 5.6332 21.5934 5.73881 21.5179 5.8199C21.4667 5.87492 21.4189 5.92429 21.324 5.86921C21.247 5.82459 21.1458 5.82226 21.0709 5.89632C20.997 5.96921 20.9245 6.04427 20.8593 6.12483C20.6939 6.32937 20.5333 6.53777 20.3702 6.74419C20.0797 7.11199 19.791 7.48129 19.4962 7.84573C19.427 7.93136 19.3369 8.00013 19.2635 8.06994C19.1802 8.00598 19.1113 7.94294 19.0331 7.89498C18.8598 7.78866 18.6623 7.73913 18.4648 7.73677C18.0598 7.73192 17.6603 7.7679 17.3022 7.99596C17.1667 8.08219 16.9938 8.11616 16.8719 8.21552C16.6434 8.40175 16.4298 8.60912 16.2282 8.82478C16.024 9.04335 15.8396 9.28075 15.6508 9.51342C15.5376 9.65298 15.4319 9.79875 15.3243 9.94275C15.2704 10.0148 15.2249 10.0937 15.1664 10.1616C15.0412 10.3071 14.913 10.4504 14.7796 10.5884C14.7326 10.6371 14.6668 10.6677 14.6096 10.7066C14.6036 10.7005 14.5976 10.6943 14.5916 10.6881C14.601 10.655 14.6104 10.6219 14.6193 10.5903C13.8824 9.959 13.0194 9.58235 12.0843 9.30298C12.0974 9.34057 12.1076 9.35661 12.108 9.37291C12.1105 9.46943 12.1185 9.56701 12.1063 9.66187C12.1032 9.68575 12.0274 9.7229 11.995 9.71467C11.9546 9.7044 11.9202 9.66936 11.9561 9.59784C11.9799 9.55029 11.9585 9.45556 11.9231 9.40693C11.7791 9.20934 11.5404 9.23673 11.3556 9.25807C11.0696 9.29109 10.7759 9.34367 10.5099 9.47999C10.3709 9.55129 10.2234 9.60653 10.0858 9.68022C10.0459 9.70156 10.0052 9.7602 10.0021 9.80432C9.99169 9.95553 9.99487 10.1079 9.99844 10.2598C10.0015 10.389 10.0179 10.5179 10.0185 10.647C10.0211 11.1763 10.0199 11.7055 10.0201 12.2348C10.0202 12.4154 10.0201 12.596 10.0201 12.7919C10.0719 12.769 10.1057 12.7554 10.1383 12.7395C10.3568 12.6325 10.5889 12.5458 10.789 12.4113C10.9571 12.2984 11.0916 12.1333 11.2327 11.9836C11.2804 11.9329 11.3202 11.8616 11.3322 11.7942C11.3447 11.7243 11.3229 11.6468 11.3088 11.5741C11.3 11.5282 11.253 11.4717 11.2679 11.4438C11.2862 11.4094 11.3492 11.391 11.3961 11.3813C11.4951 11.361 11.5965 11.352 11.6965 11.3362C11.863 11.3099 11.942 11.3694 11.9625 11.5368C11.965 11.5576 11.9726 11.5797 11.984 11.5972C12.111 11.792 12.3158 11.8884 12.5157 11.9684C12.7853 12.0763 13.0715 12.005 13.3478 11.9653C13.5028 11.943 13.6561 11.8945 13.8039 11.8408C14.022 11.7614 14.2375 11.6732 14.4483 11.5761C14.5646 11.5226 14.6753 11.4514 14.7776 11.3737C14.9605 11.2348 15.1563 11.108 15.2789 10.9031C15.3268 10.823 15.3838 10.7484 15.4366 10.6712C15.45 10.6799 15.4633 10.6885 15.4766 10.6972C15.3192 11.096 15.0824 11.4495 14.8163 11.8008C14.9341 11.8203 15.043 11.82 15.1518 11.8203C15.315 11.8209 15.4783 11.8243 15.6415 11.8218C15.7406 11.8203 15.841 11.8183 15.9383 11.802C16.2431 11.7506 16.5243 11.6352 16.7814 11.4644C16.8662 11.408 16.9454 11.3423 17.0219 11.2748C17.0713 11.2311 17.111 11.1764 17.1551 11.1267C17.1673 11.1337 17.1796 11.1407 17.1918 11.1477C17.1955 11.1746 17.2107 11.2066 17.2013 11.2275C17.0917 11.4699 16.8393 11.5578 16.6438 11.7351C16.8315 11.7092 17.0042 11.6915 17.1745 11.6606C17.5073 11.6003 17.839 11.5339 18.1707 11.4675C18.4505 11.4115 18.7299 11.3529 19.0091 11.2935C19.1372 11.2662 19.2629 11.2251 19.3921 11.2062C19.8405 11.1404 20.2632 11.0055 20.6217 10.7219C20.7548 10.6166 20.8589 10.4756 20.8441 10.2797C20.8405 10.2313 20.8742 10.1586 20.9139 10.133C20.9939 10.0813 21.09 10.0546 21.1792 10.0169C21.3111 9.96118 21.442 9.90285 21.5752 9.85041C21.6011 9.84023 21.6468 9.84069 21.6629 9.85676C21.6794 9.87311 21.6775 9.91628 21.6714 9.9451C21.6574 10.0104 21.6334 10.0735 21.6182 10.1386C21.5872 10.2712 21.5873 10.42 21.5239 10.5338C21.4216 10.7175 21.3576 10.9328 21.1633 11.0495C21.3894 11.0949 21.6085 11.1308 21.8234 11.1839C22.1348 11.261 22.4463 11.3404 22.7514 11.4386C22.9277 11.4954 23.091 11.5921 23.2612 11.6687C23.314 11.6925 23.37 11.7094 23.4246 11.7295C23.4246 11.7605 23.4246 11.7914 23.4163 11.8315C23.2277 11.7731 23.0468 11.7072 22.8673 11.6374C22.7904 11.6075 22.7192 11.5609 22.6407 11.5374C22.5014 11.4957 22.3598 11.459 22.2168 11.4326C21.9759 11.3881 21.7344 11.34 21.4909 11.3183C21.2761 11.2992 21.0578 11.3059 20.8418 11.3171C20.7078 11.3241 20.5739 11.3547 20.4425 11.3855C20.2545 11.4297 20.0693 11.4856 19.8821 11.5332C19.6542 11.5912 19.4253 11.6458 19.1969 11.7019C19.3743 11.7439 19.5463 11.7596 19.7181 11.7767C19.743 11.7791 19.7678 11.7865 19.7918 11.7944C19.8563 11.8157 19.9004 11.8619 19.8699 11.9269C19.8365 11.9982 19.7705 11.9578 19.7167 11.9442C19.6127 11.9179 19.5066 11.8617 19.4054 11.8697C19.078 11.8956 18.7522 11.9423 18.4264 11.9861C18.1898 12.0179 17.9524 12.0481 17.719 12.0968C17.4747 12.1477 17.2349 12.2202 16.9929 12.2823C16.7811 12.3367 16.5696 12.3923 16.3568 12.4428C15.9529 12.5386 15.5483 12.6311 15.1683 12.7192C15.2444 12.7362 15.3452 12.7516 15.4401 12.7841C15.4691 12.7941 15.4817 12.8514 15.5018 12.8871C15.4543 12.9091 15.3776 12.9614 15.3641 12.9483C15.2586 12.8462 15.1227 12.8881 15.0062 12.8725C14.845 12.8509 14.6764 12.8744 14.512 12.8894C14.3937 12.9001 14.276 12.9242 14.1598 12.9499C14.0039 12.9844 13.8504 13.0298 13.6944 13.0639C13.4757 13.1118 13.2554 13.1529 13.0363 13.199C12.9876 13.2092 12.9405 13.2276 12.893 13.243C12.8325 13.2626 12.7724 13.283 12.7121 13.303C12.7154 13.3199 12.7188 13.3369 12.7221 13.3538C12.9 13.3538 13.0779 13.3515 13.2557 13.3546C13.36 13.3564 13.4656 13.3579 13.5679 13.3753C13.7466 13.4056 13.9229 13.4502 14.101 13.4848C14.2977 13.5231 14.497 13.5495 14.6919 13.5949C14.8333 13.6278 14.9691 13.684 15.1079 13.7282C15.2527 13.7743 15.399 13.8159 15.5426 13.8652C15.5902 13.8816 15.6297 13.9199 15.6761 13.9411C15.9101 14.048 16.1529 14.1384 16.378 14.2615C16.6648 14.4181 16.9445 14.5903 17.2137 14.7754C17.3846 14.8929 17.5374 15.0394 17.6865 15.1849C17.8579 15.3521 18.0278 15.5234 18.1775 15.7096C18.3671 15.9453 18.5398 16.1949 18.7118 16.4442C18.8105 16.5873 18.8969 16.7395 18.9821 16.8914C19.057 17.0249 19.1234 17.1631 19.192 17.3001C19.2711 17.458 19.3623 17.6118 19.4232 17.7766C19.5082 18.0065 19.58 18.2425 19.639 18.4804C19.7061 18.7509 19.7904 19.0181 19.8121 19.2992C19.8255 19.473 19.8731 19.6454 19.8747 19.8187C19.8788 20.2665 19.8666 20.7144 19.8587 21.1622C19.8576 21.2208 19.8442 21.2793 19.8351 21.3375C19.8186 21.442 19.8001 21.5461 19.7845 21.6507C19.779 21.6871 19.7854 21.7259 19.7765 21.761C19.7268 21.9581 19.6787 22.1558 19.621 22.3506C19.5451 22.6069 19.4698 22.864 19.3778 23.1148C19.2821 23.3755 19.1678 23.6294 19.0601 23.8856C18.9397 24.1717 18.8287 24.4624 18.6927 24.7409C18.5895 24.9523 18.4525 25.1471 18.3324 25.3504C18.1921 25.5881 18.0482 25.8241 17.9163 26.0664C17.8147 26.2532 17.7241 26.4464 17.6376 26.6408C17.5357 26.87 17.434 27.1001 17.3502 27.3362C17.2839 27.523 17.237 27.7179 17.1955 27.9122C17.156 28.0972 17.1414 28.2875 17.1035 28.473C17.0515 28.7269 17.0752 28.9826 17.128 29.2254C17.175 29.4409 17.2836 29.6472 17.3899 29.8441C17.463 29.9793 17.5685 30.1009 17.7207 30.1671C17.7402 30.1756 17.7573 30.2272 17.7497 30.2505C17.7407 30.2781 17.7068 30.3106 17.6786 30.3166C17.5373 30.3468 17.4631 30.2373 17.3919 30.1513C17.2652 29.9983 17.1547 29.8333 17.1104 29.6318C17.0692 29.4441 17.0167 29.2589 16.9737 29.0648C16.9782 28.8979 16.9782 28.7388 16.9782 28.5796C16.9408 28.5933 16.9169 28.6143 16.9159 28.6365C16.9084 28.7996 16.9051 28.9629 16.9021 29.1262C16.902 29.1322 16.918 29.1385 16.929 29.1542C16.9356 29.2186 16.9324 29.2755 16.9454 29.3283C16.9954 29.5313 17.0592 29.7313 17.1015 29.9358C17.1424 30.1331 17.271 30.2791 17.3765 30.4357C17.4663 30.5691 17.4837 30.5974 17.4083 30.7392C17.3595 30.831 17.3252 30.9306 17.287 31.0277C17.2566 31.105 17.2302 31.1839 17.202 31.2621C17.1846 31.2652 17.1673 31.2683 17.1499 31.2715C17.0797 31.1666 17.0029 31.0654 16.9417 30.9555C16.9062 30.8919 16.8987 30.8133 16.8021 30.8085C16.7867 30.8078 16.7736 30.7807 16.7576 30.7682C16.6414 30.6767 16.6609 30.5309 16.6385 30.4135C16.5786 30.0991 16.5321 29.7788 16.5209 29.4594C16.5115 29.1904 16.5527 28.9186 16.5837 28.6494C16.6088 28.431 16.6318 28.2089 16.6917 27.9987C16.786 27.6677 16.9109 27.3455 17.0212 27.0191C17.0288 26.9965 17.0222 26.969 17.0222 26.9438C17.015 26.9423 17.0078 26.9408 17.0006 26.9393C16.9185 27.0711 16.8365 27.2029 16.7502 27.3386C16.744 27.3497 16.7421 27.3568 16.7392 27.3683C16.7382 27.3725 16.7322 27.3789 16.7241 27.3788C16.7001 27.3791 16.6842 27.3793 16.6685 27.3715C16.6216 27.3425 16.6139 27.3525 16.5695 27.4161C16.4639 27.5673 16.3549 27.7162 16.2445 27.8641C16.1924 27.9339 16.1323 27.9978 16.079 28.0668C16.0276 28.1333 15.9817 28.204 15.931 28.271C15.8175 28.4209 15.6819 28.5584 15.5929 28.7215C15.464 28.9575 15.3975 29.2202 15.3478 29.486C15.3406 29.5245 15.2877 29.5701 15.2466 29.5831C15.1844 29.6028 15.1638 29.5524 15.1698 29.4962C15.1751 29.4465 15.1805 29.3963 15.1927 29.348C15.2086 29.2846 15.2382 29.2241 15.2498 29.1602C15.3084 28.8383 15.4774 28.5706 15.6698 28.3176C15.8242 28.1146 15.9946 27.9237 16.1644 27.7245C16.2378 27.658 16.3066 27.5958 16.3239 27.5021C16.3122 27.4941 16.3004 27.4862 16.2887 27.4782C16.2353 27.555 16.1819 27.6318 16.1203 27.7084C16.0572 27.7516 15.9986 27.7913 15.9481 27.8394C15.8688 27.915 15.7987 28.0004 15.718 28.0744C15.5297 28.2469 15.3346 28.4122 15.1478 28.5864C15.0561 28.6721 14.9799 28.774 14.8914 28.8634C14.7836 28.9723 14.6609 29.0677 14.5616 29.1836C14.3923 29.381 14.2304 29.5855 14.0765 29.7951C13.9199 30.0084 13.7751 30.2305 13.6287 30.4511C13.5937 30.5039 13.5723 30.5658 13.5451 30.6237C13.493 30.7348 13.4403 30.8456 13.3897 30.9573C13.3664 31.0088 13.3504 31.0637 13.3251 31.114C13.3153 31.1335 13.2813 31.161 13.2717 31.1565C13.2487 31.1457 13.2262 31.1209 13.2169 31.0966C13.1844 31.0123 13.2315 30.9495 13.2695 30.8762C13.3477 30.7253 13.3895 30.554 13.4767 30.4095C13.6072 30.1935 13.759 29.9897 13.9108 29.7875C14.075 29.5688 14.2453 29.3543 14.4216 29.1452C14.5069 29.0441 14.613 28.9606 14.7082 28.8677C14.9202 28.6607 15.1287 28.4499 15.344 28.2464C15.4538 28.1426 15.5778 28.0541 15.6901 27.9528C15.7385 27.9092 15.7734 27.8508 15.8144 27.7991C15.8058 27.7905 15.7972 27.7818 15.7885 27.7732C15.6701 27.8619 15.5514 27.9503 15.4332 28.0394C15.1987 28.2164 14.9637 28.3927 14.7305 28.5715C14.5611 28.7015 14.3875 28.8274 14.2284 28.9695C14.0912 29.092 13.9694 29.2322 13.8456 29.3691C13.7154 29.5129 13.5892 29.6603 13.4648 29.8092C13.3474 29.9496 13.2256 30.0876 13.1223 30.238C12.9857 30.4367 12.8696 30.6493 12.7366 30.8506C12.611 31.0408 12.4704 31.2211 12.3445 31.411C12.1023 31.7765 11.936 32.1794 11.813 32.5969C11.7304 32.8774 11.7083 33.1719 11.7186 33.4663C11.7192 33.4831 11.7263 33.5016 11.7357 33.5159C11.8181 33.6417 11.8038 33.678 11.6565 33.7113C11.4711 33.7533 11.286 33.7967 11.1 33.8356C11.0466 33.8468 10.987 33.834 10.9359 33.8501C10.7078 33.9216 10.4812 33.9982 10.2551 34.0756C9.88377 34.2027 9.51321 34.3319 9.14227 34.46C9.05965 34.4885 8.94386 34.4914 8.90033 34.5491C8.78449 34.7027 8.59112 34.727 8.45847 34.8677C8.28475 35.0519 8.27028 35.3479 8.35829 35.5075C8.43529 35.6472 8.43913 35.6603 8.31523 35.7614C8.27391 35.7951 8.20286 35.8079 8.18289 35.8486C8.15452 35.9065 8.02779 35.8518 8.06407 35.963ZM11.2078 18.0723C11.2058 18.0827 11.2037 18.0931 11.2016 18.1035C11.212 18.0978 11.2225 18.0921 11.2444 18.0839C11.2482 18.0775 11.2519 18.071 11.2724 18.0639C11.4421 17.9768 11.6239 17.9069 11.7781 17.7979C11.942 17.6821 12.076 17.525 12.2297 17.3938C12.4415 17.2128 12.5797 16.9852 12.6471 16.7206C12.6909 16.5486 12.6613 16.3678 12.5761 16.2129C12.4971 16.0692 12.3524 16.0365 12.1861 16.0813C12.198 15.9832 12.2325 15.9134 12.3244 15.901C12.5272 15.8735 12.6984 15.9894 12.7496 16.1845C12.8336 16.5045 12.7942 16.8062 12.6117 17.0863C12.5722 17.1469 12.5388 17.2114 12.4901 17.2957C12.5988 17.2228 12.6878 17.1693 12.7699 17.1068C12.974 16.9513 13.1738 16.79 13.3794 16.6365C13.3993 16.6217 13.4496 16.6399 13.4822 16.6522C13.5079 16.6619 13.5269 16.6883 13.5512 16.7035C13.7093 16.8025 13.8679 16.9041 14.0222 17.0053C14.2862 17.1786 14.59 17.2496 14.8594 17.4013C14.9673 17.4621 15.0939 17.4894 15.2119 17.5323C15.3284 17.5747 15.4429 17.6244 15.5618 17.6584C15.7242 17.705 15.8912 17.7353 16.0539 17.7807C16.2707 17.8411 16.4855 17.9087 16.7008 17.9743C16.8168 18.0096 16.9316 18.0484 17.0477 18.0832C17.1787 18.1225 17.3023 18.1489 17.4228 18.0364C17.5112 17.9539 17.6242 17.8977 17.7362 17.8232C17.6781 17.7727 17.6073 17.7107 17.5361 17.6491C17.3268 17.4677 17.1235 17.2788 16.9059 17.1081C16.763 16.9959 16.6029 16.9041 16.4442 16.8141C16.2746 16.718 16.0997 16.6303 15.9232 16.5474C15.7677 16.4743 15.609 16.407 15.4478 16.3477C15.2703 16.2823 15.0881 16.23 14.9086 16.1697C14.867 16.1557 14.8289 16.1315 14.7883 16.1138C14.6797 16.0664 14.573 16.0128 14.461 15.9752C14.3526 15.9389 14.2392 15.9158 14.1267 15.8933C13.8199 15.832 13.5135 15.7668 13.2048 15.7172C12.9986 15.6841 12.7887 15.6737 12.5803 15.6555C12.2257 15.6247 11.8705 15.5693 11.5163 15.5741C11.2068 15.5784 10.894 15.5942 10.5882 15.6995C10.4158 15.7589 10.2602 15.8449 10.0964 15.9161C10.0472 15.9375 10.0031 16.0111 9.9913 16.068C9.97359 16.1537 9.98637 16.2456 9.98619 16.3349C9.98583 16.5151 9.98189 16.6953 9.98585 16.8753C9.99453 17.2699 10.0089 17.6644 10.0175 18.059C10.0217 18.2514 10.0183 18.4439 10.0183 18.6364C10.0305 18.6425 10.0427 18.6485 10.0549 18.6546C10.1593 18.5791 10.2758 18.5155 10.3643 18.4245C10.4342 18.3526 10.5307 18.2754 10.4967 18.1429C10.4942 18.1333 10.5632 18.1054 10.5989 18.086C10.6118 18.1141 10.6339 18.1417 10.6355 18.1704C10.6382 18.2213 10.6285 18.2728 10.624 18.3241C10.6361 18.3292 10.6482 18.3343 10.6603 18.3394C10.7758 18.1898 10.8964 18.0436 11.005 17.8889C11.0597 17.8109 11.0963 17.7191 11.1328 17.6302C11.1412 17.6098 11.1118 17.576 11.1064 17.5471C11.1022 17.5251 11.0998 17.4876 11.1113 17.4803C11.183 17.435 11.2458 17.4655 11.2483 17.5492C11.2514 17.65 11.2576 17.7525 11.1788 17.8375C11.1543 17.8639 11.1516 17.9104 11.1205 17.9477C11.0981 17.9663 11.0758 17.9848 11.0534 18.0034C11.0608 18.0115 11.0683 18.0196 11.0757 18.0277C11.1016 18.008 11.1276 17.9883 11.166 17.9597C11.3389 17.8074 11.4887 17.6371 11.5949 17.4301C11.655 17.3132 11.6364 17.1222 11.551 17.0237C11.5043 16.9698 11.5027 16.9194 11.577 16.8825C11.6464 16.8481 11.7265 16.9043 11.7554 17.0138C11.8114 17.226 11.7425 17.4192 11.6282 17.5866C11.5144 17.7533 11.3667 17.8969 11.2274 18.0535C11.2233 18.0563 11.2207 18.0601 11.2078 18.0723ZM2.13474 12.0887C2.1519 12.0623 2.16906 12.0358 2.18621 12.0094C2.17605 12.0032 2.16589 11.9971 2.15573 11.991C2.1392 12.021 2.12266 12.051 2.09703 12.0882C2.09736 12.0934 2.0977 12.0987 2.09804 12.1039C2.10556 12.1013 2.11308 12.0987 2.13474 12.0887ZM2.27277 11.8208C2.24001 11.8683 2.20725 11.9158 2.17448 11.9633C2.18945 11.972 2.20441 11.9807 2.21937 11.9893C2.2456 11.9351 2.27183 11.8809 2.31011 11.8178C2.34522 11.7707 2.38033 11.7236 2.41544 11.6764C2.40388 11.6688 2.39233 11.6612 2.38077 11.6536C2.34965 11.7078 2.31852 11.762 2.27277 11.8208ZM2.18197 13.2043C2.12569 13.3082 2.06941 13.4121 2.01313 13.516C2.02483 13.5221 2.03652 13.5281 2.04821 13.5342C2.10645 13.4271 2.16469 13.3199 2.23494 13.205C2.26211 13.1529 2.28928 13.1009 2.33338 13.0483C2.38713 12.9602 2.44087 12.872 2.51084 12.7832C2.52888 12.7538 2.54691 12.7244 2.57936 12.6893C2.64569 12.5958 2.70682 12.4981 2.77944 12.4097C2.93583 12.2195 3.09022 12.0265 3.26031 11.8489C3.42372 11.6783 3.5986 11.5167 3.78181 11.3676C3.98049 11.2058 4.19314 11.061 4.40247 10.9127C4.56513 10.7974 4.72243 10.669 4.89921 10.5805C5.20791 10.4261 5.52764 10.2928 5.84729 10.1617C5.95573 10.1172 6.07714 10.1021 6.194 10.0812C6.27087 10.0675 6.30899 10.1244 6.27068 10.1797C6.22479 10.246 6.16 10.3203 6.06032 10.3011C5.87783 10.266 5.72466 10.3566 5.56981 10.4194C5.33254 10.5157 5.10347 10.6328 4.87366 10.7465C4.75705 10.8042 4.6418 10.8672 4.53414 10.9399C4.35717 11.0595 4.1824 11.1832 4.01495 11.3157C3.81871 11.4709 3.62152 11.6272 3.44276 11.8015C3.25801 11.9816 3.08127 12.1736 2.92573 12.3791C2.72559 12.6436 2.54486 12.9233 2.36589 13.2028C2.26207 13.365 2.1788 13.5403 2.08485 13.7089C2.04274 13.7845 1.98794 13.8542 1.95486 13.9333C1.87358 14.1276 1.79879 14.3248 1.7267 14.5228C1.67253 14.6715 1.61765 14.821 1.57908 14.9741C1.51889 15.2131 1.46292 15.454 1.42362 15.6971C1.4025 15.8277 1.41987 15.9646 1.41987 16.1157C1.45585 16.0904 1.51265 16.0719 1.52337 16.0387C1.55188 15.9502 1.55505 15.8539 1.5785 15.7633C1.60594 15.6574 1.64418 15.5543 1.67773 15.4499C1.69085 15.454 1.70397 15.458 1.71709 15.4621C1.67513 15.6579 1.63317 15.8537 1.59007 16.0548C1.65462 16.0352 1.69869 16.0297 1.73341 16.0087C1.76187 15.9915 1.78956 15.9593 1.79976 15.9279C1.865 15.7272 1.91745 15.5221 1.98917 15.3239C2.08715 15.0531 2.19213 14.7844 2.30638 14.5201C2.38801 14.3313 2.48854 14.1506 2.58304 13.9675C2.64595 13.8456 2.70731 13.7223 2.77991 13.6062C2.85701 13.483 2.95042 13.37 3.02918 13.2476C3.0733 13.1791 3.09762 13.098 3.13958 13.0278C3.16473 12.9857 3.21422 12.9484 3.25579 13.0043C3.28427 13.0425 3.31576 13.1148 3.2986 13.1446C3.22088 13.2799 3.14128 13.4199 3.03442 13.5315C2.86676 13.7064 2.78796 13.9297 2.67319 14.132C2.54687 14.3548 2.44805 14.5936 2.34446 14.8287C2.25828 15.0242 2.17471 15.2216 2.10459 15.4232C2.04645 15.5904 2.00961 15.7651 1.96231 15.9402C2.04915 15.9212 2.13454 15.9085 2.21615 15.8835C2.43071 15.8178 2.64387 15.7475 2.85702 15.6772C2.9066 15.6609 2.95992 15.6459 3.00107 15.6159C3.10697 15.5387 3.20205 15.4462 3.31038 15.373C3.57357 15.1952 3.72352 14.9585 3.7605 14.6379C3.78968 14.385 3.59986 13.9877 3.34408 13.9241C3.33149 13.921 3.32389 13.8977 3.3036 13.8694C3.38052 13.8576 3.44418 13.8496 3.50717 13.8379C3.59934 13.8208 3.69095 13.8007 3.78294 13.7827C3.81933 13.7755 3.85745 13.7617 3.89235 13.7669C3.92635 13.7721 3.95553 13.8056 3.98979 13.8131C4.14911 13.8475 4.25142 13.9539 4.35163 14.0726C4.39385 14.1226 4.4421 14.223 4.54556 14.1374C4.56011 14.1254 4.60932 14.1555 4.64257 14.1658C4.69599 14.1824 4.74948 14.1988 4.81731 14.2197C4.75253 14.1525 4.70085 14.1081 4.66235 14.0543C4.64789 14.0341 4.66407 13.992 4.66628 13.9598C4.69705 13.9709 4.73768 13.9731 4.7569 13.9945C4.84446 14.0921 4.92121 14.1094 5.03534 14.0537C5.21971 13.9638 5.29153 13.8139 5.27523 13.6155C5.27002 13.5521 5.26538 13.4901 5.17662 13.4821C5.15601 13.4802 5.13911 13.4374 5.12051 13.4135C5.14633 13.3936 5.17222 13.3573 5.19797 13.3574C5.2454 13.3576 5.29274 13.3792 5.34204 13.3923C5.27078 13.2646 5.22767 13.1166 5.06633 13.0581C5.04404 13.05 5.04372 12.9813 5.03323 12.9406C5.06545 12.9324 5.1072 12.907 5.12827 12.9187C5.22915 12.975 5.31554 13.0465 5.34593 13.169C5.35614 13.2102 5.39038 13.2454 5.41364 13.2833C5.42234 13.2787 5.43105 13.2742 5.43975 13.2696C5.40787 13.1454 5.38816 13.0163 5.34068 12.8983C5.2929 12.7796 5.24865 12.6616 5.09273 12.6097C4.98202 12.5728 4.87981 12.5136 4.75795 12.5039C4.73196 12.5018 4.69146 12.4561 4.68932 12.4281C4.685 12.3716 4.72516 12.3434 4.78451 12.354C4.82369 12.3611 4.86688 12.3607 4.90109 12.3779C5.04511 12.4504 5.22193 12.4651 5.31758 12.6248C5.35603 12.6889 5.41646 12.74 5.47303 12.8039C5.47303 12.5696 5.47303 12.3519 5.47303 12.1309C5.42578 12.1309 5.38404 12.1246 5.34487 12.1319C5.11574 12.175 4.88772 12.2245 4.65254 12.1757C4.50371 12.1449 4.35396 12.1186 4.20482 12.0892C4.10713 12.07 4.09024 12.0123 4.12485 11.9254C4.17757 11.7929 4.22642 11.6588 4.27667 11.5253C4.30121 11.4601 4.34292 11.4334 4.41483 11.4512C4.56225 11.4877 4.70923 11.5373 4.85911 11.5504C5.21823 11.5818 5.57177 11.5375 5.91226 11.4144C6.00377 11.3813 6.08785 11.3279 6.17899 11.2935C6.3515 11.2284 6.49274 11.1325 6.57313 10.9584C6.60492 10.8895 6.66066 10.8738 6.72483 10.9302C6.69001 11.0036 6.65654 11.0741 6.62307 11.1446C6.78148 11.0681 6.84501 10.9256 6.9155 10.7911C6.93787 10.7484 6.93975 10.6877 6.9322 10.6381C6.91611 10.5323 6.96617 10.4587 7.09168 10.4416C7.09168 10.532 7.11358 10.6284 7.08647 10.7082C7.04733 10.8234 6.97204 10.9262 6.91342 11.0349C6.88974 11.0788 6.86935 11.1245 6.83381 11.1974C6.95489 11.1484 7.04823 11.1236 7.12777 11.0759C7.41116 10.9058 7.71057 10.7583 7.95261 10.5267C8.02285 10.4595 8.12234 10.3905 8.14004 10.3077C8.17373 10.1501 8.23583 9.98447 8.15471 9.81754C8.10954 9.72459 7.90955 9.63815 7.82069 9.69151C7.75332 9.73197 7.69712 9.79061 7.6333 9.83756C7.55776 9.89314 7.47936 9.94484 7.4022 9.99823C7.39536 9.99023 7.38852 9.98223 7.38167 9.97424C7.50703 9.6917 7.59031 9.3821 7.8932 9.21005C7.85697 9.20087 7.8264 9.19506 7.79886 9.20176C7.47881 9.27955 7.15556 9.34705 6.84053 9.44178C6.51808 9.53875 6.19983 9.65298 5.88717 9.77819C5.62488 9.88323 5.37208 10.0125 5.11747 10.136C5.00437 10.1908 4.88961 10.2476 4.78891 10.3216C4.59709 10.4625 4.41493 10.6166 4.22856 10.7649C4.07409 10.8879 3.90274 10.9947 3.76816 11.1365C3.48714 11.4326 3.21756 11.7406 2.95875 12.0564C2.79935 12.2509 2.66853 12.4688 2.51167 12.6803C2.5002 12.7104 2.48873 12.7405 2.46318 12.7749C2.4073 12.8603 2.35143 12.9457 2.2831 13.04C2.25395 13.092 2.22481 13.144 2.18197 13.2043ZM3.51927 21.8736C3.49831 21.8644 3.47734 21.8552 3.45638 21.8459C3.45359 21.8529 3.4508 21.8599 3.448 21.8669C3.46348 21.8805 3.47896 21.8942 3.50091 21.9222C3.85873 22.3455 4.24899 22.7363 4.65029 23.1027C4.70734 22.9428 4.73967 22.7909 4.81228 22.6615C4.96506 22.3893 5.13053 22.1241 5.37455 21.9169C5.48679 21.8216 5.49375 21.6411 5.41427 21.527C5.39093 21.5623 5.36808 21.5991 5.34307 21.6343C5.21525 21.8145 5.03225 21.9257 4.8316 21.9938C4.68565 22.0433 4.52479 22.0573 4.3693 22.0672C4.27356 22.0732 4.17486 22.0265 4.0785 22.0302C3.87723 22.0379 3.70294 21.9579 3.51927 21.8736ZM8.88638 10.9284C9.02041 10.8187 9.14066 10.6828 9.35437 10.6921C9.36434 10.7333 9.39955 10.8002 9.38131 10.8217C9.35229 10.8558 9.28718 10.8584 9.23815 10.8765C9.17043 10.9016 9.0865 10.9114 9.03916 10.9579C8.84912 11.1447 8.66854 11.3416 8.55596 11.5888C8.54897 11.6042 8.54654 11.6217 8.53914 11.6368C8.46357 11.7908 8.39626 11.9464 8.42469 12.1395C8.48834 12.0358 8.53315 11.9387 8.59975 11.8599C8.70741 11.7326 8.77912 11.7231 8.8713 11.8055C8.73249 11.8699 8.6265 11.9526 8.5769 12.1112C8.52424 12.2797 8.56098 12.4415 8.62661 12.5716C8.76201 12.8399 9.03671 12.9277 9.31553 12.9463C9.47035 12.9565 9.62957 12.8962 9.78721 12.8701C9.87438 12.8557 9.90789 12.8127 9.90453 12.7204C9.89271 12.396 9.88607 12.0713 9.88274 11.7467C9.87949 11.429 9.88802 11.1112 9.88149 10.7936C9.87544 10.4994 9.85646 10.2055 9.84245 9.9115C9.84184 9.89864 9.83394 9.88612 9.82538 9.86199C9.73876 9.93908 9.65679 10.0066 9.58113 10.0806C9.46073 10.1984 9.33869 10.3153 9.22807 10.442C9.09514 10.5942 8.97346 10.7562 8.83462 10.9228C8.81467 10.9542 8.79473 10.9856 8.77478 11.017C8.78435 11.0232 8.79392 11.0294 8.80349 11.0357C8.8261 11.0009 8.84872 10.9661 8.88638 10.9284ZM13.8817 25.2411C13.9489 25.2299 14.0184 25.2261 14.0829 25.2061C14.2234 25.1628 14.3579 25.0905 14.5009 25.0671C14.8591 25.0083 15.1835 24.8701 15.4948 24.6926C15.7564 24.5435 16.0234 24.4027 16.2763 24.2399C16.5907 24.0375 16.9005 23.8261 17.1981 23.5999C17.3986 23.4475 17.5753 23.2636 17.7612 23.0922C17.9009 22.9635 18.0439 22.8378 18.175 22.7007C18.3144 22.5549 18.443 22.3984 18.5737 22.2444C18.6816 22.1173 18.7868 21.988 18.8903 21.8573C18.9089 21.8339 18.9131 21.7993 18.9216 21.7762C18.7087 21.8623 18.5012 21.948 18.2922 22.0299C18.1461 22.0872 17.9896 22.1236 17.8524 22.1968C17.5904 22.3367 17.3386 22.4958 17.0829 22.6475C16.9206 22.7438 16.7535 22.8331 16.5984 22.94C16.3677 23.099 16.1445 23.2691 15.9205 23.4376C15.6799 23.6187 15.4426 23.804 15.203 23.9863C14.8712 24.2387 14.5592 24.5126 14.2696 24.813C14.1644 24.9222 14.0402 25.0128 13.9278 25.1152C13.8934 25.1465 13.8693 25.1891 13.829 25.2343C13.8267 25.2425 13.8245 25.2507 13.8223 25.2589C13.8359 25.2534 13.8495 25.2479 13.8817 25.2411ZM6.40343 21.6896C6.27516 21.7323 6.14689 21.7749 6.02898 21.8142C6.17926 21.8272 6.33965 21.8273 6.49341 21.8593C6.59312 21.8801 6.68415 21.9455 6.77651 21.9956C6.79095 22.0034 6.80197 22.0403 6.7959 22.0569C6.78976 22.0737 6.75898 22.0936 6.74156 22.0915C6.70827 22.0873 6.67617 22.0699 6.64469 22.0555C6.5597 22.0168 6.47671 21.9478 6.39032 21.9435C6.23595 21.9359 6.07535 21.9495 5.92528 21.9864C5.72922 22.0346 5.54449 22.1211 5.39085 22.2601C5.37734 22.2723 5.36486 22.2897 5.34886 22.2945C5.25039 22.3238 5.22687 22.4044 5.20948 22.4903C5.20464 22.5143 5.20727 22.551 5.19288 22.5599C5.06949 22.6362 5.09688 22.7518 5.11108 22.862C5.12514 22.9712 5.16829 23.0781 5.0342 23.1562C4.97234 23.1922 4.93446 23.2694 4.87988 23.3349C5.35935 23.6559 5.83364 23.9767 6.34338 24.2254C6.39224 24.1078 6.42223 23.998 6.47976 23.9054C6.58755 23.7317 6.70726 23.5612 6.87891 23.4448C7.17629 23.2433 7.46794 23.0346 7.84372 22.9835C8.10625 22.9478 8.36289 22.9177 8.62162 22.9893C8.73337 23.0203 8.85277 23.1387 8.81792 23.2602C8.80632 23.3007 8.7509 23.3455 8.70773 23.3559C8.64582 23.3707 8.61695 23.3215 8.62186 23.2586C8.63051 23.1476 8.5435 23.1171 8.46769 23.106C8.33042 23.086 8.18891 23.0722 8.05121 23.0826C7.80008 23.1017 7.56787 23.1961 7.34192 23.3032C7.31883 23.3142 7.30188 23.3381 7.27922 23.3585C7.38 23.371 7.47119 23.3775 7.56028 23.3948C7.63232 23.4088 7.64059 23.4666 7.59443 23.5082C7.56743 23.5326 7.50355 23.5386 7.46619 23.5252C7.2842 23.4599 7.12336 23.504 6.97622 23.6112C6.9082 23.6608 6.86059 23.7405 6.7898 23.7837C6.62621 23.8836 6.61179 24.0386 6.61434 24.2018C6.61694 24.3683 6.75168 24.4381 6.87184 24.4901C6.96856 24.532 7.07458 24.498 7.15067 24.396C7.17505 24.3633 7.26926 24.3454 7.30457 24.3663C7.36824 24.4039 7.34061 24.469 7.29016 24.5136C7.24709 24.5517 7.20117 24.5865 7.13762 24.6382C7.35238 24.7078 7.55183 24.7771 7.75413 24.8368C7.99869 24.9089 8.24597 24.9718 8.4914 25.041C8.56067 25.0606 8.62597 25.0958 8.69587 25.1112C8.88526 25.1529 9.07627 25.1871 9.26641 25.2254C9.47981 25.2684 9.69296 25.3126 9.92647 25.3605C9.91108 25.0072 9.89638 24.6697 9.88168 24.3321C9.80257 24.4013 9.75186 24.4793 9.69214 24.5495C9.59457 24.6643 9.53373 24.8104 9.35328 24.847C9.19844 24.8785 9.05939 24.8963 8.93399 24.7862C8.81376 24.6807 8.77855 24.437 8.87134 24.2774C8.96034 24.1243 9.04793 23.9625 9.17057 23.8387C9.35467 23.6528 9.56523 23.4921 9.77209 23.3304C9.84649 23.2722 9.89515 23.2229 9.89449 23.1191C9.89018 22.4429 9.89278 21.7668 9.89296 21.0906C9.89297 21.0572 9.89132 21.0239 9.89077 20.9905C9.88655 20.7326 9.87911 20.4747 9.87926 20.2168C9.8794 19.9987 9.91699 19.7764 9.88619 19.5635C9.84748 19.2959 9.90427 19.0299 9.85623 18.7626C9.82839 18.6076 9.86779 18.4412 9.87149 18.2798C9.87532 18.1128 9.87826 17.9453 9.87089 17.7785C9.86499 17.6448 9.83238 17.512 9.83032 17.3785C9.82459 17.006 9.82874 16.6333 9.82841 16.2607C9.82838 16.2295 9.82393 16.1982 9.82109 16.1611C9.79787 16.1667 9.77961 16.1654 9.77074 16.174C9.65222 16.2881 9.52999 16.3989 9.41898 16.52C9.32075 16.6272 9.19358 16.7154 9.1707 16.8799C9.16625 16.9119 9.10406 16.9359 9.0685 16.9636C9.06031 16.9555 9.05213 16.9474 9.04395 16.9393C9.04395 16.9976 9.04395 17.0558 9.04395 17.1181C9.1348 17.143 9.22485 17.1666 9.31411 17.1928C9.34362 17.2015 9.39226 17.2136 9.39493 17.2302C9.39978 17.2602 9.38084 17.297 9.3646 17.327C9.31866 17.412 9.25062 17.4901 9.22645 17.5803C9.20504 17.6603 9.16331 17.6866 9.09772 17.7016C9.02669 17.7179 8.95538 17.7396 8.88338 17.7434C8.79672 17.7479 8.69623 17.7617 8.62478 17.7257C8.47972 17.6527 8.44701 17.4734 8.52837 17.3248C8.71993 16.9749 8.9672 16.6639 9.22516 16.3632C9.39304 16.1676 9.59077 15.9977 9.77035 15.8117C9.80177 15.7792 9.82509 15.7241 9.82576 15.679C9.83103 15.3224 9.83001 14.9658 9.83068 14.6091C9.83099 14.4464 9.83073 14.2836 9.83073 14.1333C8.93286 14.3614 8.04445 14.5871 7.14642 14.8153C7.28251 14.8661 7.40969 14.906 7.53044 14.9603C7.7564 15.0619 7.97657 15.1764 8.20317 15.2764C8.3431 15.3382 8.41011 15.4184 8.41321 15.5724C8.41801 15.8106 8.42204 16.0488 8.42564 16.2871C8.43134 16.6645 8.44243 17.042 8.43943 17.4194C8.43771 17.6355 8.40523 17.8513 8.40042 18.0675C8.39649 18.244 8.41579 18.4208 8.41999 18.5976C8.42931 18.9902 8.43432 19.3829 8.4438 19.7755C8.44743 19.9263 8.46232 20.077 8.46511 20.2278C8.46886 20.4309 8.4746 20.6346 8.46268 20.837C8.45469 20.9725 8.46263 21.0037 8.5998 21.0375C8.67023 21.0548 8.75199 21.0534 8.80955 21.0903C8.94409 21.1765 9.072 21.2749 9.19356 21.379C9.34233 21.5063 9.38268 21.6703 9.27903 21.8296C9.14939 22.029 9.03787 22.2451 8.85221 22.4033C8.82778 22.4241 8.79101 22.4305 8.75995 22.4435C8.76182 22.4025 8.75736 22.3599 8.76683 22.3208C8.78788 22.2337 8.85235 22.1375 8.7734 22.0623C8.64911 21.944 8.519 21.8243 8.37159 21.7395C8.08452 21.5744 7.75921 21.5609 7.43617 21.5553C7.42132 21.5551 7.40639 21.5547 7.39162 21.5559C7.37701 21.5571 7.36256 21.5602 7.33254 21.5648C7.60872 21.6667 7.85659 21.7799 8.03473 22.0013C8.15031 22.1449 8.2546 22.2861 8.2401 22.4956C8.2312 22.6242 8.11055 22.7999 7.96949 22.8471C7.89478 22.8721 7.82921 22.8195 7.80974 22.7563C7.79196 22.6986 7.84425 22.6724 7.90619 22.6458C7.96681 22.6198 8.041 22.5342 8.04112 22.4745C8.0416 22.2412 7.89154 22.0759 7.72539 21.938C7.60519 21.8382 7.45464 21.7913 7.29918 21.7453C7.00549 21.6585 6.71653 21.6296 6.40343 21.6896ZM3.69986 16.8174C3.61338 16.8678 3.52396 16.9139 3.44107 16.9696C3.29456 17.0682 3.15918 17.1786 3.04799 17.3196C2.87077 17.5444 2.72139 17.7848 2.62666 18.0545C2.54233 18.2945 2.47235 18.5397 2.39877 18.7834C2.38275 18.8365 2.37839 18.8931 2.36794 18.9521C2.49019 18.7914 2.59699 18.6377 2.71993 18.4982C2.75255 18.4612 2.85857 18.4373 2.88933 18.4611C2.9532 18.5105 2.87848 18.5481 2.84374 18.5924C2.73893 18.7261 2.64019 18.8652 2.54684 19.0073C2.41774 19.2037 2.42396 19.4293 2.42558 19.6515C2.4273 19.8874 2.5074 20.0888 2.69525 20.2412C2.71021 20.2533 2.72373 20.2954 2.71747 20.3011C2.66574 20.3483 2.61879 20.4178 2.53147 20.3678C2.49919 20.3494 2.46657 20.3315 2.42022 20.3056C2.5106 20.6275 2.74267 20.7937 3.02779 20.9356C2.95086 20.9904 2.90033 21.0264 2.82905 21.0771C2.948 21.2137 3.07164 21.3582 3.19873 21.4996C3.22744 21.5315 3.26486 21.5601 3.30394 21.5775C3.55865 21.6908 3.81875 21.7769 4.10405 21.7135C4.38637 21.6508 4.65379 21.5568 4.83801 21.3175C4.89482 21.2437 4.92311 21.1485 4.96956 21.066C5.08692 20.8576 5.03561 20.5853 4.85435 20.4319C4.82965 20.411 4.83194 20.3582 4.82173 20.3201C4.86341 20.3103 4.91927 20.2783 4.94437 20.2944C5.06932 20.3744 5.18821 20.4746 5.20343 20.6313C5.23191 20.9246 5.18442 21.2054 4.99345 21.4439C4.80393 21.6805 4.54701 21.8007 4.25521 21.8632C4.26895 21.8699 4.2839 21.8796 4.3003 21.8844C4.31777 21.8896 4.33666 21.8925 4.35485 21.8922C4.73199 21.8859 5.02797 21.7284 5.237 21.4134C5.27216 21.3604 5.30228 21.3029 5.32702 21.2443C5.37569 21.1289 5.44432 21.0143 5.45867 20.8939C5.482 20.6982 5.47189 20.4981 5.46949 20.2999C5.46528 19.9528 5.35321 19.6463 5.11127 19.3921C5.02007 19.2963 4.91085 19.2426 4.77593 19.2428C4.71746 19.2429 4.67276 19.2471 4.65126 19.3166C4.63488 19.3695 4.54885 19.3706 4.50836 19.3249C4.45909 19.2694 4.51046 19.0981 4.58739 19.0939C4.69942 19.0877 4.82053 19.0842 4.92408 19.1197C5.14861 19.1964 5.27893 19.3873 5.40518 19.5761C5.4212 19.6 5.44242 19.6205 5.46942 19.6522C5.47844 19.6208 5.48431 19.6103 5.48405 19.5999C5.47496 19.2301 5.45734 18.8603 5.4583 18.4906C5.45903 18.2097 5.31284 18.0092 5.13574 17.8201C5.08723 17.7684 5.03292 17.7145 4.97023 17.6852C4.85347 17.6305 4.73079 17.5855 4.60661 17.5505C4.42071 17.4983 4.23206 17.4336 4.05014 17.5762C4.02568 17.5953 3.96203 17.5771 3.92456 17.5592C3.91347 17.554 3.91594 17.475 3.93624 17.4572C4.0019 17.3996 4.07518 17.3482 4.15202 17.3063C4.30156 17.2249 4.47075 17.1966 4.63494 17.1973C4.83718 17.1982 5.04022 17.2306 5.24087 17.2623C5.31189 17.2735 5.37693 17.3226 5.45964 17.3614C5.47405 16.6307 5.488 15.923 5.50203 15.2107C5.48014 15.2179 5.46002 15.2264 5.43904 15.2311C5.07256 15.3129 4.70566 15.3928 4.33953 15.4762C4.11623 15.527 3.89343 15.5803 3.6716 15.6371C3.46544 15.69 3.26072 15.7486 3.05567 15.8057C2.95468 15.8338 2.85294 15.8603 2.75404 15.8947C2.55439 15.9642 2.32388 15.927 2.14539 16.0706C2.13954 16.0754 2.11818 16.0566 2.10706 16.0597C2.02328 16.0828 1.90914 16.0531 1.88858 16.1878C1.85972 16.3767 1.82639 16.5649 1.79696 16.7538C1.78243 16.8471 1.76648 16.9407 1.76144 17.0348C1.74897 17.2675 1.72376 17.5016 1.7382 17.7331C1.75627 18.0228 1.80835 18.3104 1.84685 18.5987C1.85854 18.6863 1.87384 18.7734 1.88749 18.8607C1.92038 18.7034 1.92561 18.5491 1.9401 18.3957C1.95381 18.2504 1.97184 18.1051 1.99777 17.9617C2.03072 17.7793 2.06866 17.5976 2.11377 17.4179C2.14603 17.2894 2.18916 17.1631 2.23566 17.0389C2.27829 16.925 2.32917 16.8139 2.38183 16.7042C2.4107 16.644 2.44715 16.5863 2.48937 16.535C2.49633 16.5265 2.57691 16.5542 2.57862 16.5701C2.58617 16.64 2.58589 16.7028 2.53301 16.7738C2.43554 16.9046 2.35364 17.0525 2.29455 17.2047C2.23812 17.3501 2.21078 17.5085 2.1853 17.6636C2.14219 17.926 2.11058 18.1903 2.07424 18.4539C2.07025 18.4828 2.07371 18.515 2.06215 18.5404C1.98371 18.7127 2.02119 18.8841 2.05237 19.0641C2.07073 19.0498 2.0858 19.0442 2.08723 19.0361C2.11438 18.8828 2.13672 18.7287 2.16675 18.576C2.19275 18.4438 2.2237 18.3124 2.25873 18.1823C2.29432 18.0502 2.35626 17.9224 2.37235 17.7885C2.3891 17.6491 2.456 17.5335 2.51922 17.4231C2.63548 17.2202 2.77694 17.0304 2.92082 16.8451C3.12531 16.5818 3.38029 16.3823 3.71899 16.3281C3.85131 16.3069 3.99042 16.3073 4.0897 16.4395C4.16378 16.5381 4.16366 16.6436 4.11491 16.7371C4.09226 16.7805 4.00351 16.7993 3.94144 16.8098C3.86917 16.8219 3.7933 16.8128 3.69986 16.8174ZM17.0447 20.6055C17.1498 20.641 17.2589 20.668 17.3593 20.7138C17.5847 20.8167 17.8022 20.9375 18.0296 21.0355C18.367 21.1809 18.698 21.3363 19.005 21.5399C19.0231 21.5519 19.0781 21.5436 19.0873 21.528C19.1407 21.437 19.2152 21.3446 19.2272 21.246C19.2518 21.0433 19.2672 20.8327 19.239 20.6321C19.2011 20.3627 19.1208 20.099 19.0533 19.8342C19.0314 19.7481 19.0003 19.6623 18.9598 19.5833C18.8898 19.4463 18.7984 19.3196 18.7351 19.1799C18.5718 18.82 18.2797 18.5554 18.068 18.2379C17.8781 18.3812 17.6985 18.5225 17.4502 18.6087C17.4774 18.5674 17.4875 18.5532 17.4966 18.5382C17.5548 18.4421 17.4841 18.3745 17.434 18.3136C17.3914 18.262 17.3288 18.2562 17.2622 18.3028C17.0716 18.4362 16.874 18.5595 16.6835 18.693C16.499 18.8223 16.3205 18.9602 16.1383 19.0927C15.9137 19.256 15.6881 19.4181 15.4624 19.5799C15.4002 19.6245 15.3356 19.6657 15.2727 19.7095C15.1514 19.7938 15.0306 19.8788 14.9141 19.9605C15.0283 19.9899 15.1431 20.0188 15.2575 20.049C15.5679 20.1308 15.8786 20.211 16.1881 20.2961C16.3347 20.3364 16.4804 20.3813 16.6234 20.4331C16.7604 20.4826 16.8933 20.5437 17.0447 20.6055ZM11.152 19.1099C11.2352 19.1401 11.3229 19.1615 11.4008 19.2019C11.7702 19.3936 12.1742 19.4602 12.576 19.5331C12.8973 19.5914 13.2205 19.6388 13.5426 19.6924C13.6135 19.7041 13.6833 19.7219 13.7538 19.7361C13.9241 19.7704 14.0954 19.8001 14.2646 19.8393C14.4786 19.8888 14.6798 19.949 14.8846 19.78C15.0829 19.6166 15.3114 19.4899 15.5465 19.3339C15.41 19.3052 15.2973 19.2898 15.1897 19.2572C14.9061 19.1715 14.6245 19.0796 14.3428 18.9878C14.1762 18.9336 14.0064 18.8856 13.846 18.8163C13.4642 18.6513 13.0834 18.4829 12.7097 18.3006C12.5107 18.2035 12.3283 18.0728 12.136 17.9613C12.0736 17.925 11.998 17.8694 11.9387 17.88C11.8521 17.8955 11.7736 17.9607 11.6938 18.0084C11.58 18.0766 11.4708 18.1528 11.3549 18.217C11.2197 18.2918 11.0782 18.3552 10.9417 18.4279C10.8432 18.4803 10.747 18.5374 10.6524 18.5967C10.5807 18.6417 10.5132 18.6936 10.421 18.7584C10.6727 18.8772 10.906 18.9874 11.152 19.1099ZM14.454 21.937C14.2567 21.8915 14.0609 21.837 13.8618 21.8025C13.5528 21.749 13.2422 21.7037 12.9309 21.6662C12.806 21.6512 12.6752 21.6815 12.551 21.6635C12.4124 21.6435 12.3103 21.6999 12.207 21.7705C12.0297 21.8918 11.8531 22.0139 11.6766 22.1363C11.5917 22.1953 11.5078 22.2558 11.4235 22.3157C11.4277 22.3247 11.4318 22.3337 11.436 22.3428C11.4874 22.3349 11.5396 22.3168 11.59 22.321C11.8585 22.3435 12.1278 22.3628 12.3941 22.4013C12.5305 22.4211 12.6595 22.4865 12.795 22.5178C13.0661 22.5803 13.3245 22.6724 13.5839 22.7749C13.7837 22.8539 13.9788 22.9383 14.1702 23.0341C14.3191 23.1086 14.4751 23.1713 14.6164 23.2581C14.8542 23.4042 15.0829 23.5653 15.3222 23.7246C15.4641 23.6235 15.6326 23.5045 15.7999 23.384C15.9472 23.2779 16.0923 23.1688 16.2403 23.0637C16.3217 23.0059 16.4091 22.9564 16.4889 22.8966C16.5046 22.8848 16.511 22.8277 16.4993 22.8177C16.4544 22.7794 16.4016 22.7494 16.3495 22.7204C16.1875 22.6302 16.0268 22.537 15.861 22.4541C15.6665 22.3568 15.4687 22.2656 15.2693 22.1788C15.1807 22.1403 15.0849 22.1182 14.9918 22.0903C14.8192 22.0385 14.6463 21.9881 14.454 21.937ZM11.5132 25.4871C12.105 25.5075 12.6873 25.426 13.2691 25.3414C13.195 25.2639 13.1369 25.1889 13.0651 25.1306C12.8559 24.9606 12.6451 24.7918 12.4274 24.633C12.274 24.5212 12.1139 24.416 11.9467 24.3266C11.7307 24.211 11.5054 24.1123 11.2826 24.0096C11.1284 23.9386 10.9751 23.8632 10.8151 23.8078C10.6129 23.7377 10.4051 23.683 10.1979 23.6284C10.1453 23.6145 10.0859 23.6263 10.0256 23.6263C10.0256 23.9632 10.0246 24.2866 10.0266 24.6099C10.0269 24.6638 10.0453 24.7176 10.0466 24.7716C10.0499 24.9088 10.046 25.0462 10.0491 25.1833C10.0534 25.3693 9.99867 25.4012 10.2393 25.3991C10.4075 25.3975 10.5766 25.3881 10.7438 25.4013C10.9939 25.4211 11.2426 25.4576 11.5132 25.4871ZM11.9764 21.7116C12.0068 21.6902 12.0372 21.6689 12.0846 21.6356C11.7975 21.5914 11.5342 21.5508 11.2709 21.5103C11.0278 21.4728 10.7848 21.4354 10.5417 21.3978C10.5308 21.3961 10.5195 21.3946 10.5095 21.3904C10.349 21.3226 10.1888 21.2543 10.0213 21.1831C10.0213 21.8304 10.0213 22.4737 10.0213 23.1467C10.7185 22.7087 11.3157 22.1798 11.9764 21.7116ZM9.98634 15.3945C9.98634 15.4528 9.98634 15.5111 9.98634 15.5891C10.8077 14.8592 11.6058 14.15 12.4038 13.4408C12.3981 13.4315 12.3925 13.4222 12.3868 13.4129C12.2836 13.4448 12.1813 13.4802 12.077 13.508C11.7908 13.5844 11.5037 13.6572 11.2172 13.7327C11.1793 13.7427 11.1443 13.7641 11.1062 13.773C10.9791 13.8028 10.8504 13.8261 10.7238 13.858C10.5222 13.9087 10.3226 13.9675 10.1205 14.0163C10.0317 14.0377 9.98375 14.067 9.98549 14.1743C9.99196 14.5737 9.98696 14.9733 9.98634 15.3945ZM8.32932 11.3998C8.3309 11.4339 8.33247 11.468 8.33525 11.5282C8.3869 11.4295 8.41848 11.3519 8.46455 11.2841C8.62129 11.0537 8.77307 10.8188 8.94555 10.6004C9.16489 10.3228 9.40212 10.0595 9.68538 9.84205C9.74102 9.79933 9.82149 9.74252 9.82563 9.68734C9.84193 9.47045 9.83231 9.25162 9.83231 9.008C9.70856 9.008 9.59538 9.00245 9.48298 9.00948C9.35895 9.01725 9.23574 9.03751 9.11199 9.0506C8.94227 9.06855 8.77239 9.08488 8.5891 9.10325C8.60579 9.12427 8.61503 9.13874 8.62695 9.15049C8.78346 9.30479 8.82487 9.49556 8.75043 9.69183C8.66012 9.92994 8.53805 10.1559 8.43339 10.3887C8.3901 10.485 8.3157 10.5626 8.32476 10.6884C8.34126 10.9175 8.32937 11.1486 8.32932 11.3998ZM9.36744 24.3315C9.51116 24.3925 9.64689 24.3374 9.77935 24.2934C9.81807 24.2805 9.86381 24.2219 9.86718 24.181C9.88289 23.9909 9.88825 23.7996 9.88966 23.6087C9.89008 23.5519 9.80529 23.5298 9.75396 23.5698C9.58182 23.7037 9.41463 23.8444 9.23713 23.9707C9.15816 24.0269 9.16593 24.0959 9.19569 24.1519C9.23112 24.2186 9.29808 24.2685 9.36744 24.3315ZM11.0612 9.07036C11.0375 9.07505 11.0134 9.08528 10.9901 9.08357C10.7425 9.0653 10.4952 9.04403 10.2476 9.02635C10.1915 9.02234 10.1333 9.03738 10.0783 9.02883C9.99089 9.01522 9.97495 9.05663 9.98036 9.12885C9.98609 9.20548 9.99022 9.28231 9.99219 9.35912C9.99416 9.43627 9.99262 9.5135 9.99262 9.61743C10.4036 9.35219 10.8297 9.20524 11.2808 9.12054C11.2133 9.10587 11.1458 9.09121 11.0612 9.07036ZM8.34707 12.8956C8.34707 13.0401 8.34707 13.1845 8.34707 13.3288C8.59815 13.2697 8.85044 13.2103 9.09138 13.1536C8.96168 13.1024 8.82192 13.0625 8.69798 12.994C8.57269 12.9248 8.46308 12.8272 8.34706 12.7423C8.34706 12.7799 8.34706 12.8279 8.34707 12.8956ZM1.5456 16.7143C1.53172 16.8437 1.50852 16.973 1.50662 17.1026C1.50475 17.2295 1.52349 17.3567 1.53539 17.4836C1.54053 17.5384 1.50173 17.6125 1.59617 17.6344C1.6012 17.6355 1.59682 17.6774 1.59682 17.7003C1.58953 17.1842 1.6325 16.6717 1.74206 16.1501C1.67189 16.1693 1.62425 16.1824 1.58576 16.1929C1.57211 16.3666 1.55922 16.5306 1.5456 16.7143ZM1.48345 16.5072C1.48345 16.4031 1.48345 16.2989 1.48345 16.1948C1.4401 16.2149 1.40064 16.2445 1.39696 16.278C1.38017 16.4311 1.36314 16.5855 1.36544 16.7392C1.36907 16.9815 1.38572 17.2237 1.40222 17.4656C1.40657 17.5293 1.4306 17.5916 1.44559 17.6546C1.4559 17.6532 1.46622 17.6519 1.47653 17.6505C1.45735 17.276 1.38948 16.9006 1.48345 16.5072ZM17.0196 27.9989C16.9773 28.1437 16.9432 28.2891 16.9778 28.4461C17.0405 28.1485 17.1017 27.8584 17.1597 27.5832C17.0659 27.6862 17.0377 27.8309 17.0196 27.9989ZM5.31742 14.0225C5.31618 14.0191 5.31552 14.0152 5.31344 14.0123C5.3124 14.0109 5.30772 14.01 5.30649 14.011C5.2183 14.0851 5.13029 14.1593 5.04515 14.2312C5.18209 14.234 5.28399 14.1846 5.31742 14.0225ZM3.35337 10.4148C3.33383 10.4083 3.30138 10.3912 3.29676 10.3968C3.25441 10.4486 3.21689 10.5043 3.16007 10.584C3.27254 10.565 3.30127 10.4895 3.35337 10.4148ZM2.44958 11.6192C2.44662 11.6063 2.44366 11.5934 2.4407 11.5805C2.42851 11.5986 2.41631 11.6167 2.40412 11.6348C2.41553 11.6334 2.42695 11.6319 2.44958 11.6192ZM11.6106 28.7875C11.6136 28.7853 11.617 28.7835 11.6195 28.7808C11.6207 28.7794 11.6203 28.7764 11.6206 28.7742C11.5978 28.7724 11.575 28.7707 11.5523 28.769C11.5521 28.7757 11.5519 28.7825 11.5517 28.7892C11.5656 28.7892 11.5795 28.7892 11.6106 28.7875ZM11.0378 18.0482C11.0222 18.048 11.0065 18.0473 10.9911 18.0487C10.9901 18.0488 10.9906 18.0654 10.9904 18.0743C11.0046 18.072 11.0187 18.0696 11.0378 18.0482ZM11.6716 28.7743C11.6662 28.7739 11.6608 28.7736 11.6553 28.7733C11.6579 28.7759 11.6605 28.7785 11.6716 28.7743Z" fill="#FC4752"/>
<path d="M0.0605469 17.1573C0.0713742 17.1479 0.0917062 17.1493 0.0916844 17.1498C0.0880616 17.2447 0.08298 17.3396 0.0692511 17.4356C0.0605469 17.347 0.0605469 17.2573 0.0605469 17.1573Z" fill="#FC4752"/>
<path d="M0.0605469 16.8868C0.0750865 16.8791 0.0896261 16.8788 0.112679 16.8752C0.104549 16.8955 0.0879066 16.9192 0.0659054 16.9335C0.0605469 16.9141 0.0605469 16.9042 0.0605469 16.8868Z" fill="#FC4752"/>
<path d="M7.39679 7.80751C7.40708 7.80832 7.41737 7.80912 7.43522 7.81183C7.34295 7.86108 7.2457 7.91528 7.14257 7.95376C7.04928 7.98857 6.94958 8.00623 6.8527 8.03145C6.8472 8.02113 6.84169 8.01081 6.83619 8.00049C6.88949 7.9652 6.94279 7.9299 7.01266 7.89704C7.14254 7.85282 7.26467 7.81922 7.32782 7.69814C7.36498 7.66592 7.40213 7.6337 7.45093 7.61097C7.48363 7.60712 7.50469 7.59378 7.52576 7.58045C7.52576 7.58045 7.52681 7.58033 7.53328 7.58908C7.55751 7.57728 7.57527 7.55671 7.59303 7.53615C7.59303 7.53615 7.59063 7.53757 7.59003 7.5363C7.63956 7.51749 7.68969 7.49994 7.75103 7.48572C7.77373 7.49803 7.78522 7.50703 7.7967 7.51602C7.6584 7.60189 7.52011 7.68776 7.37144 7.78253C7.35066 7.80012 7.34027 7.8088 7.32987 7.81747C7.33219 7.82208 7.33451 7.82669 7.33684 7.83129C7.35682 7.82336 7.37681 7.81544 7.39679 7.80751Z" fill="#FC4752"/>
<path d="M11.5651 28.4534C11.5685 28.4488 11.5719 28.4443 11.5698 28.4333C11.6598 28.4149 11.7551 28.4027 11.8504 28.3912C11.8882 28.3866 11.9262 28.3836 11.9772 28.3898C12.1339 28.3859 12.2774 28.3727 12.4206 28.3567C12.4266 28.356 12.4296 28.3291 12.434 28.3143C12.5359 28.3108 12.6377 28.3067 12.7395 28.3048C12.7452 28.3047 12.7512 28.3222 12.7596 28.3438C12.7299 28.3584 12.6942 28.353 12.6661 28.3651C12.6373 28.3775 12.616 28.4072 12.5914 28.4293C12.5914 28.4293 12.5924 28.4273 12.5932 28.4281C12.4786 28.4324 12.363 28.4316 12.248 28.4404C12.1587 28.4473 12.0704 28.466 11.9705 28.4751C11.8998 28.4676 11.8403 28.4641 11.7806 28.4616C11.7088 28.4584 11.637 28.4561 11.5651 28.4534Z" fill="#FC4752"/>
<path d="M16.9737 29.0648C16.9562 29.0898 16.9433 29.1072 16.9285 29.1346C16.918 29.1385 16.902 29.1322 16.9021 29.1262C16.9051 28.9629 16.9084 28.7996 16.9159 28.6365C16.9169 28.6143 16.9408 28.5933 16.9782 28.5796C16.9782 28.7388 16.9782 28.8979 16.9737 29.0648Z" fill="#FC4752"/>
<path d="M12.6862 28.8274C12.679 28.8164 12.6796 28.8041 12.6796 28.7826C12.7393 28.7391 12.7995 28.7049 12.871 28.6735C12.8823 28.6764 12.8884 28.684 12.8884 28.684C12.8236 28.7314 12.7587 28.7788 12.6862 28.8274Z" fill="#FC4752"/>
<path d="M2.29806 11.8266C2.27183 11.8809 2.2456 11.9351 2.21937 11.9893C2.20441 11.9807 2.18945 11.972 2.17448 11.9633C2.20725 11.9158 2.24001 11.8683 2.28276 11.8211C2.29275 11.8214 2.29806 11.8266 2.29806 11.8266Z" fill="#FC4752"/>
<path d="M12.5849 28.7855C12.5376 28.8146 12.4819 28.8422 12.4176 28.8697C12.4649 28.8411 12.5207 28.8125 12.5849 28.7855Z" fill="#FC4752"/>
<path d="M2.29007 11.8188C2.31852 11.762 2.34965 11.7078 2.38077 11.6536C2.39233 11.6612 2.40388 11.6688 2.41544 11.6764C2.38033 11.7236 2.34522 11.7707 2.30408 11.8222C2.29806 11.8266 2.29275 11.8214 2.29007 11.8188Z" fill="#FC4752"/>
<path d="M16.6271 27.4469C16.6369 27.4268 16.6466 27.4066 16.6623 27.3831C16.6842 27.3793 16.7001 27.3791 16.7241 27.3788C16.7196 27.4013 16.707 27.4237 16.6789 27.4471C16.6512 27.4477 16.6392 27.4473 16.6271 27.4469Z" fill="#FC4752"/>
<path d="M2.10613 12.0811C2.12266 12.051 2.1392 12.021 2.15573 11.991C2.16589 11.9971 2.17605 12.0032 2.18621 12.0094C2.16906 12.0358 2.1519 12.0623 2.12414 12.0886C2.11354 12.0884 2.10613 12.0811 2.10613 12.0811Z" fill="#FC4752"/>
<path d="M2.44397 11.6248C2.42695 11.6319 2.41553 11.6334 2.40412 11.6348C2.41631 11.6167 2.42851 11.5986 2.4407 11.5805C2.44366 11.5934 2.44662 11.6063 2.44397 11.6248Z" fill="#FC4752"/>
<path d="M12.3167 28.9042C12.3025 28.9182 12.284 28.9274 12.258 28.933C12.2711 28.9194 12.2918 28.9094 12.3167 28.9042Z" fill="#FC4752"/>
<path d="M12.4009 28.8707C12.3971 28.8846 12.3869 28.8981 12.3698 28.9088C12.3734 28.894 12.384 28.8821 12.4009 28.8707Z" fill="#FC4752"/>
<path d="M12.8792 28.6726C12.8897 28.6653 12.9033 28.6618 12.9169 28.6583C12.9116 28.6654 12.9063 28.6724 12.8947 28.6817C12.8884 28.684 12.8823 28.6764 12.8792 28.6726Z" fill="#FC4752"/>
<path d="M13.8577 25.2381C13.8495 25.2479 13.8359 25.2534 13.8223 25.2589C13.8245 25.2507 13.8267 25.2425 13.8347 25.2304C13.8444 25.2289 13.8483 25.2314 13.8577 25.2381Z" fill="#FC4752"/>
<path d="M2.11707 12.0922C2.11308 12.0987 2.10556 12.1013 2.09804 12.1039C2.0977 12.0987 2.09736 12.0934 2.10158 12.0846C2.10613 12.0811 2.11354 12.0884 2.11707 12.0922Z" fill="#FC4752"/>
<path d="M16.7502 27.3386C16.7539 27.343 16.7533 27.3513 16.7465 27.3618C16.7421 27.3568 16.744 27.3497 16.7502 27.3386Z" fill="#FC4752"/>
<path d="M20.064 12.8062C20.1774 12.6384 20.2827 12.4749 20.3944 12.316C20.4176 12.2829 20.4648 12.2667 20.5009 12.2427C20.5172 12.275 20.5402 12.3056 20.5486 12.3399C20.5724 12.438 20.5692 12.547 20.6834 12.5996C20.7467 12.6287 20.813 12.6578 20.8658 12.7015C20.9557 12.7761 21.0353 12.8631 21.121 12.943C21.142 12.9625 21.1728 12.9915 21.1938 12.9876C21.3324 12.9618 21.4121 13.085 21.4637 13.1507C21.5526 13.2637 21.7072 13.2602 21.7815 13.3963C21.8477 13.5174 21.9811 13.6011 22.0816 13.7044C22.1549 13.7795 22.1264 13.9005 22.0311 14.0187C21.9414 14.1299 21.8697 14.2555 21.781 14.3677C21.7145 14.4517 21.6361 14.527 21.5586 14.6015C21.3532 14.7987 21.1471 14.9925 20.9934 15.2383C20.916 15.362 20.7948 15.4581 20.6953 15.5684C20.6135 15.659 20.5346 15.7521 20.4468 15.8528C20.3291 15.8561 20.2714 15.7756 20.3206 15.6497C20.3563 15.5583 20.3677 15.4991 20.259 15.4247C20.0515 15.2829 19.8683 15.1055 19.6755 14.9424C19.4494 14.7511 19.2236 14.5594 18.998 14.3676C18.8698 14.2587 18.8494 14.1811 18.9654 14.0333C19.1139 13.8442 19.2902 13.6771 19.4487 13.4955C19.619 13.3002 19.7817 13.0982 19.9502 12.9012C19.9801 12.8663 20.0219 12.8415 20.064 12.8062Z" fill="#FC4752"/>
<path d="M16.6216 27.4526C16.6392 27.4473 16.6512 27.4477 16.6723 27.449C16.602 27.6228 16.5281 27.7986 16.4419 27.968C16.3256 28.1967 16.1954 28.4184 16.0805 28.6479C16.0425 28.7239 16.0339 28.8146 16.0112 28.8984C16.0037 28.9263 16.0005 28.9587 15.9838 28.98C15.9624 29.0073 15.9293 29.0255 15.9012 29.0476C15.8834 29.0104 15.8456 28.9697 15.8512 28.9364C15.8805 28.7624 15.9527 28.6066 16.0512 28.4573C16.1786 28.2645 16.2848 28.0577 16.4011 27.8575C16.4308 27.8063 16.4639 27.7572 16.5063 27.6976C16.522 27.6714 16.527 27.6547 16.5319 27.6381C16.56 27.5782 16.5881 27.5182 16.6216 27.4526Z" fill="#FC4752"/>
<path d="M16.5256 27.6412C16.527 27.6547 16.522 27.6714 16.5106 27.6904C16.5091 27.6766 16.5142 27.6605 16.5256 27.6412Z" fill="#FC4752"/>
<path d="M11.7676 5.06991C12.1155 4.82074 12.4492 4.55501 12.7345 4.23373C12.9128 4.033 13.1191 3.84913 13.2587 3.62411C13.4201 3.36401 13.5974 3.09097 13.5326 2.74916C13.5248 2.7079 13.5598 2.6404 13.596 2.61256C13.6816 2.54692 13.7467 2.58348 13.745 2.68974C13.743 2.8208 13.722 2.94679 13.6931 3.07763C13.6013 3.49354 13.3306 3.78525 13.0583 4.07469C12.8067 4.34217 12.5582 4.61727 12.2434 4.81739C12.1037 4.90618 11.965 4.9965 11.8121 5.08376C11.7882 5.07756 11.7779 5.07374 11.7676 5.06991Z" fill="#FC4752"/>
<path d="M7.80367 7.5122C7.78522 7.50703 7.77373 7.49803 7.75903 7.48436C8.23167 7.20274 8.70754 6.9258 9.19682 6.64982C9.21493 6.65759 9.21964 6.66439 9.22434 6.67119C9.15088 6.71626 9.07758 6.7616 9.00393 6.80637C8.7231 6.97705 8.44309 7.14909 8.16081 7.31734C8.04668 7.38537 7.92752 7.44495 7.80367 7.5122Z" fill="#FC4752"/>
<path d="M9.23272 6.67129C9.21964 6.66439 9.21493 6.65759 9.20456 6.64796C9.3711 6.53831 9.54273 6.43055 9.71567 6.32493C9.9141 6.20375 10.1136 6.08435 10.313 5.96475C10.3218 5.95948 10.334 5.95995 10.3522 5.96512C10.3601 5.9827 10.3605 5.99292 10.361 6.00313C10.148 6.13434 9.9362 6.26754 9.72164 6.39612C9.56333 6.491 9.40142 6.57986 9.23272 6.67129Z" fill="#FC4752"/>
<path d="M11.7616 5.07427C11.7779 5.07374 11.7882 5.07756 11.8037 5.0835C11.6422 5.2761 11.4071 5.37039 11.1956 5.50787C11.1771 5.49736 11.1693 5.49184 11.1615 5.48632C11.3207 5.37611 11.4798 5.26575 11.6392 5.15579C11.6775 5.12938 11.7167 5.10432 11.7616 5.07427Z" fill="#FC4752"/>
<path d="M11.1546 5.49005C11.1693 5.49184 11.1771 5.49736 11.1878 5.50947C10.9871 5.63291 10.7833 5.74975 10.5676 5.86318C10.5557 5.85976 10.5489 5.85205 10.5489 5.85205C10.7485 5.73263 10.9481 5.6132 11.1546 5.49005Z" fill="#FC4752"/>
<path d="M10.3688 6.00076C10.3605 5.99292 10.3601 5.9827 10.3603 5.96484C10.4192 5.92504 10.4774 5.89288 10.5423 5.85639C10.5489 5.85205 10.5557 5.85976 10.559 5.86368C10.5004 5.91119 10.4385 5.95479 10.3688 6.00076Z" fill="#FC4752"/>
<path d="M9.59642 28.5612C9.37784 28.5251 9.15932 28.4886 8.94067 28.4528C8.80635 28.4308 8.67064 28.4157 8.53768 28.3875C8.26887 28.3305 8.00046 28.2708 7.73394 28.2041C7.57461 28.1641 7.41677 28.1153 7.26259 28.0586C7.05275 27.9815 6.84632 27.8949 6.63976 27.8092C6.42348 27.7194 6.21038 27.6219 5.99295 27.5351C5.76479 27.444 5.5357 27.3539 5.30246 27.2772C4.9195 27.1513 4.53498 27.0289 4.14668 26.921C4.00046 26.8803 3.84219 26.88 3.68886 26.8687C3.43984 26.8503 3.19051 26.8333 2.94101 26.8262C2.87169 26.8242 2.80177 26.861 2.7313 26.8762C2.66467 26.8906 2.59727 26.9035 2.52954 26.9094C2.51164 26.9109 2.47927 26.8867 2.47532 26.8694C2.47104 26.8506 2.48745 26.8216 2.50312 26.8047C2.58988 26.7115 2.71288 26.7198 2.82109 26.7142C3.06236 26.7019 3.30509 26.7017 3.54645 26.713C3.76468 26.7232 3.98568 26.7373 4.19857 26.7823C4.46365 26.8383 4.72241 26.9252 4.9824 27.0038C5.1151 27.0438 5.24506 27.0933 5.3753 27.1411C5.55807 27.2082 5.7417 27.2734 5.92173 27.3472C6.11968 27.4285 6.31239 27.5224 6.51024 27.6039C6.73525 27.6965 6.96326 27.7819 7.19029 27.8696C7.40923 27.9542 7.62614 28.0451 7.8486 28.1192C7.99479 28.1679 8.14876 28.1942 8.30014 28.2262C8.46959 28.262 8.64034 28.2916 8.80995 28.3268C8.88795 28.3429 8.96423 28.3672 9.04197 28.3848C9.0878 28.3952 9.13496 28.3997 9.19328 28.4167C9.2416 28.4212 9.27817 28.4158 9.31473 28.4104C9.35212 28.4166 9.3895 28.4229 9.43698 28.4377C9.46141 28.4484 9.47575 28.4506 9.49009 28.4527C9.60985 28.4679 9.72962 28.4831 9.86176 28.5087C9.95887 28.5255 10.044 28.5287 10.1281 28.5397C10.1619 28.5441 10.1933 28.5657 10.2258 28.5795C10.2159 28.5807 10.2059 28.5819 10.1856 28.5764C10.163 28.573 10.1507 28.5763 10.1384 28.5796C10.0395 28.5808 9.94057 28.5819 9.83288 28.5721C9.80974 28.5609 9.79535 28.5607 9.78096 28.5606C9.72539 28.5613 9.66981 28.5621 9.60446 28.5621C9.59468 28.5613 9.59642 28.5612 9.59642 28.5612Z" fill="#FC4752"/>
<path d="M10.2351 28.5826C10.1933 28.5657 10.1619 28.5441 10.1281 28.5397C10.044 28.5287 9.95887 28.5255 9.87144 28.5109C10.0849 28.5077 10.301 28.5175 10.5172 28.5165C10.726 28.5155 10.9349 28.5035 11.1543 28.5067C11.1644 28.5327 11.1639 28.5483 11.1635 28.5639C11.152 28.5713 11.1406 28.5852 11.129 28.5853C10.8341 28.5863 10.5392 28.5859 10.2351 28.5826Z" fill="#FC4752"/>
<path d="M11.5568 28.4517C11.637 28.4561 11.7088 28.4584 11.7806 28.4616C11.8403 28.4641 11.8998 28.4676 11.9617 28.4789C11.7298 28.5066 11.4956 28.5261 11.2614 28.5457C11.26 28.5319 11.2585 28.5182 11.2571 28.5045C11.3542 28.4864 11.4514 28.4682 11.5568 28.4517Z" fill="#FC4752"/>
<path d="M9.30682 28.4084C9.27817 28.4158 9.2416 28.4212 9.20284 28.4185C9.23339 28.4091 9.26615 28.4077 9.30682 28.4084Z" fill="#FC4752"/>
<path d="M11.1743 28.5641C11.1639 28.5483 11.1644 28.5327 11.1645 28.5093C11.1938 28.5015 11.2233 28.5015 11.2529 28.5015C11.2557 28.5113 11.2586 28.5211 11.2614 28.5309C11.236 28.542 11.2105 28.5531 11.1743 28.5641Z" fill="#FC4752"/>
<path d="M10.1415 28.5837C10.1507 28.5763 10.163 28.573 10.178 28.5747C10.1687 28.5823 10.1566 28.5851 10.1415 28.5837Z" fill="#FC4752"/>
<path d="M1.78198 14.9858C1.82087 14.8579 1.85297 14.7275 1.90006 14.6027C1.99982 14.3383 2.106 14.0763 2.21274 13.8147C2.23973 13.7485 2.27152 13.6817 2.31472 13.6257C2.34387 13.5879 2.39689 13.5685 2.45709 13.558C2.16327 14.0117 2.01464 14.5179 1.82868 15.0186C1.80707 15.012 1.79452 14.9989 1.78198 14.9858Z" fill="#FC4752"/>
<path d="M1.71496 15.2743C1.72803 15.2203 1.74111 15.1663 1.75419 15.1123C1.76622 15.1148 1.77825 15.1173 1.79028 15.1198C1.81494 15.185 1.81692 15.247 1.73982 15.2931C1.7256 15.281 1.72094 15.2769 1.71496 15.2743Z" fill="#FC4752"/>
<path d="M1.7755 14.9898C1.79452 14.9989 1.80707 15.012 1.8251 15.0265C1.82326 15.056 1.81595 15.0842 1.80325 15.1062C1.78545 15.0839 1.77303 15.0678 1.76061 15.0517C1.76341 15.0324 1.76622 15.013 1.7755 14.9898Z" fill="#FC4752"/>
<path d="M1.75862 15.0609C1.77303 15.0678 1.78545 15.0839 1.79472 15.1092C1.77992 15.1024 1.76828 15.0863 1.75862 15.0609Z" fill="#FC4752"/>
<path d="M1.71375 15.2804C1.72094 15.2769 1.7256 15.281 1.73077 15.2909C1.7259 15.2923 1.71922 15.2894 1.71375 15.2804Z" fill="#FC4752"/>
</svg>
